<svg xmlns="http://www.w3.org/2000/svg" viewBox="0 0 300 300"><defs><style>.cls-2{fill:#f1c411}</style></defs><g id="OBJECTS"><circle cx="154.09" cy="145.35" r="110.52" fill="#fcfcfc" stroke="#04517d" stroke-miterlimit="10" stroke-width="8"/><path class="cls-2" d="M110.18 189.37a7.9 7.9 0 01-.11 1.1 4.69 4.69 0 01-.28 1.11c-.11.28-.23.41-.37.41s-.21-.08-.35-.24a5.5 5.5 0 00-.54-.52 4.05 4.05 0 00-.84-.52 3.06 3.06 0 00-1.29-.24 2.86 2.86 0 00-1.54.43 4.82 4.82 0 00-1.25 1.15 8.54 8.54 0 00-1 1.63 14.1 14.1 0 00-.68 1.92 15.93 15.93 0 00-.4 2 15.57 15.57 0 00-.13 1.84 7.47 7.47 0 00.2 1.81 3.66 3.66 0 00.58 1.29 2.38 2.38 0 00.93.77 2.85 2.85 0 001.23.26 4.09 4.09 0 001.39-.22 5.26 5.26 0 001-.49c.27-.17.5-.34.68-.48a.78.78 0 01.48-.22.19.19 0 01.2.14 1 1 0 01.06.39 2.27 2.27 0 010 .3v.47c0 .17 0 .35-.08.55s-.07.39-.11.56a4.49 4.49 0 01-.13.47 1.52 1.52 0 01-.2.38 2.68 2.68 0 01-.49.41 5.23 5.23 0 01-.89.48 7 7 0 01-1.19.37 5.88 5.88 0 01-1.42.16 5.61 5.61 0 01-2.25-.43 4.36 4.36 0 01-1.7-1.29 6.21 6.21 0 01-1.07-2.17 11.1 11.1 0 01-.38-3.05 18.78 18.78 0 01.22-2.84 17.68 17.68 0 01.66-2.88 15 15 0 011.11-2.67 9.35 9.35 0 011.6-2.21 7.39 7.39 0 012.09-1.51 6 6 0 012.6-.55 5.37 5.37 0 011.52.21 4.71 4.71 0 011.24.56 3 3 0 01.75.64 1.21 1.21 0 01.15.72zm14.2 4.52a22.77 22.77 0 01-.18 2.76 19.75 19.75 0 01-.59 2.91 15.62 15.62 0 01-1.07 2.76 9.75 9.75 0 01-1.61 2.33 7.44 7.44 0 01-2.23 1.61 7.51 7.51 0 01-5.36.2 4.27 4.27 0 01-1.78-1.22 5.27 5.27 0 01-1.1-2.06 10.31 10.31 0 01-.37-2.94 24.19 24.19 0 01.18-2.88 19.55 19.55 0 01.61-3 15.29 15.29 0 011.09-2.75 9.9 9.9 0 011.63-2.31 7 7 0 012.22-1.57 7.53 7.53 0 015.32-.18 4.46 4.46 0 011.78 1.23 5.61 5.61 0 011.09 2.09 10.53 10.53 0 01.37 3.02zm-3.18.36a8.12 8.12 0 00-.15-1.62 3.47 3.47 0 00-.5-1.22 2.32 2.32 0 00-.9-.77 3.43 3.43 0 00-3.1.22 4.86 4.86 0 00-1.32 1.28 8.34 8.34 0 00-.94 1.81 15.26 15.26 0 00-.6 2.07 19.37 19.37 0 00-.33 2c-.06.66-.09 1.25-.09 1.75a8 8 0 00.15 1.62 3.18 3.18 0 00.5 1.21 2.4 2.4 0 00.91.76 3.09 3.09 0 001.36.26 3.16 3.16 0 001.74-.48 4.78 4.78 0 001.31-1.27 7.63 7.63 0 00.93-1.8 15 15 0 00.61-2.05 19.35 19.35 0 00.42-3.82zm21.33 12.61a.78.78 0 01-.11.28.49.49 0 01-.24.2 2.08 2.08 0 01-.48.12 5.28 5.28 0 01-.75 0 5.17 5.17 0 01-.76 0 1.58 1.58 0 01-.45-.12.35.35 0 01-.2-.2.63.63 0 010-.28l2.54-16.34-6.73 15.48a.78.78 0 01-.54.49 3.57 3.57 0 01-1.11.13 2.51 2.51 0 01-1.07-.17.52.52 0 01-.34-.42l-1.73-14.86-2.44 14.83a.82.82 0 01-.1.26.52.52 0 01-.24.19 1.48 1.48 0 01-.44.11 4.84 4.84 0 01-.72 0 4.69 4.69 0 01-.71 0 1.27 1.27 0 01-.42-.11.41.41 0 01-.2-.19.46.46 0 010-.26l2.63-16.92a3.18 3.18 0 01.18-.66 1.57 1.57 0 01.3-.49 1.27 1.27 0 01.4-.3 4.43 4.43 0 00.5-.31h1.9a3 3 0 01.85.1 1.23 1.23 0 01.58.38 1.75 1.75 0 01.35.68 6.17 6.17 0 01.17 1l1.42 11.24h.05l5-11.24c.16-.38.31-.7.46-1a2.92 2.92 0 01.5-.69 1.79 1.79 0 01.62-.39 2.47 2.47 0 01.81-.12h2.26a1.18 1.18 0 01.52.1.9.9 0 01.35.32 1.27 1.27 0 01.15.51 2.71 2.71 0 010 .69zm15.28-14.34a11 11 0 01-.14 1.68 9.29 9.29 0 01-.46 1.72 8.29 8.29 0 01-.81 1.6 5.7 5.7 0 01-1.22 1.33 5.45 5.45 0 01-1.68.92 6.56 6.56 0 01-2.24.34h-1.51l-.93 5.95a.47.47 0 01-.11.26.6.6 0 01-.28.19 2.45 2.45 0 01-.48.11h-.72a6.47 6.47 0 01-.69 0 1.66 1.66 0 01-.43-.11.43.43 0 01-.21-.18.35.35 0 010-.27l2.61-16.74a1.78 1.78 0 01.43-1 1.16 1.16 0 01.83-.34h4.17a7 7 0 01.91.17 4 4 0 011.23.53 3.42 3.42 0 01.92.9 4 4 0 01.59 1.27 6.3 6.3 0 01.22 1.67zm-3.06.1a2.54 2.54 0 00-.27-1.21 1.4 1.4 0 00-.8-.71 1.8 1.8 0 00-.53-.14 4.5 4.5 0 00-.66 0h-1.32l-1 6.4h1.37a2.77 2.77 0 001.1-.2 2.62 2.62 0 00.81-.52 2.81 2.81 0 00.59-.76 5.7 5.7 0 00.4-.91 6.77 6.77 0 00.22-1 7.87 7.87 0 00.09-.95zm15.97-1.05a9.46 9.46 0 01-.2 1.91 7.36 7.36 0 01-.65 1.79 6.07 6.07 0 01-1.16 1.52 5.3 5.3 0 01-1.73 1.08 2.23 2.23 0 011 1.14 9.74 9.74 0 01.62 2.32l.62 4c0 .22.06.42.08.59a4 4 0 010 .44.45.45 0 01-.08.26.5.5 0 01-.27.17 2.17 2.17 0 01-.55.1h-.87a5.63 5.63 0 01-.79 0 1.17 1.17 0 01-.46-.12.38.38 0 01-.22-.21 1.5 1.5 0 01-.08-.32l-.58-4.32a9.64 9.64 0 00-.26-1.32 3.56 3.56 0 00-.4-1 1.71 1.71 0 00-.6-.57 1.9 1.9 0 00-.85-.19h-1l-1.16 7.43a.57.57 0 01-.11.28.7.7 0 01-.29.19 2 2 0 01-.5.11 5.28 5.28 0 01-.75 0 4.9 4.9 0 01-.73 0 1.48 1.48 0 01-.45-.11.45.45 0 01-.23-.19.43.43 0 010-.28l2.77-17.69a1.53 1.53 0 01.41-.95 1.07 1.07 0 01.75-.29h4.07a6.72 6.72 0 011.92.25 4 4 0 011.48.78 3.44 3.44 0 01.93 1.33 4.9 4.9 0 01.32 1.87zm-3.49.76a2.36 2.36 0 00-.11-.72 1.29 1.29 0 00-.33-.58 1.54 1.54 0 00-.59-.38 2.75 2.75 0 00-.87-.13h-1.62l-.79 5.12h1.35a2.87 2.87 0 001.38-.3 2.57 2.57 0 00.91-.78 2.85 2.85 0 00.51-1.05 4.66 4.66 0 00.16-1.18zm7.19 13.67a.66.66 0 01-.11.26.73.73 0 01-.28.19 1.88 1.88 0 01-.49.11 5.07 5.07 0 01-.73 0 4.9 4.9 0 01-.73 0 1.4 1.4 0 01-.44-.11.42.42 0 01-.22-.19.46.46 0 010-.26l2.8-18a.54.54 0 01.11-.27.81.81 0 01.29-.19 2.14 2.14 0 01.48-.11 8.66 8.66 0 011.44 0 1.87 1.87 0 01.44.11.42.42 0 01.22.19.48.48 0 010 .27zm15.88-18v.33c0 .15 0 .33-.06.52s-.06.38-.1.58a3.77 3.77 0 01-.15.56 1.64 1.64 0 01-.21.42.33.33 0 01-.26.16h-3.77L183.32 206a.66.66 0 01-.12.27.7.7 0 01-.29.19 2.23 2.23 0 01-.48.12 5.28 5.28 0 01-.75 0 4.9 4.9 0 01-.73 0 1.79 1.79 0 01-.45-.12.44.44 0 01-.21-.19.59.59 0 010-.27l2.41-15.51h-3.73a.23.23 0 01-.23-.16 1.12 1.12 0 01-.07-.45v-.35c0-.16 0-.32.06-.52s.06-.39.1-.59a3.74 3.74 0 01.16-.56 1.57 1.57 0 01.21-.41.31.31 0 01.25-.15H190a.23.23 0 01.21.16 1.12 1.12 0 01.09.54zm9.55 16.92a5.59 5.59 0 01.05.84.6.6 0 01-.16.46.87.87 0 01-.51.19h-1a6.88 6.88 0 01-.71 0 1.36 1.36 0 01-.42-.08.37.37 0 01-.21-.17.93.93 0 01-.06-.33l-.41-3.81h-5.52l-1.53 3.73a1.79 1.79 0 01-.19.34.61.61 0 01-.3.21 1.86 1.86 0 01-.52.11h-.81a5.56 5.56 0 01-.82 0 .51.51 0 01-.39-.21.68.68 0 010-.48 5.2 5.2 0 01.29-.82l7.18-16.84a2.5 2.5 0 01.23-.41.68.68 0 01.33-.23 2 2 0 01.57-.1h2.01a2.13 2.13 0 01.61.1.45.45 0 01.29.24 2 2 0 01.09.44zm-4.46-13.76l-3.4 8.31h4.29zm16.74-2.16a2.19 2.19 0 010 .33 4.79 4.79 0 01-.05.49c0 .17-.05.35-.08.53a4.5 4.5 0 01-.13.5 2 2 0 01-.16.38.24.24 0 01-.2.14.75.75 0 01-.4-.18c-.16-.12-.35-.25-.59-.4a5.11 5.11 0 00-.81-.39 3 3 0 00-1.07-.19 2.32 2.32 0 00-1 .22 2.13 2.13 0 00-.71.58 2.36 2.36 0 00-.4.81 3.13 3.13 0 00-.14.9 2 2 0 00.21.94 3.16 3.16 0 00.55.74 6.5 6.5 0 00.78.67c.3.22.59.44.89.68a10.52 10.52 0 01.9.77 5.27 5.27 0 01.78 1 5.07 5.07 0 01.55 1.27 5.77 5.77 0 01.2 1.63 7.32 7.32 0 01-.43 2.56 6.17 6.17 0 01-1.23 2.06 5.66 5.66 0 01-1.92 1.37 6.13 6.13 0 01-2.5.5 5.42 5.42 0 01-1.37-.16 6.13 6.13 0 01-1.12-.37 5 5 0 01-.81-.46 2.56 2.56 0 01-.5-.46 1.19 1.19 0 01-.16-.66 3.18 3.18 0 010-.36c0-.15 0-.32.06-.5s.06-.37.1-.56a4.93 4.93 0 01.13-.52 2 2 0 01.18-.38q.1-.15.21-.15a.81.81 0 01.47.23 7.78 7.78 0 00.67.5 5.14 5.14 0 00.94.5 3.31 3.31 0 001.32.24 3.07 3.07 0 001.18-.22 2.55 2.55 0 00.86-.6 2.82 2.82 0 00.52-.89 3.59 3.59 0 00.17-1.11 2.18 2.18 0 00-.2-1 2.89 2.89 0 00-.55-.76 5.4 5.4 0 00-.76-.65l-.88-.66c-.29-.24-.59-.49-.87-.77a4.63 4.63 0 01-.77-1 5.28 5.28 0 01-.54-1.27 5.9 5.9 0 01-.21-1.67 7 7 0 01.41-2.43 5.75 5.75 0 011.15-1.92 5.24 5.24 0 011.75-1.25 5.63 5.63 0 012.24-.44 5.39 5.39 0 012 .39 3.46 3.46 0 01.72.37 2.06 2.06 0 01.41.34.92.92 0 01.17.3 1.37 1.37 0 01.04.44zM186 119.55h-51.41H186zm-.27 1.36a31.27 31.27 0 011.21-4.85l.09-.24h-53.07v7.46h51.32c.18-.79.32-1.57.45-2.37z"/><path d="M160.14 164.52c0 5.36 3.65 9.72 8.13 9.72s8.14-4.35 8.14-9.71-3.64-9.72-8.13-9.73-8.13 4.36-8.14 9.72zM133 164.5c0 5.36 3.64 9.72 8.13 9.72s8.13-4.35 8.14-9.71-3.65-9.72-8.13-9.73-8.14 4.36-8.14 9.72zm49.51-28.96h-42l-8.91-33.86h59.17a3.78 3.78 0 010-.6v-1a4.27 4.27 0 01.21-1.36 27.67 27.67 0 01.89-3.42h-67.84l11.3 42.94a5.49 5.49 0 005.09 4.41h40.49c.46-2.43 1.01-4.78 1.6-7.11z" fill="#205465"/><path class="cls-2" d="M180.24 146.41h-46.78l-16.65-64.3v-.28l-.06-.14-.06-.14c0-.06 0-.11-.07-.16l-.06-.12-.09-.16a.86.86 0 01-.07-.1l-.1-.14-.08-.1-.1-.12-.1-.1-.1-.1-.12-.1-.1-.08-.13-.09-.11-.06-.13-.08-.13-.06h-.12l-.17-.06h-.07l-16.6-4.49c-1.5-.4-3 .73-3.32 2.52a3.38 3.38 0 002.11 4l15 4 16.78 64.74a2.88 2.88 0 002.65 2.33h.23c.06 0 .12 0 .18-.17h47.77a61.73 61.73 0 01.6-6.44z"/><text transform="matrix(.78 0 0 1 109.02 221.59)" font-size="13.7" fill="#04517d" font-family="Montserrat-SemiBoldItalic,Montserrat" font-weight="600" font-style="italic" letter-spacing=".58em">E<tspan x="17.13" y="0" letter-spacing=".56em">X</tspan><tspan x="34.37" y="0">P</tspan><tspan x="52.24" y="0" letter-spacing=".59em">RESS</tspan></text></g></svg>