<svg xmlns="http://www.w3.org/2000/svg" viewBox="0 0 766.66 536.96"><defs><clipPath id="clip-path" transform="translate(34.94 -1.91)"><rect class="cls-1" width="512" height="512" rx="31.83"/></clipPath><style>.cls-1{fill:none}.cls-3{fill:#fff}.cls-9{fill:#f1c413}</style></defs><g id="Capa_2" data-name="Capa 2"><g id="Capa_1-2" data-name="Capa 1"><g id="Capa_2-2" data-name="Capa 2"><g id="Capa_1-2-2" data-name="Capa 1-2"><g clip-path="url(#clip-path)"><rect class="cls-3" x="35.11" width="512" height="512" rx="31.83"/><g style="isolation:isolate" font-size="51.96" fill="#215565" font-family="Montserrat-SemiBoldItalic,Montserrat" font-weight="600" font-style="italic"><text transform="matrix(.78 0 0 1 122.21 316.66)" style="isolation:isolate" letter-spacing=".58em">E</text><text transform="matrix(.78 0 0 1 172.88 316.66)" style="isolation:isolate" letter-spacing=".57em">X</text><text transform="matrix(.78 0 0 1 223.86 316.66)" style="isolation:isolate" letter-spacing=".58em">P</text><text transform="matrix(.78 0 0 1 276.72 316.66)" style="isolation:isolate" letter-spacing=".59em">RESS</text></g><path class="cls-9" d="M-34.94 537.76h757.67c1.33 0 2.68-.11 4 0 2.82.29 4.22-.72 3.88-3.71a30.2 30.2 0 010-3.56V175.17c1.84.79.83 2.4.84 3.55q.09 74.66 0 149.29 0 103.53.09 207c0 3.07-.6 3.64-3.65 3.64q-379.65-.15-759.29-.14c-1.13.11-2.74 1.09-3.54-.75z" transform="translate(34.94 -1.91)"/><path d="M703.71 250.05v34.13a33.41 33.41 0 01-1.9 5.18c-4 6.56-7.92 13.2-12.34 19.52-2.56 3.2-4.77 6.66-7.25 9.92a250.22 250.22 0 01-24.06 27.65 288.51 288.51 0 01-41.35 34.76c-13.54 9.66-28.19 17.49-42.43 26a16 16 0 01-5.63 2.56c-9.1 3.59-17.74 8.2-26.82 11.84-40.45 16.19-82.4 26.44-125.33 33.17-23.75 3.72-47.64 6.09-71.6 7.83-29.44 2.15-59 2.1-88.46 1.86-19.26-.15-38.48-1.4-57.71-2.51-42.37-2.46-84.48-7.41-126.43-13.56-24.37-3.58-48.59-8-72.76-12.67-2.67-.51-5.73-.51-7.4-3.38-.07-41.1 0-82.21 0-123.3.37-3.17 2.31-1.47 3.46-.9 5.06 2.49 10.15 4.91 15.12 7.56C44.83 333.88 79.86 350 115.38 365c29.65 12.54 59.75 23.93 90.45 33.66 45.63 14.45 92 25.54 139.65 31 16.48 1.89 33 2.72 49.66 3 27.8.46 55.37-1.25 82.71-6.37 45.73-8.55 87.85-25.6 125.57-53 42.16-30.69 73.31-70.36 95.93-117 1.09-2.29 1.19-5.41 4.36-6.24z" transform="translate(34.94 -1.91)" fill="#003d89"/><path class="cls-9" d="M703.71 250.05c-10 21-21.33 41.23-35.19 60-24.61 33.35-54.65 60.61-90.63 81.28-34.66 19.94-72 32.17-111.55 38.15a430.55 430.55 0 01-57.5 4.54c-41.95.69-83.25-4.44-124.18-13.1-60.08-12.72-117.76-32.69-174.2-56.63-38.78-16.45-76.64-34.77-113.89-54.38-1.31-.68-2.59-1.43-3.89-2.15-1-5.66-.27-11.38-.38-17.07 0-.66.56-.95 1.24-.85C9.49 299 26 307 42.46 315.07c51.12 25 103.42 47.21 157.6 64.88 45.85 15 92.54 26.25 140.44 32.3 2.05.26 4.13.21 6.21.31 22.94 2.05 45.87 3.78 69 2.69 14.91-.71 29.82-1.55 44.61-3.74s29.58-5.66 44.16-9.43a207.14 207.14 0 0030.43-10 21.57 21.57 0 004.83-1.84 25.05 25.05 0 016.54-2.74c9.27-3.31 17.74-8.19 26.24-13.05a14.72 14.72 0 004.5-1.79c1-.66 2.1-1.29 3.16-1.93a287.27 287.27 0 0059.39-46.39A308.16 308.16 0 00691.22 254c3.33-6.27 6.91-12.42 9.61-19 .51-1.29 1-2.9 2.9-2.93z" transform="translate(34.94 -1.91)"/><path class="cls-9" d="M703.72 232.07c-6.7 13.65-13.57 27.22-21.7 40.12-25.69 40.71-58.71 74-100.16 98.78a15.48 15.48 0 01-1.61.72c-.82.35-1.18-.12-1.42-.8-.07-2.15 1.75-2.9 3.07-3.94 5.64-4.41 11.18-8.92 16.55-13.65 7.5-6.37 15.13-12.62 21.34-20.34a19.69 19.69 0 014.09-4c2.72-2.13 5.41-4.28 7-7.46a8 8 0 012.28-2.84 14.13 14.13 0 004.94-4.87 7.47 7.47 0 01.72-1 307 307 0 0028-36.81A314.7 314.7 0 00694 229.34c.8-1.86 2.26-3.42 2.59-5.5s2.08-3.47 3-5.28a11.12 11.12 0 012.56-3.37l1.63-2.17z" transform="translate(34.94 -1.91)"/><path class="cls-9" d="M479.57 407.14c1.7-2.22 4.33-1.45 6.55-2.05 15.77-4.13 31.58-8 46.5-14.92 5-2.29 10.34-3.88 15.36-6.14 12.59-5.64 23.26-14.18 33.94-22.69a173.6 173.6 0 0015.58-13.73c7-7.12 14.64-13.66 21.43-21.12 9.5-10.45 18.82-20.93 27.2-32.37q7.27-9.93 14.4-20A274.52 274.52 0 00675.86 249c.57-1 1-2.17 2.21-2.66a3 3 0 011 2.46c-1.31 6.75-6.38 11.55-9.17 17.54a9.13 9.13 0 01-.92 1.53c-3 3-4.84 6.69-7.13 10.12a403.5 403.5 0 01-41.61 52.34c-15 16-31.75 30-48.8 43.75a125.26 125.26 0 01-21.58 12.51c-4.74 1.12-9 3.37-13.46 5.26a218.74 218.74 0 01-31.33 10.61c-6.92 2-14 3.48-21 5.12-1.45.29-3.07 1-4.5-.44zM218.75 512.88c-35.57 2.89-71.22 1.81-106.83 1.63-19.15-.09-38.3-1.4-57.42-2.62-12.48-.8-24.92-2.17-37.44-2.63a194.81 194.81 0 01-19.74-1.94c-1.54-.22-4.1.25-4.67-2.43l.63-.58c3.83-1.05 7.63.14 11.4.42 10.59.79 21.19 1.57 31.77 2.47 17.38 1.49 34.82 2 52.22 2.87 5.46.27 10.93.38 16.39.67 22 1.14 44.11 1.13 66.16.76 17-.28 34-.84 51-1.89 5.12-.31 10.35-.13 15.44-1.1a7.27 7.27 0 011.59-.34c10.75.23 21.41-1.33 32.1-2.23a8.28 8.28 0 011.54-.39c8.42 0 16.7-1.44 25-2.56 2.05-.28 4.1-.54 6.06.55a1 1 0 01.32 1.37c-4.41.88-8.8 2-13.35 1.79-4.67 1.22-9.53 1-14.25 1.77-2.56.78-5.23.64-7.84.83-16.26 1.2-32.48 2.83-48.79 3.18a2.57 2.57 0 00-1.29.4zM703.88 292.5c.87 4.74-2.12 8.19-4.31 11.73-10.41 16.82-22.68 32.19-35.84 47-8.07 9.07-17.22 16.82-26.3 24.57a302.41 302.41 0 01-44.09 30.89c-1.38.8-2.84 1.47-4.27 2.2s-2.51 2-4.27 1.21c-1-2.24.89-2.89 2.16-3.58 11-6.15 21.36-13.31 31.8-20.33 2.83-1.91 5.35-4.2 8.1-6.2 16.8-12.6 31.63-27.25 45.22-43.2 1.23-1.61 2.82-2.95 3.66-4.86 5.45-6.77 10.43-13.86 15.25-21.09 3.43-5.12 6.63-10.42 9.9-15.66.7-1.18.97-2.92 2.99-2.68zM478.68 464c-6.38 3.45-13.49 4.89-20.19 7.45-13.32 5.08-27.06 8.7-40.68 12.68-15 4.37-30.3 7.55-45.62 10.54-6.84 1.35-13.69 3.33-20.8 3.08a5.41 5.41 0 01-4.42.18c.72-3.41 3.85-2.63 5.95-3 9.83-1.88 19.68-3.64 29.4-6 7.53-1.39 14.92-3.38 22.32-5.3 16.35-3.95 32.62-8.19 48.45-14 6.08-1.75 12.43-2.75 17.79-6.45a4.52 4.52 0 012.39-1c4 .3 7.08-2.31 10.75-3.07 1.79-.38 3.47-1.64 5.4-.56.43 3-2.46 1.79-3.58 2.81l-2.68.89c-1.26 1.22-3.03 1.11-4.48 1.75z" transform="translate(34.94 -1.91)"/><path class="cls-9" d="M485.8 461.34c.91-1.26 3.07-.83 3.56-2.66-.05-2.38 2-2.75 3.5-3.31 17.82-6.46 34.39-15.61 51.38-23.84a30 30 0 002.5-1.81c10.52-5.48 20.48-11.91 30.64-18 2.52-.23 4.21-3.58 7.22-1.92l4.46-.89-14.53 8.85c-7.73 4.7-15.22 9.85-23.25 14-7.62 3.9-15.15 8-22.88 11.72-4.43 2.14-8.93 4.16-13.44 6.14q-13.23 5.87-26.51 11.58a7.74 7.74 0 01-2.65.14zm-6.23-54.2c7.45-.08 14.34-3.07 21.53-4.38 1.44-.26 2.86-.63 4.28-.95.52.32.52.67.07 1.05-13 4.21-26.37 6.56-39.79 8.68a415.85 415.85 0 01-81.46 4.24c-12.52-.51-25.09-.86-37.49-3.22 12.93.81 25.85 1.91 38.8 2.35 9.73.33 19.46.74 29.24-.43 6.42-.76 13-.65 19.46-1 9.3-.46 18.4-2.3 27.61-3.14 6.06-.51 11.67-3.05 17.75-3.2zM-6.46 289.84c-2.18 3-.75 6.42-1 9.64a76.37 76.37 0 00.16 8.28c-.09 1-.26 2.05-.26 3.08v119.42c0 .88.15 1.77.22 2.65 1.56 1.66 1.53 3.76 1.53 5.82 0 17.67.12 35.33 0 53 0 .52-.11 1-.16 1.54 0 .72 0 1.46-.07 2.19s0 1.35-.05 2.05 0 1.29 0 1.94v1.9a8.86 8.86 0 01-.06 1.26 3.56 3.56 0 01-1.07 2.27c-1.5-1.48-.86-3.36-.87-5.06q0-103.1.08-206.2c-.12-1.11-2.17-4 1.55-3.78zm710.34 2.66a389.29 389.29 0 01-22.21 33.64c-1.66 2.22-3.58 4.24-5.37 6.35-1.11 1-1.47 3.23-3.77 2.41-.8-2.15 1-3.15 2-4.47 5.5-6.85 10.86-13.82 15.13-21.5 3.12-6 7.68-11.05 10.38-17.28.4-.94.63-1.93 1.09-2.84.2-1.91 1.5-3.2 2.59-4.6q.09 4.12.16 8.29zM346.93 497.78h4.46c-4.07 2.73-9 2.3-13.48 3.33-7.08 1.63-14.44 2-21.68 3-4 .55-7.89 2.33-12 .79v-.9c2.56-3.34 6.55-2.36 9.84-2.81 9-1.25 18-2.92 27-4.17 2.08-.29 4.09-.89 5.86.76zm-128.18 15.1c3.26-1.54 6.91-1.61 10.27-1.63 11.51-.06 22.95-1.1 34.38-2.05 4.41-.36 8.79-.7 13.21-.74-2.15 1.54-4.87 1.6-7.16 1.6-16.95.02-33.7 3.66-50.7 2.82zm483.34-297.69a6.66 6.66 0 01-1.63 3.58c-3.88 2.69-7.74 5.4-10.42 9.42-.36.54-1 .46-1.54 0-1.17-2.83 1.65-4.46 2-6.81 1.95-5.61 6.56-6.3 11.59-6.19z" transform="translate(34.94 -1.91)"/><path class="cls-9" d="M690.53 221.41c.35 2.61-2.13 4.51-1.78 7.12v.6c-1.14 2.77-2.85 5.28-3.69 8.19a11.11 11.11 0 01-1.14 2.19c-.84.93-1.6 2.05-3.14 1.46a98.81 98.81 0 019.75-19.56z" transform="translate(34.94 -1.91)"/><path class="cls-9" d="M680.74 241l2.67-1.77a9.38 9.38 0 01-5.34 9.78v-2.68a10.07 10.07 0 012.67-5.33zM290.86 506.66a53.19 53.19 0 0113.35-1.78c-4.36 1.26-8.56 3.79-13.35 1.78zm-14.25 1.78a46.39 46.39 0 0114.25-1.78c-4.49 2.67-9.45 1.53-14.25 1.78zM478.68 464c1.24-1.2 2.88-1.4 4.45-1.78-.9 2.06-2.74 1.78-4.45 1.78z" transform="translate(34.94 -1.91)"/><path class="cls-3" d="M-7.41 493.44v-60.52c20.09 4 40.22 7.86 60.46 11q22.71 3.58 45.48 6.7c13.72 1.89 27.45 3.67 41.22 5.16 11.14 1.22 22.33 2 33.51 2.87 15.73 1.21 31.46 2.46 47.22 3.43 8.11.51 16.26.65 24.37.83 20.75.47 41.53.61 62.28 0q27.42-.78 54.78-3.19c18.81-1.68 37.56-3.71 56.21-6.56A625.73 625.73 0 00487 438.57a503.76 503.76 0 0061.22-21c5.88-2.44 11.54-5.37 17.34-8 1.24-.56 2.36-2.05 4-.95-.22 2-1.85 2.65-3.27 3.52a31.91 31.91 0 00-6.1 3.7 13.43 13.43 0 01-3.07 2c-3.53 1.15-6.38 3.59-9.73 5.12-3.87 1.86-7.74 3.72-11.43 5.93a37.17 37.17 0 00-3.79 1.89 38.34 38.34 0 00-3.84 1.94c-4.61 1.74-8.79 4.33-13.26 6.33-11.5 4.72-22.82 9.83-34.47 14.15a80.22 80.22 0 00-10.1 3.69q-24.3 8.35-49.08 15.21c-24.26 6.38-48.82 11.39-73.45 16.09-11.46 1.39-22.79 3.59-34.24 5-12 1.48-24.07 2.92-36.11 4.18-12.94 1.35-25.93 1.9-38.86 3.29-5.12.55-10.36.71-15.49.82-10.37.21-20.68 1.53-31.07 1.15-14.52-.55-29 1.58-43.52.78-15.1-.83-30.2-.34-45.3-.93-12.26-.48-24.53-1-36.77-1.73-13.25-.81-26.53-1.53-39.76-2.68-9.85-.83-19.7-1.64-29.54-2.56a6.68 6.68 0 01-4.72-2.07z" transform="translate(34.94 -1.91)"/><path class="cls-9" d="M557 416.87l2.56-1.77a21.56 21.56 0 006.28-3.68l3.69-2.75c14.41-8.74 29.47-16.39 43.26-26.11 1.2-.85 2.53-1.5 3.8-2.24.51 3.64-3.36 3.86-4.68 6.07a46.37 46.37 0 01-8.14 5.54 7.79 7.79 0 00-4.61 3.25c-2.11 1.86-4.67 3-7 4.52a23.36 23.36 0 00-4 2.25 7.52 7.52 0 01-1 .61 24 24 0 00-3.92 2.29 8.45 8.45 0 01-1 .56 45 45 0 00-7.38 4.24c-5.1 2.74-9.7 6.29-14.91 8.83-1.17.47-2.32 1.13-3.63.43-.77-1.03.1-1.49.68-2.04zm100.61-71.02c8.36-8.88 16.27-18.15 24-27.6a.78.78 0 011.1-.09c1 1.9-.51 3.07-1.43 4.25-4.2 5.63-8.85 10.9-13 16.55-1.61 1.67-3.59 3-4.45 5.34a5.38 5.38 0 01-.65 1 41.72 41.72 0 00-5.18 4.85c-5.67 5.52-11 11.35-17.23 16.29-1.14.91-2.09 2.09-3.64 2.33a2.5 2.5 0 01-1.81-.51c-.57-2 1.28-2.38 2.27-3.29 6.8-6.24 14.12-11.97 20.02-19.12z" transform="translate(34.94 -1.91)"/><path class="cls-9" d="M657.61 345.85c-2.4 5.07-6.89 8.36-10.93 11.85-3.87 3.35-7.24 7.24-11.34 10.34-.74 2.82-3.21 4.09-5.22 5.77-4.39 3.73-9.13 7-13.74 10.46-1.42 1.05-2.83 2.89-5.07 1.54 1-2.56 4.51-2.73 5.31-5.5a400.11 400.11 0 0040.99-34.46zm43.53-57.06c-.21 6.4-4.55 10.84-7.68 15.8-1 1.58-2 3.18-2.92 4.8-.51.64-1 1.53-2 .8a1.66 1.66 0 01.2-1.81z" transform="translate(34.94 -1.91)"/><path class="cls-9" d="M688.7 308.38v1.89c-1.29 3.27-2.56 6.56-6.19 8l-1-.05zm-138.81 77.43c7.68-3.16 13.94-8.8 21.35-12.44a2.15 2.15 0 012.51-.31c.89 1.13 0 1.54-.8 2a98.09 98.09 0 01-26.62 13.31c.11-2.3 2.53-1.5 3.56-2.56zm-44.44 17.05l-.07-1.05c10.56-3.07 20.91-6.71 31.16-10.67.07.18.14.35.22.51a2.47 2.47 0 01-1.11 1.23 154.51 154.51 0 01-30.2 9.98z" transform="translate(34.94 -1.91)"/><path class="cls-9" d="M549.89 385.81l-3.55 2.6-6.09 2.79a4 4 0 01-3.71-.05c4.29-2.15 8.51-4.53 13.35-5.34zM573 375.08l1-1.69a1.68 1.68 0 01.93-1.35 2.46 2.46 0 011.69 0 1.79 1.79 0 011 1.36 5.23 5.23 0 01-4.62 1.68z" transform="translate(34.94 -1.91)"/><path class="cls-9" d="M577.54 373.42l-1-1c0-2 1.16-2.12 2.67-1.84l1 1.07zm-41 17.75l3.71.05a8.38 8.38 0 01-4.61 1.69zM678.07 249a24.17 24.17 0 005.34-9.78 1.92 1.92 0 01.89-1.78 80.88 80.88 0 014.45-8.88c3-4.38 5.81-8.88 11.71-9.73 0 2.25-2.51 3.18-2.75 5.3-.3.26-.61.51-.93.77-2.73 1.59-4.22 4.22-5.63 6.89a383.49 383.49 0 01-30.91 53.65 17.35 17.35 0 01-2.16 3.21c-1 .8-1.83 2.05-3.39 1.11-.7-1.33.26-2.32.87-3.2 4.39-6.2 8.26-12.76 12.73-18.91 1.8-5.07 5.25-9.21 7.81-13.85a46.91 46.91 0 001.97-4.8zm-44.42 70.43l-1.84 2.39c-2 2.93-5 5-7.16 7.84a232.34 232.34 0 01-21.91 21.57c-1.21 1-2.53 2-3.79 3-1.06-1.45.16-2.43.72-3.55 5.77-6.1 12.38-11.33 18.05-17.54 11.62-12.72 23.12-25.5 33.21-39.49 1-1.34 1.75-3.22 4-3.1a2.09 2.09 0 01.6 1.12c-2.33 5.42-6.59 9.5-10 14.19-2 2.82-4.61 5.2-6.48 8.2l.06-.08c-1.76 1.85-3.62 3.64-5.46 5.45z" transform="translate(34.94 -1.91)"/><path class="cls-9" d="M659.36 285.39c2.4-5.74 6.47-10.47 9.77-15.65 7.4-11.57 13.63-23.74 19.7-36a22.81 22.81 0 011.7-2.53c2.11-2.34 3.37-5.43 6.24-7.11h.94c0 2.2-1.43 3.71-2.64 5.31-5.08 7.09-8.23 15.26-12.71 22.7-4.78 7.93-9.4 16-14.64 23.61-1.81 2.22-3.15 4.78-4.85 7.08-.87 1.2-1.49 2.9-3.51 2.59z" transform="translate(34.94 -1.91)"/><path class="cls-9" d="M667.37 275.62c8.39-14 17-27.83 24-42.54a8 8 0 013.68-3.68c-2.08 6.37-5.72 12-9 17.73-5.71 10.2-11.47 20.37-18.58 29.7a.74.74 0 01-.36-1 .88.88 0 01.26-.21z" transform="translate(34.94 -1.91)"/><path class="cls-9" d="M667.37 275.62c0 .4.11.8.17 1.2A261.43 261.43 0 01639.05 314c.66-3.54 3.65-5.5 5.63-8.13a170.72 170.72 0 0010.24-14.26c.8-1.26 1.89-2.29 2.66-3.58l1.77-2.65c3.84-2.3 4.53-7.17 8.02-9.76zm-66.75 75.52l-1.62 3.07c-6.06 6.09-13.28 10.79-19.72 16.43a5 5 0 00-2.67 1.84h-1.7c-1.28.31-1.34-.58-.72-1.08 8.34-6.8 16.84-13.4 24.89-20.56.47-.41 1.06-.12 1.54.3zm24.02-21.48c1.37-3.55 4.44-5.53 7.17-7.84-1.59 3.34-4.26 5.7-7.17 7.84z" transform="translate(34.94 -1.91)"/><path class="cls-9" d="M633.65 319.43a11.86 11.86 0 015.46-5.49c-1.4 2.24-2.73 4.56-5.46 5.49zm-33.03 31.71c-4.1 1.08-6.07 4.92-9 7.39-5.59 4.61-12.11 8.19-16.71 14l-.89.88h-2.73c5.23-5.85 12-9.82 17.8-15.07 9.66-8.82 19.65-17.24 28.56-26.92s17.59-19 25.51-29.29a323.06 323.06 0 0021.08-29.94 11.7 11.7 0 014.1-4.53c-2.12 5.63-6.4 10-9.37 15.08-1.37 2.36-3.55 4.26-4 7.17a.52.52 0 01.23.59c-.08.19-.16.3-.24.3-4.96 4.87-8.5 10.87-12.96 16.2s-9 10.94-13.78 16.12c-8.54 9.22-16.69 18.8-26.58 26.66a6.42 6.42 0 00-1.02 1.36zM-7.34 504.88v-2.66c2.56-1.23 5.26-.44 7.82-.16 9.67 1.07 19.37 1.74 29.07 2.49 14.27 1.11 28.53 2.22 42.83 2.73a6.56 6.56 0 013 .84 6 6 0 003.42.79c10.8-.58 21.55 1.36 32.34.88 10.37-.46 20.66.9 31 1 19.24.25 38.43-.92 57.65-1.21 11-.16 22.11-.88 33.16-1.54 1.86-.1 3.9-.38 5.43 1.25a6.38 6.38 0 01-2 .83c-7.08.36-14.16.51-21.24 1-30 1.79-60 2.08-90.05 1.69-16.69-.22-33.39-.76-50-1.86-10.31-.69-20.64-.71-30.93-1.63q-19.79-1.74-39.59-3.45c-3.98-.37-7.94-.67-11.91-.99z" transform="translate(34.94 -1.91)"/><path class="cls-9" d="M238.34 509.33c-20.56.1-41.07 1.51-61.61 2.08-15.55.44-31.11.8-46.59.32-9.76-.31-19.55.12-29.26-.75-8-.72-15.94-.67-23.92-.77a2.77 2.77 0 01-2.4-.89 4 4 0 013.23-1.21c8 .2 16-.78 23.93.65a27.48 27.48 0 004.88.17c28.75 0 57.51.48 86.23-.19 14.73-.34 29.51-.74 44.24-2.17 9.38-.91 18.84-1.53 28.26-2.16 7.06-.48 14.11-1.2 21.13-2.22 2.78-.4 5.58-.83 8.28.43 1.47 2.67-1 1.65-1.83 1.77-6.89.93-13.82 1.73-20.74 2.28-9.24.59-18.43 1.94-27.71 2.22-1.74.06-3.55-.47-5.22.44h-.9z" transform="translate(34.94 -1.91)"/><path class="cls-9" d="M272.16 506.66c4-1.59 8.35-.82 12.47-1.74 3.52-.78 7.24-.45 10.67-1.82.19-.18.36-.36.54-.55 7.64-1.31 15.36-2 23-3.26 6.51-1 13.07-1.75 19.52-3.19 2-.59 4.17-.24 6.14-1 1.68-.34 3.41-.13 5.09-.54a8.33 8.33 0 011.19-.31 23.45 23.45 0 004.17-.8 8.58 8.58 0 011.22-.27 16.24 16.24 0 004.32-.74c2.64-.3 4.9-2 7.6-2.05a23.5 23.5 0 008.44-1.28 7.94 7.94 0 011.34-.33c1.65-.13 3.33-.42 4.61 1-9.41 3.22-19.29 4.25-29 6.25-2.24.46-4.65.35-6.65 1.74-9.26.65-18.32 2.62-27.48 4q-7.62 1.11-15.25 2.26c-7-.23-13.74 1.34-20.59 2.13-3.74.4-7.51.24-11.35.5zm-32.93 2.67c4.37-2.05 9.16-.9 13.72-1.51 6.31-.84 12.76-1.78 19.21-1.16-3.48 1.82-7.42 1.16-11.07 1.54-7.23.8-14.53 1.68-21.86 1.13zm423.69-164.42a6.12 6.12 0 010-.85 15.53 15.53 0 013.94-4.14c.34-.18.69-.33 1-.48 1.47-.84 2.41-2.51 4.27-2.74l.52.24c-1.71 4.57-5.74 7.38-8.82 10.75a286.18 286.18 0 01-34.58 32 7.46 7.46 0 01-2 .79c-.61-1.42.46-2.35 1-3.43 5.12-5.74 11.67-9.87 17.24-15.12 3.87-3.65 7.68-7.33 11.43-11.11 2.17-1.82 4.02-3.94 6-5.91z" transform="translate(34.94 -1.91)"/><path class="cls-9" d="M629.11 377.8l-1.78 2.68c-5.26 5.68-12 9.37-18.35 13.57-8.07 5.33-16.25 10.51-24.38 15.75-2.71 0-4.26 3.07-7.12 2.67a2 2 0 01.55-2.32c2.31-2.14 5.15-3.46 7.86-5 6.14-3.38 12-7.26 17.79-11.13 7.17-5 14.71-9.46 21.37-15.15 1.22-.87 2.29-2.29 4.06-1.07zm43.62-42.64l3.58-2.67c-.23 2.25-1.9 3.34-3.58 4.45a1.13 1.13 0 01-.37-1.4zm-199.4 127.95a2 2 0 00-1.78.9c-5.9 2.14-11.72 4.51-17.92 5.83-13.82 4.85-28 8.71-42.13 12.51a4.28 4.28 0 01-3.8-.33c.35-3.63 4.05-2.26 5.78-3.84 15.87-4.73 31.88-9.11 47.57-14.47 9.1-3.11 17.92-7 27.19-9.63a3.72 3.72 0 012.66.82c.72 2.29-1.4 2.25-2.49 2.73a145.89 145.89 0 01-15.08 5.48z" transform="translate(34.94 -1.91)"/><path class="cls-9" d="M473.33 463.11c4.3-3.23 9.83-3.53 14.43-6.09 1.13-.63 2.52-.77 3.37-1.9l.39-.46c1.54-.82 3.39-1.07 4.78-2.26 1.85-1.38 4.06-1.85 6.22-2.46a27.53 27.53 0 006-2.52c.71-.36 1.43-.68 2.16-1a14.35 14.35 0 003.68-1.92c5.47-2.62 10.75-5.67 16.35-8a7.39 7.39 0 003.79-1.79c3.51-2.05 7-4.22 11-5.25a2.27 2.27 0 011.78.75c-3.59 4.25-9 5.37-13.59 7.81a387 387 0 01-36.76 17.16c-2.56 1-5.56 1.14-7.52 3.46-3.83 1.32-7.71 2.49-11.45 4a6.82 6.82 0 01-4.63.47zm-65.87 18.68c7-.28 13.45-3 20.1-4.79 8.78-2.36 17.47-5.08 26.19-7.65.31.2.42.4.32.59s-.21.31-.32.31c-2.82 2.33-6.43 2.88-9.72 3.86-12.13 3.59-24.36 6.84-36.57 10.18a13.78 13.78 0 01-2.65.17c-1.16.7-2.49.46-3.74.6a1.83 1.83 0 01-1-.77 1.32 1.32 0 01.4-1.11 23.66 23.66 0 016.38-1.46c.22.01.42.04.61.07z" transform="translate(34.94 -1.91)"/><path class="cls-9" d="M400.34 484.44h4.46a101.36 101.36 0 01-22.25 5.33h-5.35c-.17-1.13.62-1.59 1.48-1.8 6.65-1.59 13.39-2.65 20.07-4.09a2 2 0 011.59.56zm53.41-14.2v-.9c6.07-1.32 11.44-5 17.8-5.33-5.31 3.83-11.48 5.23-17.8 6.23zm93.48-40h-1.8c-.47-1.95 1.08-2.56 2.31-3.26 9-5.06 17.92-10.19 26.58-15.8 1.2-.78 2.56-1.63 4.06-.48l-.9 1.78a185.24 185.24 0 01-30.25 17.76z" transform="translate(34.94 -1.91)"/><path class="cls-9" d="M-7.34 499.55v-1.77c3.14-1.19 6.14.36 9.18.61 13.23 1.09 26.48 2 39.7 3.26 5.44.51 10.93.8 16.39.89 9.18.15 18.33.79 27.47 1.24q43.69 2.16 87.42 1.5c17-.29 34-.72 51-1.81 12.67-.81 25.36-1.42 38-2.63 8.81-.85 17.61-1.91 26.42-2.67.49-.11 1-.22 1.45-.37 2.49-.58 5.07 0 7.56-.64a7.73 7.73 0 011.28-.32c1.9-.33 3.88-.07 5.74-.76a12.83 12.83 0 012.56-.35c1.73-.07 3.49.15 5.18-.51a7.8 7.8 0 011.35-.32c5.24-.37 10.36-1.54 15.56-2.12 15.51-2.8 31.06-5.36 46.48-8.65 11.82-2.52 23.69-4.87 35.24-8.5a647.62 647.62 0 0065.14-20.43c3.39-.47 6.23-3.64 10-2.08a1.27 1.27 0 01.11 1.34c-12.39 6.09-25.63 9.88-38.65 14.29-12.32 4.17-25.09 6.88-37.37 11.15-22.21 6.85-45.06 10.71-67.89 14.65-4.8.83-9.59 1.73-14.38 2.63-10.6 1-21.07 3-31.66 4-10.75 1-21.43 2.45-32.19 3.3-9.57.76-19.16 1.31-28.71 2.34-5.43.59-10.92.68-16.36.94-38.65 1.82-77.31 1.16-116 .89-13.14-.09-26.32-.74-39.43-1.7-14.44-1.06-28.89-1.88-43.32-3-7.56-.84-15.16-1.15-22.69-2.17a6.64 6.64 0 01-4.58-2.23z" transform="translate(34.94 -1.91)"/><path class="cls-9" d="M-7.41 493.44c12.38 1.15 24.75 2.48 37.15 3.41 36.05 2.69 72.14 4.41 108.31 4.82q52 .58 103.94-2.73c29.27-1.85 58.4-5 87.42-9.21q9.66-1.39 19.32-2.81c.35 2.05-1.33 2-2.51 2.2-2.17.41-4.32.89-6.48 1.33a9.2 9.2 0 01-1.35.34c-5.41.69-10.81 1.37-16.2 2.18a7.17 7.17 0 01-1.28.36c-2.11.43-4.32 0-6.41.67a9.58 9.58 0 01-1.28.32c-3.76.24-7.44 1-11.16 1.53a7.91 7.91 0 01-1.34.32c-4.61.07-9.19.94-13.77 1.48a7.86 7.86 0 01-1.36.3c-2.25.31-4.57-.18-6.8.59a8.27 8.27 0 01-1.39.33 167.21 167.21 0 00-18.15 1.53 6.7 6.7 0 01-1.53.31c-11.82.27-23.56 1.85-35.38 1.94a15.11 15.11 0 00-3 .65c-32.51 2.48-65.08 2.42-97.63 1.8-23-.43-46.11-1.21-69.12-2.85-17.73-1.27-35.4-2.54-53.06-4.07-3-.27-5.52-1-6.93-3.93a.83.83 0 01-.01-.81z" transform="translate(34.94 -1.91)"/><path class="cls-9" d="M-7.45 494.23c3.64 3.73 8.64 2.63 13 3.29 7.68 1.17 15.52 1.51 23.31 2 19.11 1.23 38.23 2.36 57.35 3.54h1.33q49 1.74 98.1.63c11.31-.25 22.74.35 34-1.53 7.5-.52 15-.78 22.53-1.34 5.55-.41 11.11-.83 16.65-1.33 6.51-.75 13.07-1.08 19.59-1.78 2.26-1.19 4.86.33 7.12-.88h.89c5-.72 10.11-1 15.13-1.78 4.14-.69 8.34-.93 12.46-1.77 2.26-1.2 4.86.32 7.12-.9 2-.81 4-.39 6-.3a1 1 0 01.29 1.33c-5 1.4-10.15 1.46-15.18 2.53-1.58.87-3.29.24-4.93.43a9.32 9.32 0 00-4.75.72c-1.47.51-3.15-.36-4.56.63-2.56 1.16-5.44-.33-8 .89-10.84 1-21.68 2.14-32.53 3.15-11.32 1-22.69 1.32-34 2.36-6.33.58-12.73.87-19 1-23.7.32-47.4 1.87-71.11 1-18.94-.7-37.88-.68-56.79-1.77-11.07-.64-22.16-1-33.2-1.83C28.9 501.45 14.5 500.22.11 499c-2.6-.23-5.78 0-7.46-3z" transform="translate(34.94 -1.91)"/><path class="cls-9" d="M295.3 503.1c-12.52.31-24.89 2.34-37.34 3.4-4.1.34-8.25.68-12.33.88-14.29.67-28.57 1.57-42.87 2.16-32.56 1.33-65.11.51-97.66.46-10.15 0-20.36-.51-30.55-.68a6.44 6.44 0 00-2-.83c-11.61-.64-23.25-.89-34.82-1.92-15-1.33-30.21-1.7-45.13-4.35v-.9c3.46-1 6.79.8 10.21.52a19.46 19.46 0 005.12.43 30.89 30.89 0 006.51.46c1.62.59 3.37.21 5 .72 1.92.3 3.86 0 5.78.17a16.59 16.59 0 005.06.41 50.36 50.36 0 007.36.48c1.94.62 3.94.33 5.91.41a55.67 55.67 0 007.52.51c2.05.64 4.1.3 6.15.41 9.12.71 18.25 1.22 27.4 1.34 2.62.7 5.3.31 8 .42 4.85.68 9.73.33 14.6.51 4.65.82 9.33.19 14 .39h57.86c4.65-.19 9.33.4 14-.36 4.3-.24 8.62.21 12.89-.51 2.65-.13 5.33.29 7.95-.42 17-.36 33.86-2 50.77-3.3 7.65-.56 15.24-1.59 22.86-2.29 1.79-.41 3.66 0 5.43-.61 11.62-1.32 23.17-3.17 34.81-4.49 2 0 3.86-1.53 6-.57a2 2 0 01.19 1.49c-4.85 1.75-10 1.79-15 2.56-7.82 1.24-15.69 2.26-23.55 3.16z" transform="translate(34.94 -1.91)"/><path class="cls-9" d="M-7.35 496c2.37 2.11 5.46 2.32 8.29 2.56 12.62 1.1 25.27 1.79 37.89 2.81 17.21 1.39 34.46 1.91 51.71 2.87 9.77.51 19.5.37 29.25.63 11.08.29 22.13 1.18 33.24 1 16.71-.3 33.4-1 50.13-1.12 15.46-.12 30.92-1.38 46.35-2.59 13.5-1.05 26.92-3 40.48-3.45-6.39 1.74-13 1.95-19.53 2.56-15.09 1.43-30.21 2.49-45.35 3.58-6.18.43-12.38.51-18.56.81-27.65 1.25-55.35 1.62-83 .88-16.68-.45-33.37-.74-50-1.64-14.41-.78-28.86-1.33-43.22-2.77-11.71-1.18-23.52-1.31-35.13-3.44a18.44 18.44 0 01-2.5-.86c-.05-.65-.05-1.24-.05-1.83zm10.68 6.22a37.87 37.87 0 01-10.66-.9v-1.77c7.26 1.87 14.74 1.9 22.13 2.68 1.53.15 3.27-.52 4.6.87l-.54.39c-1.31-.07-2.68.43-3.91-.38H7.83c-1.37-1.11-3.16.19-4.5-.89zm664.94-161.74h-.88a1.2 1.2 0 01-.09-1.69l.09-.09c4.22-5.27 8.5-10.5 12.62-15.87 1-1.36 2.35-2.68 2.56-4.56q3.07-4 6.18-8l1.78-.89c-4.09 8-9.64 14.92-15.21 21.84-1 1.24-2.56 2.05-2.56 3.93-1.25 2.01-3.28 3.32-4.49 5.33zm20.48-111.95c-.41 3.49-2.65 6.07-4.45 8.88a13.78 13.78 0 014.45-8.88zM338.94 489.78c2.94-2.08 6.89-.67 9.79-2.85 15.43-3.2 30.88-6.31 46.28-9.63 8.93-1.93 17.79-4.2 26.68-6.32a1.08 1.08 0 010 1.29c-4.39 2.71-9.61 2.77-14.31 4.5A56.64 56.64 0 01400 479c-2.11-.28-4.06.43-6 1-2.32.18-4.19 1.95-6.59 1.82a24 24 0 00-4.29.64 8.42 8.42 0 01-1.23.27 54.1 54.1 0 00-7.43 1.73 10.72 10.72 0 01-5.26 1 27.12 27.12 0 00-8 2c-5.84 1.26-11.78 2.13-17.63 3.22-1.57.16-3.32.5-4.63-.9z" transform="translate(34.94 -1.91)"/><path class="cls-9" d="M421.71 472a8.87 8.87 0 000-1l48.94-15.18a1.08 1.08 0 01.08 1.31c-15.13 6.21-30.83 10.71-46.52 15.22a2.22 2.22 0 01-2.5-.35zm58.66-19.77l34.7-14.23a1.23 1.23 0 01.33 1.14A5.5 5.5 0 01513 441c-3 1.61-6.43 2.39-9.21 4.42a6.11 6.11 0 01-1 .57 15.2 15.2 0 00-4.09 1.83 7.2 7.2 0 01-2.05 1 9.64 9.64 0 00-3.76 1.23 7.08 7.08 0 01-1.05.48A11.43 11.43 0 00488 452a4.4 4.4 0 01-1.13.43c-2.31-.43-4.28 1.47-6.61.95a1 1 0 01.11-1.15zM557 416.87l-.9 1.82-.3.52c-1.18 1.08-2.71 1.75-3.68 3.09-1.71 1.27-3.32 2.86-5.76 1.93-.7-1.07.35-1.5.8-2.14 3.17-1.98 6.15-4.3 9.84-5.22z" transform="translate(34.94 -1.91)"/><path class="cls-9" d="M515.17 439.13c0-.39 0-.78-.08-1.17a85.92 85.92 0 0113.22-6.18l.42.52a21.32 21.32 0 01-13.56 6.83zm32.01-17.03c-.29.63-.57 1.27-.85 1.91a2.64 2.64 0 01-1.62 1.76c-2.91.81-5.22 3.19-8.43 3.22a1.27 1.27 0 01-.85-.78 67.54 67.54 0 0111.75-6.11zm-66.81 30.13a10.78 10.78 0 00.09 1.12c-1.16 1.38-2.88 1.62-4.45 2.17-1.74.6-3.34 1.77-5.34 1.37 0-.37 0-.73-.06-1.09a39.81 39.81 0 019.76-3.57zm85.5-40.81c-1.54 2.21-3.45 3.71-6.28 3.68a20 20 0 016.28-3.68zm-37.56 20.36a5.8 5.8 0 013.59-1.78c.13.18.27.36.4.55-.72 1.79-1.89 2.47-3.73 1.49z" transform="translate(34.94 -1.91)"/><path class="cls-9" d="M531.88 430a6.09 6.09 0 013.55-1.81l.24.29c-.35 2.25-1.63 2.65-3.58 1.78zm79.45-44.2c6.14-2.68 10.82-7.52 16.19-11.33 2.75-2 5.24-4.28 7.84-6.43h1.79c.4 1.91-1.28 2.46-2.31 3.36-3.44 3-7.26 5.59-10.64 8.71-6.69 5.33-14 9.85-20.84 14.92-6.05 3.47-11.81 7.4-17.92 10.78a2.46 2.46 0 01-2.56-.16.82.82 0 01-.1-1.16c1.38-1.07 3.12-1.54 4.45-2.67 1.38-1.07 3.13-1.53 4.45-2.68 2-2 4.61-3.17 7.13-4.45.94-1.86 3-2.37 4.48-3.51zm-51.65 31.99c5-3.11 9.62-6.71 15.12-8.89a1.42 1.42 0 011.81-.16c0 .14.16.37.12.41-5.16 4.69-10.78 8.64-17.54 10.71-.98-.96-.25-1.52.49-2.07z" transform="translate(34.94 -1.91)"/><path class="cls-9" d="M576.6 408.92h-1.8c2.24-2.24 4.73-4.07 8-4.45v.92c-1.13 2.77-3.01 4.3-6.2 3.53zm26.72-17.75c-1 1.78-3 2.36-4.48 3.52.33-2.69 2.41-3.1 4.48-3.52zm-11.6 7.95c-.93 1.81-2.61 2.38-4.45 2.68.95-1.8 2.63-2.34 4.45-2.68zm-4.46 2.68c-.94 1.79-2.61 2.37-4.45 2.66.96-1.77 2.64-2.35 4.45-2.66zm-27.58 15.99c-.29.6-.59 1.2-.88 1.79l-.3.49a3.24 3.24 0 01-2.56.93 1.69 1.69 0 01-.92-.59c-.22-1 .59-1.25 1.12-1.72zm64.09-38.2c4-4.38 9.52-7 13.36-11.55 7.4-5.6 13.5-12.6 20.48-18.67a1.18 1.18 0 010 1.79c-7.27 8.7-16.43 15.41-24.79 23-1.3 1.18-2.8 2.11-3.7 3.68-1.54-.09-2.33 1.27-3.55 1.79a1.22 1.22 0 01-1.8-.04z" transform="translate(34.94 -1.91)"/><path class="cls-9" d="M657.6 351.16v-1.79c1.43-1.9 2.69-4 5.33-4.46-.64 3.09-3.18 4.48-5.33 6.25zm9.79-12.45v1.77l-4.39 3.58c.35-2.68 2.51-3.9 4.39-5.35zm29.38-114.63c-2.11 2.35-3.31 5.49-6.24 7.11 1.21-3.12 2.58-6.11 6.24-7.11zm-41.85 66.65v-.89l2.66-1.8c-.05 1.81-1.23 2.78-2.65 3.58.01-.29 0-.62-.01-.89zM333.59 496.9v-.9c7.29-2.38 15-2.76 22.44-4.31 13.1-2.71 26.31-4.9 39.29-8.19 1.61-.41 3.37-1.41 5 .07v.88l-23.14 5.34c-2.91.88-6 1.06-8.91 1.78-2.85-.23-5.06 2.41-8 1.77-1.33 1.06-3.12-.2-4.46.89H355c-1.33 1.05-3.12-.2-4.45.88-1.64 1.12-3.7-.26-5.35.89-1.94 1.22-4.09.82-6.22.9a7.24 7.24 0 01-5.39 0z" transform="translate(34.94 -1.91)"/><path class="cls-9" d="M333.59 496.9h5.35c-5.17 2.18-10.75 2.38-16.2 3.07-9.12 1.19-18.13 3.45-27.42 3.13 5.15-1.74 10.58-1.8 15.87-2.65 7.46-1.19 15.06-1.56 22.4-3.55zm34.71-5.34a19.93 19.93 0 018.9-1.78c-2.75 1.68-5.8 1.86-8.9 1.78zM345.15 496c1.57-1.57 3.58-.61 5.34-.88-1.56 1.58-3.55.6-5.34.88zm5.34-.9c1.26-1.44 2.95-.69 4.46-.88-1.26 1.45-2.95.69-4.46.88zm5.35-.88c1.26-1.45 3-.69 4.46-.89-1.3 1.46-2.96.67-4.46.89zm312.43-153.74c.45-2.64 2.56-3.9 4.46-5.33v1.78zm-91.67 68.44a19.22 19.22 0 006.24-3.54h2.64c.95-.36 1.1.08.9.88l-8 4.46c-7.21 2.82-13.11 7.87-19.83 11.53-4.49 2.43-9.36 4.36-13.12 8l-10.67 5.34c-1 1-2.42 1.1-3.59 1.77-5.67 2.56-10.95 6-16.89 8-1 1-2.42 1.1-3.59 1.78a1.89 1.89 0 01-1.76.85c-2.1.83-4.16 1.76-6.23 2.66l-6.23 2.67c-1.65 1-3.59 1.05-5.34 1.78h-2.68c-.18-2.24 1.75-2.34 3.07-2.93 3.43-1.54 7-2.75 10.28-4.57a9.88 9.88 0 011.15-.52 97.34 97.34 0 0015.21-6.91 10.06 10.06 0 012.27-1.08 52.57 52.57 0 0013.73-6.82 24.1 24.1 0 016.48-3.59 13.26 13.26 0 004.84-2.26 9.13 9.13 0 011-.64 45.73 45.73 0 006.89-3.72 5 5 0 011.06-.58 9.13 9.13 0 004.32-1.91c6.62-2.48 12.25-6.57 17.85-10.65zm47.17-29.33h1.79c-6.38 6.08-13.95 10.49-21.36 15.11-.32.38-.62.37-.92 0z" transform="translate(34.94 -1.91)"/><path class="cls-9" d="M603.28 394.69h.92c-5.5 4.52-11.78 7.84-17.82 11.53l-.9-.88a118.68 118.68 0 0117.8-10.65zM502.72 448c-4.1 3.65-10 3.85-14.26 7.1-9.69 3.49-19.32 7.13-29.08 10.43q-22.59 7.62-45.68 13.59a3.48 3.48 0 01-3.59 0c11-3.26 21.94-6.42 32.86-9.79 13.49-4.16 26.88-8.61 39.91-14.09.94-.39 1.93-.67 2.9-1 4.25-3.88 10-4.58 15-6.9a1.92 1.92 0 011.94.66z" transform="translate(34.94 -1.91)"/><path class="cls-9" d="M410.11 479.11h3.59c-1.67 1.84-4.46 1.06-6.24 2.67-2.28.93-4.77 1.06-7.12 1.77-8.15.52-15.79 3.5-23.77 4.88-12.75 2.22-25.4 5-38.11 7.45a29.32 29.32 0 01-4.88.12l-5.34.88c-.3-.2-.41-.39-.3-.59s.2-.3.3-.3c8-2.1 16.15-3 24.23-4.41q29.06-5.17 57.64-12.47zm92.6-28.43a9 9 0 016.23-2.66 9.09 9.09 0 01-6.23 2.66zm-11.57 4.44a8.5 8.5 0 015.34-1.77c-1.38 1.72-3.34 1.84-5.34 1.77zm40.05-17.77a5 5 0 013.58-1.78c-.7 1.61-2.05 1.86-3.58 1.78zm-20.46 9.77a4.88 4.88 0 013.58-1.77c-.71 1.65-2.06 1.86-3.58 1.77z" transform="translate(34.94 -1.91)"/><path class="cls-9" d="M400.34 483.56a13.56 13.56 0 017.12-1.77c-2.08 1.71-4.57 1.85-7.12 1.77zM328.24 496v.9c-10.24 1.39-20.51 2.8-30.77 4.16-1.6.21-3.22.2-4.83.29-1.33 1-3.12-.21-4.46.88l-35.5 3.38c-4.1.4-8.24.62-12.32.87-9 .54-17.92 1.67-26.94 1.09-2.27 1.17-4.87-.34-7.12.88h-13.36c-4.39 1.22-9-.38-13.35.88h-58.76c-4.39-1.26-9 .34-13.35-.88H92.35c-2.26-1.22-4.85.29-7.12-.88-9.53.58-19-.85-28.49-.9-1.63-1.15-3.69.23-5.34-.88h-8c-1.64-1.15-3.69.23-5.34-.88H30c-1.33-1.08-3.12.17-4.45-.88h-6.19c-.3-.2-.4-.39-.3-.59s.2-.29.29-.29c18.18-.13 36.25 1.94 54.37 2.92 22.91 1.24 45.8 1.54 68.72 1.54 16.89 0 33.79.36 50.69-.11 19.3-.51 38.57-1.78 57.85-3.26 14-1.08 27.88-2.41 41.79-3.83 9.94-1 19.82-2.73 29.73-4.06 1.89-.3 3.82-.26 5.74-.35zm40.95-11.55c1.89.31 3.56-.58 5.34-.89 2.63-.77 5.39-1 8-1.78 1.34-1 3.12.19 4.46-.88 2.6.32 4.39-2.56 7.11-1.79a25.36 25.36 0 015.34-.89c2.47-.62 5.06-.9 7.12-2.62 1.32 1.16 3.19-.57 4.46.86-8.62 3.58-17.8 5.12-26.86 7-14.55 3.07-29.18 5.81-43.79 8.6-3.75.72-7.64.69-11.27 2.11-.45-.58-1.35-.23-1.77-.86v-.89c3.58-2.11 7.83-1.26 11.57-2.66 7.63.13 14.89-2 22.26-3.58 2.65-.72 5.43-.93 8.03-1.73z" transform="translate(34.94 -1.91)"/><path class="cls-9" d="M411 476.46c-1.51-.21-3.19.54-4.46-.86 5.21-.52 10.08-2.43 15.13-3.59 14.19-3.44 28-8.28 41.79-12.86 2.38-.79 4.78-1.5 7.17-2.25l5.34-1.78a.55.55 0 01.23.6c-.07.2-.15.3-.22.3-11.45 5-23.34 8.71-35.25 12.36-9.79 2.99-19.57 6.16-29.73 8.08zM502.72 448c-6 1.15-11.07 4.72-16.9 6.22v-.91c-.51-1.72 1.38-1 1.79-1.76 1.28-1.09 3.07-.9 4.45-1.78 1.28-1.09 3.07-.9 4.46-1.77l1.77-.9c1.42-.74 3.07-1 4.45-1.77 3.07-2.05 6.77-2.75 9.85-4.76 11-4.48 21.47-10.18 32-15.67l1.77-.91a9.9 9.9 0 005.34-2.65c1.13-.52 2-2 3.55-.91.55 1-.4 1.29-.89 1.78-2.51 1.77-5.54 2.6-8 4.44-1.6 1.24-3.54 1.81-5.33 2.69l-6.24 3.54a150 150 0 01-14.27 7.12l-1.77.9c-5.33 2.39-10.68 4.74-16 7.11z" transform="translate(34.94 -1.91)"/><path class="cls-9" d="M487.58 451.58l-1.78 1.77c-3.55-.14-6.29 2.65-9.79 2.68v-.9c1.25-1.18 2.88-1.39 4.45-1.77 2.28-.98 4.54-2 7.12-1.78zm-160.23 41.75a1.92 1.92 0 011.77.86c-5.68.12-11.17 2.11-16.89 1.81 4.86-1.89 10.07-1.8 15.12-2.67zM290 498.69c2.5-1.77 5.35-.51 8-.89-2.53 1.72-5.37.5-8 .89zm8-.91c1.25-1.46 2.95-.69 4.45-.9a1.25 1.25 0 011.76 0c-1.87 1.67-4.15.58-6.21.9zm8.88-1.78h5.34c-1.57 1.57-3.56.62-5.34.88-.3-.19-.4-.39-.3-.59s.2-.29.3-.29z" transform="translate(34.94 -1.91)"/><path class="cls-9" d="M306.88 496v.88h-4.46c1.26-1.44 2.95-.69 4.46-.88zm-48.07 3.55c-4.25 1.88-8.9 1.16-13.31 1.54-8.57.76-17.2 1.72-25.87 1.12a6 6 0 011.94-.84q18.63-.94 37.24-1.82zm80.13-9.77c-3.58 2.12-7.74 1.68-11.57 2.66h-6.25c5.79-1.9 11.8-2.24 17.82-2.66zm-60.55 8a84.64 84.64 0 01-19.58 1.77c6.43-1.64 13-1.83 19.58-1.77zm23.15-2.68a48.65 48.65 0 01-15.13 1.78 48.58 48.58 0 0115.13-1.78zm12.46-1.76c-4 1.65-8.19 1.85-12.46 1.77a36.34 36.34 0 0112.46-1.77zm-28.48 3.55c-2.19 1.75-4.76.51-7.13.89 2.19-1.78 4.75-.52 7.13-.89zm35.6-4.45c-2.19 1.76-4.76.51-7.12.9 2.19-1.75 4.76-.52 7.12-.9zm-213.64 16c4.44.51 9-1.06 13.36.88-4.44-.49-9.01 1.07-13.36-.88zm72.11.88c4.34-1.94 8.91-.38 13.35-.88-4.34 1.95-8.94.39-13.35.88zm-94.36-1.76c2.36.36 4.93-.87 7.12.88-2.35-.37-4.93.86-7.12-.88zm121.07.86c2.19-1.76 4.75-.52 7.12-.88-2.2 1.76-4.76.53-7.12.88zm-168.25-3.53c1.79.26 3.78-.7 5.34.88-1.78-.27-3.77.69-5.34-.88zm13.35.89c1.79.27 3.78-.7 5.34.88-1.74-.27-3.74.69-5.34-.88zM25.6 504c1.5.19 3.19-.57 4.45.88-1.51-.19-3.21.56-4.45-.88zm-22.27-1.78c1.51.2 3.2-.56 4.46.88-1.51-.19-3.18.56-4.46-.88zm16.02.89v.89c-1.5-.19-3.2.56-4.46-.88zm268.83-.89c1.26-1.45 2.95-.69 4.46-.88-1.26 1.44-2.95.66-4.46.88zm81.01-17.77a14.49 14.49 0 01-8 1.78 14.27 14.27 0 018-1.78zm13.36-2.66a14.49 14.49 0 01-8 1.78 14.2 14.2 0 018-1.78zm16.9-3.58c-1.65 1.05-3.5.91-5.34.89 1.67-.93 3.36-1.84 5.34-.89zM387 480.9c-1.27 1.42-3 .69-4.47.88 1.27-1.45 2.97-.69 4.47-.88zm157.57-55.98c-.66 1.54-2.15 1.93-3.44 2.56q-12 6-24.07 12c-1.44.72-2.84 1.56-4.56 1.41-.26-.2-.35-.4-.26-.6s.17-.3.26-.3l2.67-.89c4.42-2.44 9.22-4.14 13.38-7.07l7.12-3.58z" transform="translate(34.94 -1.91)"/><path class="cls-9" d="M512.51 440v.9a23.81 23.81 0 01-9.79 4.43c2.38-3.33 6.68-3.24 9.79-5.33zM492 449.79a5.22 5.22 0 01-4.45 1.78c.93-2.03 2.76-1.77 4.45-1.78zm4.49-1.79a5.27 5.27 0 01-4.46 1.77c.9-2.03 2.74-1.77 4.46-1.77zm6.22-2.65a5.15 5.15 0 01-4.45 1.77 5.2 5.2 0 014.45-1.77zm52.51-24.9l-3.55.91c1-1.79 2.62-2.36 4.45-2.67zm-.88 1.8l.89-1.78 3.59-.89c-.98 1.8-2.64 2.35-4.48 2.67zM502.71 448a56.06 56.06 0 0116-7.11 52.65 52.65 0 01-16 7.11zm17.8-8a65 65 0 0114.25-7.1 33.91 33.91 0 01-14.25 7.1zm25.82-13.31c2-2.56 5-3.5 8-4.44-2.06 2.56-5.03 3.49-8 4.44zm-5.33 2.69a9.66 9.66 0 015.33-2.69c-1.19 2.04-3.13 2.62-5.33 2.69z" transform="translate(34.94 -1.91)"/><rect class="cls-1" x="36.7" y=".46" width="512" height="512" rx="31.83"/></g><path class="cls-9" d="M92.41 199.64a29.17 29.17 0 01-.42 4.17A20.36 20.36 0 0191 208c-.42 1-.89 1.58-1.41 1.58s-.83-.31-1.35-.92a16.69 16.69 0 00-2-2 14.81 14.81 0 00-3.2-2 11.41 11.41 0 00-4.86-.92 10.79 10.79 0 00-5.85 1.65 17.59 17.59 0 00-4.73 4.33 30.44 30.44 0 00-3.72 6.28 49.5 49.5 0 00-2.56 7.28 58.93 58.93 0 00-1.54 7.54 54.36 54.36 0 00-.51 7 27.21 27.21 0 00.76 6.85 13.93 13.93 0 002.19 4.89 9 9 0 003.51 2.92 10.8 10.8 0 004.68 1 14.55 14.55 0 005.27-.83 20.15 20.15 0 003.73-1.83 30.67 30.67 0 002.59-1.89 3.1 3.1 0 011.84-.84.75.75 0 01.76.52 4.54 4.54 0 01.19 1.47 11.19 11.19 0 01-.09 1.17c0 .52-.12 1.1-.21 1.75s-.19 1.35-.3 2.11-.25 1.47-.4 2.12a14.36 14.36 0 01-.51 1.78 4.87 4.87 0 01-.76 1.42 9.38 9.38 0 01-1.89 1.57 18 18 0 01-3.38 1.81 28.55 28.55 0 01-4.52 1.42 23.62 23.62 0 01-5.37.58 21.59 21.59 0 01-8.48-1.59 16.42 16.42 0 01-6.44-4.9 23.12 23.12 0 01-4.09-8.23 41.86 41.86 0 01-1.44-11.57 74.4 74.4 0 01.83-10.75 71.49 71.49 0 012.49-10.93 59.07 59.07 0 014.23-10.13 36.68 36.68 0 016-8.37 27.43 27.43 0 017.93-5.7 22.72 22.72 0 019.9-2.13 20.37 20.37 0 015.75.8 17.52 17.52 0 014.72 2.15 11.41 11.41 0 012.82 2.41 4.58 4.58 0 01.83 2.77zm53.84 17.14a83.26 83.26 0 01-.69 10.46 75.49 75.49 0 01-2.23 11 58.86 58.86 0 01-4.07 10.49 36.45 36.45 0 01-6.11 8.81 27.67 27.67 0 01-8.44 6.1 25.69 25.69 0 01-11.06 2.36 26.3 26.3 0 01-9.26-1.5 16.74 16.74 0 01-6.76-4.61 20.35 20.35 0 01-4.16-7.89 39.13 39.13 0 01-1.41-11.13 88.75 88.75 0 01.71-10.87 72.24 72.24 0 012.3-11.18 57.6 57.6 0 014.14-10.44 37.48 37.48 0 016.14-8.73 26.89 26.89 0 018.42-6A28.48 28.48 0 01134 193a16.57 16.57 0 016.75 4.68 20.81 20.81 0 014.14 7.93 39.7 39.7 0 011.36 11.17zm-12.05 1.39a30.29 30.29 0 00-.58-6.15 12.89 12.89 0 00-1.89-4.64 8.65 8.65 0 00-3.4-2.92 11.6 11.6 0 00-5.12-1 11.85 11.85 0 00-6.65 1.88 18.35 18.35 0 00-5 4.87A29.86 29.86 0 00108 217a59.19 59.19 0 00-2.3 7.84 67.72 67.72 0 00-1.23 7.76q-.37 3.78-.37 6.62a29.1 29.1 0 00.59 6.18 12.29 12.29 0 001.9 4.61 8.81 8.81 0 003.43 2.86 13.23 13.23 0 0011.78-.83 18 18 0 005-4.81 29.23 29.23 0 003.53-6.82 57.27 57.27 0 002.29-7.81 67.21 67.21 0 001.23-7.73c.24-2.52.36-4.77.36-6.73zM215.09 266a4 4 0 01-.42 1.06 1.92 1.92 0 01-.94.77 7 7 0 01-1.81.44 28.87 28.87 0 01-5.73 0 5.84 5.84 0 01-1.7-.44 1.38 1.38 0 01-.75-.77 2.12 2.12 0 01-.07-1.06l9.63-62-25.46 58.64a3 3 0 01-2 1.86 14.7 14.7 0 01-4.23.47 9.49 9.49 0 01-4.05-.63 2 2 0 01-1.28-1.59l-6.59-56.32h-.09l-9.14 56.28a2.84 2.84 0 01-.37 1 2 2 0 01-.91.72 6.25 6.25 0 01-1.69.42 22.53 22.53 0 01-2.72.14 22 22 0 01-2.69-.14 5.56 5.56 0 01-1.6-.42 1.37 1.37 0 01-.74-.72 1.62 1.62 0 010-1l10-64.15a11.55 11.55 0 01.67-2.5 6.44 6.44 0 011.13-1.86 4.42 4.42 0 011.54-1.14 16.32 16.32 0 001.86-1.19h7.23a11 11 0 013.23.42 4.6 4.6 0 012.2 1.41 6.89 6.89 0 011.32 2.6 20.27 20.27 0 01.62 3.87l5.38 42.61h.22l19.16-42.61a34 34 0 011.72-3.73 10.68 10.68 0 011.92-2.6 6.7 6.7 0 012.35-1.5 9.16 9.16 0 013.07-.47h8.57a4.61 4.61 0 012 .41 3.25 3.25 0 011.31 1.21 4.57 4.57 0 01.59 1.94 11.49 11.49 0 01-.07 2.62zM273 211.59a41.27 41.27 0 01-.51 6.38 34.79 34.79 0 01-1.72 6.52 30.77 30.77 0 01-3.08 6 22.63 22.63 0 01-4.6 5.07 21.56 21.56 0 01-6.4 3.49 25.28 25.28 0 01-8.5 1.28h-5.73L238.93 263a2 2 0 01-.43 1 2.29 2.29 0 01-1.05.71 8.34 8.34 0 01-1.83.41 24.78 24.78 0 01-2.72.14 22.7 22.7 0 01-2.61-.14 5.72 5.72 0 01-1.64-.41 1.64 1.64 0 01-.81-.68 1.44 1.44 0 01-.08-1l9.9-63.49a6.64 6.64 0 011.65-3.84 4.29 4.29 0 013.15-1.29h12a37.18 37.18 0 014 .2 23.62 23.62 0 013.44.62 15.23 15.23 0 014.66 2 13.05 13.05 0 013.5 3.41 15.47 15.47 0 012.21 4.79 23.44 23.44 0 01.73 6.16zm-11.61.37a9.77 9.77 0 00-1-4.6 5.41 5.41 0 00-3.07-2.7 7.42 7.42 0 00-2-.52 20.77 20.77 0 00-2.49-.13h-5l-3.7 24.24h5.16a10.15 10.15 0 007.26-2.7 12.06 12.06 0 002.24-2.88 18.84 18.84 0 001.5-3.48 22.61 22.61 0 00.84-3.64 25.15 25.15 0 00.27-3.58zM322 208a33.94 33.94 0 01-.78 7.24 26.18 26.18 0 01-2.46 6.79 22.74 22.74 0 01-4.36 5.76 19.91 19.91 0 01-6.56 4.09 8.47 8.47 0 013.58 4.32 36.51 36.51 0 012.38 8.81l2.36 15c.12.83.21 1.59.29 2.25a15.79 15.79 0 01.11 1.68 1.59 1.59 0 01-.29 1 2 2 0 01-1 .66 9.6 9.6 0 01-2.05.37c-.88.07-2 .12-3.31.12a25 25 0 01-3-.15 5.92 5.92 0 01-1.76-.45 1.62 1.62 0 01-.82-.83 5 5 0 01-.29-1.2L301.77 247a35.84 35.84 0 00-1-5 13.43 13.43 0 00-1.54-3.62 6.09 6.09 0 00-2.29-2.16 6.78 6.78 0 00-3.22-.72h-3.65l-4.4 28.16a2.13 2.13 0 01-.44 1 2.49 2.49 0 01-1.09.75 8.64 8.64 0 01-1.89.43 24.5 24.5 0 01-2.85.14 23.36 23.36 0 01-2.77-.14 6.78 6.78 0 01-1.72-.43 1.69 1.69 0 01-.84-.72 1.58 1.58 0 01-.09-1l10.49-67.07a5.85 5.85 0 011.58-3.63 4.07 4.07 0 012.83-1.11h15.42a25.81 25.81 0 017.31 1 14.91 14.91 0 015.58 3 13 13 0 013.56 5A18.64 18.64 0 01322 208zm-13.23 2.9a9.48 9.48 0 00-.4-2.75 5.58 5.58 0 00-1.25-2.19 5.93 5.93 0 00-2.25-1.43 9.79 9.79 0 00-3.31-.51h-6.15l-3 19.41h5.15a11.2 11.2 0 005.24-1.14 10.06 10.06 0 003.45-2.93 12.18 12.18 0 001.92-4 16.93 16.93 0 00.57-4.48zM336 262.73a2.07 2.07 0 01-.44 1 2.36 2.36 0 01-1.06.72 7.68 7.68 0 01-1.84.42 27.37 27.37 0 01-5.53 0 6.11 6.11 0 01-1.67-.42 1.56 1.56 0 01-.84-.74 1.5 1.5 0 01-.09-1l10.62-68.1a1.83 1.83 0 01.42-1 2.48 2.48 0 011.08-.72 8.15 8.15 0 011.82-.42 23.19 23.19 0 012.76-.14 22.36 22.36 0 012.71.14 6.25 6.25 0 011.69.42 1.56 1.56 0 01.82.72 1.81 1.81 0 01.11 1zm60.2-68.47a10 10 0 01-.07 1.27c-.06.58-.11 1.23-.21 1.94s-.24 1.46-.4 2.23a15.8 15.8 0 01-.57 2.12 5.79 5.79 0 01-.79 1.57 1.25 1.25 0 01-1 .62h-14.28l-9.13 58.8a2.57 2.57 0 01-.48 1 2.42 2.42 0 01-1.08.73 8.38 8.38 0 01-1.84.45 19.25 19.25 0 01-2.84.17 18.4 18.4 0 01-2.77-.17 6.05 6.05 0 01-1.68-.45 1.54 1.54 0 01-.8-.73 1.9 1.9 0 01-.11-1l9.14-58.8h-14.15a.88.88 0 01-.89-.62 4.59 4.59 0 01-.25-1.69 10.31 10.31 0 01.07-1.32c.06-.59.11-1.24.22-2s.23-1.49.39-2.26a14.86 14.86 0 01.6-2.1 6.23 6.23 0 01.79-1.54 1.25 1.25 0 011-.59h40.07a.88.88 0 01.81.62 4.21 4.21 0 01.25 1.75zm36.22 64.35a25.81 25.81 0 01.19 3.17 2.43 2.43 0 01-.6 1.75 3.13 3.13 0 01-1.93.72 35.63 35.63 0 01-3.69.14 25.67 25.67 0 01-2.68-.08 5.89 5.89 0 01-1.61-.31 1.34 1.34 0 01-.78-.66 3.47 3.47 0 01-.26-1.23l-1.54-14.46h-21l-5.81 14.13a6.08 6.08 0 01-.69 1.31 2.49 2.49 0 01-1.13.81 7.8 7.8 0 01-2 .38c-.82.08-1.85.11-3.07.11a23 23 0 01-3.1-.16 1.94 1.94 0 01-1.48-.81 2.51 2.51 0 01-.08-1.81 23 23 0 011.1-3.11l27.24-63.87a8.22 8.22 0 01.86-1.53 2.79 2.79 0 011.24-.9 7.61 7.61 0 012.17-.38c.9-.06 2.1-.09 3.58-.09 1.71 0 3.06 0 4.06.09a8 8 0 012.32.38 1.82 1.82 0 011.08.92 5.66 5.66 0 01.35 1.67zm-16.9-52.17L402.58 238h16.24zM479 198.2a9.69 9.69 0 01-.07 1.28c-.07.55-.11 1.16-.19 1.83s-.2 1.34-.33 2.05a15.39 15.39 0 01-.48 1.89 6.57 6.57 0 01-.62 1.41c-.24.38-.48.56-.74.56a2.78 2.78 0 01-1.54-.69 24.13 24.13 0 00-2.23-1.5 19.73 19.73 0 00-3.1-1.51 11.06 11.06 0 00-4-.69 8.64 8.64 0 00-4 .83 7.68 7.68 0 00-2.67 2.2 9.31 9.31 0 00-1.53 3.07 11.73 11.73 0 00-.51 3.43 7.59 7.59 0 00.78 3.53 11.17 11.17 0 002.08 2.84 25.75 25.75 0 003 2.53c1.11.81 2.24 1.66 3.38 2.56s2.27 1.86 3.39 2.91a18.54 18.54 0 015 8.46 22 22 0 01.78 6.21 27.83 27.83 0 01-1.64 9.73 23.32 23.32 0 01-4.67 7.78 21.19 21.19 0 01-7.27 5.15 23 23 0 01-9.47 1.89 21.79 21.79 0 01-5.21-.58 24.07 24.07 0 01-4.22-1.42 17.51 17.51 0 01-3.1-1.75 8.64 8.64 0 01-1.87-1.75 4.23 4.23 0 01-.6-2.5c0-.3 0-.75.08-1.34s.14-1.23.24-1.92.22-1.39.37-2.12a17.28 17.28 0 01.51-2 6.61 6.61 0 01.68-1.45 1 1 0 01.8-.55 2.92 2.92 0 011.75.86 29.1 29.1 0 002.56 1.89 21.35 21.35 0 003.59 1.92 12.68 12.68 0 005 .89 11.36 11.36 0 004.49-.83 9.3 9.3 0 003.23-2.29 10 10 0 002-3.36 12.48 12.48 0 00.67-4.2 8.09 8.09 0 00-.78-3.62 11.34 11.34 0 00-2.05-2.86 21.54 21.54 0 00-2.91-2.48c-1.08-.78-2.18-1.61-3.31-2.5s-2.24-1.86-3.32-2.89a18.19 18.19 0 01-2.9-3.65 19.26 19.26 0 01-2.05-4.81 22.63 22.63 0 01-.78-6.34 26.56 26.56 0 011.53-9.22 22 22 0 014.36-7.28 19.32 19.32 0 016.66-4.72 20.7 20.7 0 018.5-1.7 18.75 18.75 0 014.09.42 21.74 21.74 0 013.56 1 13.88 13.88 0 012.73 1.42 8.7 8.7 0 011.54 1.3 4 4 0 01.63 1.12 5.29 5.29 0 01.18 1.56zM296.61 95H223.9h72.71zm-.37 2a44.82 44.82 0 011.76-6.89 3.4 3.4 0 00.12-.34h-75.07v10.55h72.67c.13-1.13.33-2.24.52-3.32z" transform="translate(34.94 -1.91)"/><path d="M259.07 156.71a12.51 12.51 0 1012.52-12.49 12.52 12.52 0 00-12.52 12.49zm-38.5-.01a12.51 12.51 0 1012.52-12.5 12.54 12.54 0 00-12.52 12.5zm71.12-39.06H232.3l-12.6-47.9 83.7.06a6.07 6.07 0 01-.06-.85v-1.52a5.74 5.74 0 01.31-1.93 36.47 36.47 0 011.26-4.83l-96-.07 16 60.74c1 3.74 3.87 6.25 7.19 6.25h57.28c.69-3.32 1.48-6.65 2.31-9.95z" transform="translate(34.94 -1.91)" fill="#03517e"/><path class="cls-9" d="M288.47 133h-66.16l-23.55-91a.56.56 0 000-.12l-.08-.27a1.67 1.67 0 00-.08-.2l-.08-.2a1.63 1.63 0 00-.11-.23l-.08-.16c0-.08-.09-.15-.13-.22l-.09-.15-.15-.2-.11-.14a.8.8 0 00-.15-.17l-.14-.15-.14-.13-.16-.15-.14-.11-.19-.13-.15-.09-.19-.1-.19-.09-.2.01-.2-.1h-.1l-23.38-6.25c-2.12-.57-4.22 1-4.7 3.56s.86 5 3 5.63l21.15 5.63L215.65 139a4.08 4.08 0 003.76 3.3h.31c.11 0 .17 0 .26-.24h67.58c.15-3.01.44-6.06.91-9.06z" transform="translate(34.94 -1.91)"/></g></g></g></g></svg>