<svg xmlns="http://www.w3.org/2000/svg" viewBox="0 0 119.82 83.9"><defs><clipPath id="clip-path" transform="translate(5.46 -.3)"><rect class="cls-1" width="80" height="80" rx="19.89"/></clipPath><style>.cls-1{fill:none}.cls-3{fill:#fff}.cls-5{isolation:isolate;font-size:8.12px;fill:#215565;font-family:Montserrat-SemiBoldItalic,Montserrat;font-weight:600;font-style:italic;letter-spacing:.58em}.cls-8{fill:#f1c413}</style></defs><g id="Capa_2" data-name="Capa 2"><g id="Capa_1-2" data-name="Capa 1"><g id="OBJECTS"><g clip-path="url(#clip-path)"><rect class="cls-3" x="5.48" width="80" height="80" rx="19.89"/><g style="isolation:isolate"><text class="cls-5" transform="matrix(.78 0 0 1 19.1 49.41)">E</text><text transform="matrix(.78 0 0 1 27.02 49.41)" style="isolation:isolate" letter-spacing=".57em" font-size="8.12" fill="#215565" font-family="Montserrat-SemiBoldItalic,Montserrat" font-weight="600" font-style="italic">X</text><text class="cls-5" transform="matrix(.78 0 0 1 34.98 49.41)">P</text><text transform="matrix(.78 0 0 1 43.24 49.41)" style="isolation:isolate" letter-spacing=".59em" font-size="8.12" fill="#215565" font-family="Montserrat-SemiBoldItalic,Montserrat" font-weight="600" font-style="italic">RESS</text></g><path class="cls-8" d="M-5.46 84h119.04c.44 0 .66-.12.61-.58a5.23 5.23 0 010-.56V27.38c.28.12.13.37.13.55v55.68c0 .48-.1.57-.57.57H-4.89c-.19-.02-.44.13-.57-.18z" transform="translate(5.46 -.3)"/><path d="M110 39.07v5.33a5.6 5.6 0 01-.3.81c-.64 1-1.24 2.07-1.92 3.06-.4.49-.74 1-1.13 1.54a38.75 38.75 0 01-3.77 4.32 43.59 43.59 0 01-6.46 5.44c-2.11 1.51-4.4 2.74-6.62 4.07a2.69 2.69 0 01-.88.4c-1.43.56-2.78 1.28-4.2 1.85a89.48 89.48 0 01-19.62 5.18c-3.71.58-7.44 1-11.2 1.23-4.59.32-9.21.32-13.82.29-3 0-6-.22-9-.39-6.63-.39-13.2-1.16-19.76-2.12-3.81-.56-7.59-1.25-11.37-2-.42-.08-.9-.08-1.16-.51V48.3c.05-.49.36-.23.54-.14.79.39 1.6.77 2.36 1.18C7 52.18 12.48 54.69 18 57c4.64 2 9.34 3.74 14.14 5.26A116.54 116.54 0 0054 67.15a77.14 77.14 0 007.76.47 64.4 64.4 0 0012.93-1 47.84 47.84 0 0019.62-8.28 48.17 48.17 0 0015-18.29c.13-.36.15-.85.69-.98z" transform="translate(5.46 -.3)" fill="#003d89"/><path class="cls-8" d="M110 39.07a55.83 55.83 0 01-5.51 9.38 45.76 45.76 0 01-14.19 12.7 49.56 49.56 0 01-17.43 6 67.66 67.66 0 01-9 .71 86.07 86.07 0 01-19.4-2 148.47 148.47 0 01-27.22-8.85c-6.06-2.56-12-5.44-17.8-8.49l-.6-.32a17 17 0 01-.06-2.67c0-.11.09-.15.19-.13 2.5 1.33 5.08 2.6 7.65 3.85a190.72 190.72 0 0024.64 10.14 118.8 118.8 0 0022 5h1A79 79 0 0065 64.9c2.34-.11 4.66-.25 7-.58a64.63 64.63 0 006.9-1.48 32.71 32.71 0 004.76-1.56 4 4 0 00.75-.29 4.17 4.17 0 011-.43 25.73 25.73 0 004.1-2.05 1.94 1.94 0 00.7-.28l.5-.3a45.17 45.17 0 009.28-7.25 48.59 48.59 0 008.07-11 33 33 0 001.5-3c.09-.21.16-.46.46-.46z" transform="translate(5.46 -.3)"/><path class="cls-8" d="M74.93 63.63c.27-.34.68-.23 1-.32A42.34 42.34 0 0083.22 61c.78-.36 1.6-.61 2.4-1a25.27 25.27 0 005.3-3.54 27.78 27.78 0 002.44-2.15c1.1-1.12 2.29-2.14 3.35-3.31a64.11 64.11 0 004.29-5c.76-1 1.5-2.08 2.24-3.13a40.35 40.35 0 002.39-3.93c.09-.16.16-.34.35-.42a.48.48 0 01.16.39c-.21 1-1 1.8-1.43 2.74a1.58 1.58 0 01-.15.24 8.79 8.79 0 00-1.11 1.58 63.84 63.84 0 01-6.5 8.17 73.57 73.57 0 01-7.62 6.83 19.31 19.31 0 01-3.38 2 13.48 13.48 0 00-2.1.83 35.14 35.14 0 01-4.89 1.65c-1.09.32-2.19.54-3.28.8-.27-.02-.53.09-.75-.12zM34.19 80.14c-5.56.45-11.13.28-16.69.25-3 0-6-.21-9-.41-1.95-.12-3.9-.34-5.85-.41q-1.54-.07-3.09-.3c-.24 0-.64 0-.73-.38l.1-.09a5.31 5.31 0 011.78.06l5 .39c2.71.23 5.44.32 8.16.45l2.56.1c3.44.18 6.89.18 10.33.12 2.66 0 5.32-.13 8-.29a21.69 21.69 0 002.41-.17 1 1 0 01.25-.06 46.66 46.66 0 005-.34 1.05 1.05 0 01.24-.06 32 32 0 003.91-.41 1.38 1.38 0 01.94.09.15.15 0 01.06.21 8.76 8.76 0 01-2.09.28c-.73.19-1.49.15-2.24.28a5.08 5.08 0 01-1.23.12c-2.54.19-5.08.45-7.62.5a.44.44 0 00-.2.07zm40.6-7.64a25.35 25.35 0 01-3.15 1.17c-2.08.79-4.23 1.36-6.36 2-2.34.68-4.73 1.18-7.13 1.65a15.37 15.37 0 01-3.24.48.85.85 0 01-.7 0c.12-.54.61-.41.93-.48 1.54-.29 3.08-.57 4.6-.94 1.17-.22 2.33-.53 3.49-.83a69.46 69.46 0 007.57-2.18 8.69 8.69 0 002.77-1 .75.75 0 01.38-.15c.62 0 1.11-.36 1.68-.49.27 0 .54-.25.84-.08.07.47-.39.28-.56.44l-.42.13c-.19.2-.49.18-.7.28z" transform="translate(5.46 -.3)"/><path class="cls-8" d="M75.91 72.09c.14-.2.48-.13.55-.42s.31-.43.55-.52a87.18 87.18 0 008-3.72c.14-.07.25-.2.39-.28 1.64-.86 3.2-1.87 4.8-2.82.39 0 .66-.56 1.13-.3l.69-.14-2.27 1.39c-1.2.73-2.38 1.54-3.63 2.18s-2.37 1.25-3.57 1.83l-2.1 1-4.16 1.81a1.44 1.44 0 01-.38-.01zm-.98-8.46A19.35 19.35 0 0078.3 63l.7-.2c.08.05.08.11 0 .16a40.38 40.38 0 01-6.22 1.36A64.53 64.53 0 0160 65a39.72 39.72 0 01-5.86-.5c2 .13 4 .3 6.08.37a30.32 30.32 0 004.57-.07c1-.12 2-.1 3-.15 1.45-.07 2.88-.36 4.31-.49a26.42 26.42 0 012.83-.53zM-1 45.29c-.34.47-.12 1-.16 1.5a11.25 11.25 0 000 1.3v19.55a1.2 1.2 0 01.24.91v8.29a1.94 1.94 0 010 .24v1.45a.53.53 0 01-.17.36c-.23-.23-.13-.53-.13-.79V45.88c-.05-.17-.37-.63.22-.59zm55.21 32.49h.7a6 6 0 01-2.11.52c-1.11.25-2.26.32-3.39.47a3.74 3.74 0 01-1.88.12v-.14c.4-.52 1-.37 1.54-.44 1.41-.19 2.81-.45 4.22-.64.33-.05.64-.15.92.11zm-20.02 2.36a3.8 3.8 0 011.6-.26c1.8 0 3.58-.17 5.37-.32.69 0 1.37-.1 2.07-.11a1.91 1.91 0 01-1.12.25c-2.66 0-5.27.57-7.92.44zm11.26-.97a8.14 8.14 0 012.08-.28c-.68.19-1.33.59-2.08.28z" transform="translate(5.46 -.3)"/><path class="cls-8" d="M43.22 79.45a7.1 7.1 0 012.24-.28 4.76 4.76 0 01-2.24.28zm31.57-6.95a1.52 1.52 0 01.7-.28c-.14.32-.43.28-.7.28z" transform="translate(5.46 -.3)"/><path class="cls-3" d="M-1.16 77.1v-9.46c3.14.64 6.29 1.23 9.45 1.73q3.54.55 7.11 1c2.14.29 4.29.57 6.44.8 1.74.19 3.48.32 5.23.45 2.46.19 4.92.38 7.36.53 1.28.08 2.54.11 3.81.14 3.24.07 6.49.09 9.73 0q4.29-.12 8.56-.5c2.95-.27 5.87-.58 8.79-1a96.49 96.49 0 0010.75-2.29 78.63 78.63 0 009.56-3.27c.92-.38 1.81-.84 2.71-1.25.2-.09.37-.32.64-.15 0 .32-.29.42-.51.55a5.22 5.22 0 00-1 .58 2 2 0 01-.48.32 15.77 15.77 0 00-1.52.8c-.6.29-1.21.58-1.78.92a6.54 6.54 0 00-.59.3 5.59 5.59 0 00-.6.3c-.72.27-1.38.68-2.08 1-1.79.74-3.56 1.54-5.38 2.21a12.43 12.43 0 00-1.58.58q-3.8 1.3-7.68 2.38c-3.79 1-7.63 1.78-11.47 2.51-1.8.22-3.57.56-5.35.78s-3.76.45-5.65.64-4.05.3-6.08.51c-.8.09-1.62.11-2.42.13-1.61 0-3.23.24-4.85.18-2.27-.09-4.53.25-6.8.12s-4.72-.05-7.08-.14c-1.92-.08-3.84-.15-5.76-.27-2.07-.13-4.14-.25-6.21-.42l-4.61-.4a1.09 1.09 0 01-.66-.31z" transform="translate(5.46 -.3)"/><path class="cls-8" d="M87 65.14l.41-.28a3.38 3.38 0 001-.58l.58-.42c2.24-1.37 4.6-2.56 6.75-4.09.19-.13.4-.23.6-.35.08.57-.53.61-.73 1a7.23 7.23 0 01-1.28.87 1.17 1.17 0 00-.72.51 7.33 7.33 0 01-1.1.7 4.33 4.33 0 00-.62.36l-.15.09a3.76 3.76 0 00-.61.36l-.17.09a6.58 6.58 0 00-1.15.66c-.79.42-1.51 1-2.33 1.38a.67.67 0 01-.57.07c-.11-.21.03-.28.09-.37zm-1.08-4.86c1.2-.49 2.18-1.37 3.34-1.94a.33.33 0 01.39-.05c.14.18 0 .24-.13.32a15.3 15.3 0 01-4.16 2.08c.03-.36.4-.24.56-.41zM79 63v-.17c1.65-.48 3.27-1.05 4.87-1.66v.08a.39.39 0 01-.17.19A24.73 24.73 0 0179 63z" transform="translate(5.46 -.3)"/><path class="cls-8" d="M85.92 60.28l-.55.41-1 .44a.66.66 0 01-.58 0 7.47 7.47 0 012.13-.85zm3.6-1.67l.16-.27a.27.27 0 01.15-.21.39.39 0 01.26 0 .26.26 0 01.15.22.84.84 0 01-.72.26z" transform="translate(5.46 -.3)"/><path class="cls-8" d="M83.83 61.12h.58a1.28 1.28 0 01-.71.26c.04-.08.09-.17.13-.26zm10.02-6.25c-.64.17-1 .77-1.42 1.15a16.5 16.5 0 00-2.61 2.18l-.14.14h-.42A34.85 34.85 0 0192 56c1.51-1.38 3.07-2.7 4.48-4.21s2.74-3 4-4.57a50.67 50.67 0 003.28-4.7 1.9 1.9 0 01.64-.71 15.22 15.22 0 01-1.4 2.35 3.42 3.42 0 00-.62 1.12.08.08 0 010 .09c-.77.77-1.32 1.71-2 2.53s-1.39 1.72-2.15 2.53a38 38 0 01-4.23 4.2 1 1 0 00-.15.24zm-95 24.02v-.42a2.15 2.15 0 011.23 0c1.51.16 3 .27 4.54.39 2.24.17 4.46.34 6.69.42a1.16 1.16 0 01.47.14 1 1 0 00.53.12c1.69-.09 3.37.21 5 .14s3.23.14 4.85.16c3 0 6-.15 9-.19 1.72 0 3.45-.14 5.18-.24a1 1 0 01.84.19.84.84 0 01-.32.14c-1.1 0-2.21.08-3.31.15-4.69.27-9.38.32-14.08.26-2.61 0-5.22-.12-7.82-.29-1.6-.11-3.22-.11-4.83-.26L.69 79z" transform="translate(5.46 -.3)"/><path class="cls-8" d="M37.24 79.58c-3.2 0-6.42.24-9.63.32-2.43.07-4.85.13-7.28 0-1.52 0-3 0-4.57-.11-1.25-.12-2.49-.11-3.74-.12a.43.43 0 01-.37-.15.63.63 0 01.5-.18 23.34 23.34 0 013.74.1 5 5 0 00.77 0c4.48 0 9 .07 13.47 0 2.3 0 4.61-.11 6.91-.33 1.47-.15 2.94-.24 4.42-.34 1.1-.08 2.2-.19 3.3-.35a2.24 2.24 0 011.28.07c.23.42-.16.26-.29.28-1.07.14-2.15.27-3.24.35-1.44.09-2.88.31-4.33.35a1.71 1.71 0 00-.81.07h-.13z" transform="translate(5.46 -.3)"/><path class="cls-8" d="M42.52 79.17a11.88 11.88 0 011.95-.27 10.42 10.42 0 001.67-.29l.08-.09c1.2-.2 2.4-.32 3.6-.5 1-.17 2-.28 3-.5.32-.1.64 0 1-.16s.53 0 .8-.08h.18a2.8 2.8 0 00.64-.13h.19a3.11 3.11 0 00.68-.11c.41 0 .76-.32 1.18-.32a3.77 3.77 0 001.33-.2l.21-.05c.26 0 .52-.07.72.15a35 35 0 01-4.52 1 2.52 2.52 0 00-1 .28c-1.45.1-2.86.41-4.3.61l-2.38.36a23.41 23.41 0 00-3.22.32c-.61-.04-1.21-.06-1.81-.02z" transform="translate(5.46 -.3)"/><path class="cls-8" d="M37.39 79.58a6.7 6.7 0 012.14-.23 12.58 12.58 0 013-.18 4.59 4.59 0 01-1.73.24 18.52 18.52 0 01-3.41.17zM74 72.36a.34.34 0 00-.28.14 21.27 21.27 0 01-2.8.91c-2.16.76-4.37 1.36-6.58 2a.68.68 0 01-.59-.05c0-.57.64-.36.9-.6 2.48-.74 5-1.43 7.43-2.27 1.43-.48 2.8-1.09 4.25-1.5a.59.59 0 01.42.13c.11.36-.22.35-.39.42a22.19 22.19 0 01-2.36.82z" transform="translate(5.46 -.3)"/><path class="cls-8" d="M74 72.36a20.12 20.12 0 012.24-1c.17-.1.39-.12.52-.3l.06-.07a2.86 2.86 0 00.75-.35 3 3 0 011-.38 4.58 4.58 0 00.94-.4l.34-.15a2.23 2.23 0 00.57-.3c.85-.41 1.68-.89 2.56-1.25a1.2 1.2 0 00.59-.28 6.74 6.74 0 011.71-.82.36.36 0 01.28.12 6.52 6.52 0 01-2.12 1.22 62.59 62.59 0 01-5.76 2.68c-.4.16-.87.18-1.17.54-.6.21-1.21.39-1.79.64a1.06 1.06 0 01-.72.1zm-10.33 2.92a14.22 14.22 0 003.14-.75c1.37-.37 2.73-.79 4.09-1.2 0 0 .06.07 0 .1a4.07 4.07 0 01-1.52.6c-1.9.56-3.81 1.07-5.72 1.6a2.73 2.73 0 01-.41 0 1.26 1.26 0 01-.58.08.26.26 0 01-.15-.12.19.19 0 01.06-.17 3.82 3.82 0 011-.23z" transform="translate(5.46 -.3)"/><path class="cls-8" d="M62.55 75.7h.7a16.46 16.46 0 01-3.46.83H59c0-.18.1-.25.23-.28 1-.25 2.1-.42 3.14-.64a.28.28 0 01.18.09zm8.35-2.22v-.15a19.3 19.3 0 012.78-.83 6.32 6.32 0 01-2.78.98zm14.6-6.25h-.28c-.07-.32.17-.41.36-.52q2.11-1.17 4.16-2.46c.19-.13.4-.26.64-.08l-.13.28a29.66 29.66 0 01-4.75 2.78z" transform="translate(5.46 -.3)"/><path class="cls-8" d="M-1.15 78.06v-.28c.49-.19 1 .06 1.44.1 2.07.16 4.14.32 6.2.5.85.08 1.71.13 2.56.14 1.44 0 2.88.13 4.3.2 4.55.22 9.1.32 13.65.23 2.66 0 5.32-.11 8-.28 2-.13 4-.23 5.94-.41 1.37-.14 2.75-.3 4.12-.42a.86.86 0 00.23-.06c.39-.09.79 0 1.18-.1l.2-.05a4.63 4.63 0 00.9-.12 1.75 1.75 0 01.4-.05 2.46 2.46 0 00.81-.08h.21c.82-.06 1.62-.24 2.43-.32 2.43-.44 4.86-.84 7.27-1.35 1.84-.4 3.7-.76 5.5-1.33a102.69 102.69 0 0010.18-3.2c.53-.07 1-.57 1.57-.32a.2.2 0 010 .21 50.34 50.34 0 01-6 2.24C68 73.9 66 74.34 64.05 75a81.82 81.82 0 01-10.61 2.29c-.75.13-1.5.27-2.24.42-1.66.15-3.29.46-5 .62s-3.34.38-5 .51c-1.49.12-3 .21-4.48.37-.85.09-1.7.11-2.56.15-6 .28-12.08.18-18.12.14-2 0-4.11-.12-6.17-.27-2.24-.16-4.51-.29-6.76-.47-1.11-.13-2.35-.18-3.53-.34a1.09 1.09 0 01-.73-.36z" transform="translate(5.46 -.3)"/><path class="cls-8" d="M-1.16 77.1c1.94.18 3.87.39 5.81.54 5.63.41 11.27.68 16.92.75q8.13.09 16.24-.43c4.57-.29 9.12-.79 13.66-1.44l3-.44c0 .32-.21.32-.4.35l-1 .21h-.21c-.84.11-1.69.21-2.53.34h-.2a8.49 8.49 0 00-1 .11h-.2c-.59 0-1.16.16-1.75.24h-.2a19.53 19.53 0 00-2.16.23.78.78 0 01-.21 0 5.36 5.36 0 00-1.06.1h-.22a26.78 26.78 0 00-2.83.24h-.24c-1.85 0-3.68.28-5.53.3a2.46 2.46 0 00-.47.1c-5.07.7-10.16.7-15.26.62-3.6-.07-7.21-.19-10.8-.44-2.77-.2-5.53-.4-8.29-.64a1.16 1.16 0 01-1.08-.61.15.15 0 01.01-.13z" transform="translate(5.46 -.3)"/><path class="cls-8" d="M-1.16 77.23c.56.58 1.35.41 2 .51 1.2.18 2.42.23 3.64.32l9 .55h.21q7.68.27 15.32.1a37.83 37.83 0 005.32-.24c1.17-.08 2.35-.12 3.52-.2l2.6-.21c1-.12 2-.17 3.06-.28.36-.19.76 0 1.11-.14h.14c.78-.11 1.58-.16 2.36-.27.64-.11 1.31-.15 2-.28.35-.19.76 0 1.11-.14a2.14 2.14 0 01.94 0 .19.19 0 010 .21c-.78.22-1.6.23-2.38.39-.25.14-.51 0-.77.07a1.44 1.44 0 00-.74.11c-.23.09-.49-.05-.71.1-.41.18-.85 0-1.25.14-1.7.16-3.39.34-5.09.49s-3.54.21-5.31.37c-1 .09-2 .14-3 .15-3.7 0-7.4.3-11.1.16-3-.11-5.92-.11-8.88-.28-1.73-.1-3.46-.16-5.19-.29-2.23-.21-4.49-.4-6.75-.57-.41 0-.91 0-1.17-.47z" transform="translate(5.46 -.3)"/><path class="cls-8" d="M46.14 78.61c-2 0-3.89.37-5.83.53-.64.06-1.28.11-1.92.14-2.24.11-4.48.25-6.7.34-5.09.2-10.18.08-15.26.07-1.6 0-3.18-.08-4.78-.11a1 1 0 00-.32-.13c-1.81-.1-3.63-.13-5.44-.3-2.35-.21-4.72-.26-7-.68v-.14c.55-.16 1.06.13 1.6.08a3.06 3.06 0 00.8.07 5 5 0 001 .07c.25.09.52 0 .78.11a5.27 5.27 0 00.9 0 2.64 2.64 0 00.79.06 7.41 7.41 0 001.15.08 3.61 3.61 0 00.93.06A9.2 9.2 0 008 79a3.88 3.88 0 001 0c1.42.11 2.85.19 4.28.21a5.74 5.74 0 001.24.07c.76.06 1.52.09 2.29.08a19.77 19.77 0 002.18.06h9a20 20 0 002.19-.06 19.3 19.3 0 002-.08 5.74 5.74 0 001.24-.07c2.65-.06 5.29-.32 7.93-.51 1.2-.09 2.38-.25 3.58-.36a8 8 0 00.84-.1c1.82-.2 3.63-.49 5.44-.7.32 0 .6-.24.93-.09a.33.33 0 010 .24 13.27 13.27 0 01-2.35.4 90.3 90.3 0 01-3.68.49z" transform="translate(5.46 -.3)"/><path class="cls-8" d="M-1.15 77.5a2.15 2.15 0 001.3.4c2 .17 4 .28 5.92.44 2.69.22 5.38.3 8.07.45 1.53.08 3.05 0 4.57.1 1.73 0 3.46.18 5.2.15 2.61-.05 5.22-.15 7.83-.18 2.42 0 4.83-.21 7.24-.4 2.11-.17 4.21-.47 6.33-.54a18.6 18.6 0 01-3.05.4c-2.36.22-4.72.39-7.09.56-1 .06-1.92.08-2.9.12-4.32.2-8.64.26-13 .14-2.6-.07-5.21-.12-7.82-.26-2.25-.12-4.49-.21-6.73-.43-1.83-.18-3.68-.2-5.49-.54a2.23 2.23 0 01-.39-.13zm1.67.97a5.53 5.53 0 01-1.67-.14v-.27a23.84 23.84 0 003.46.41c.24 0 .51-.08.72.14l-.09.06c-.2 0-.42.07-.61-.06h-1.1c-.23-.17-.5.03-.71-.14zM53 76.53c.45-.32 1.08-.1 1.53-.45l7.23-1.5c1.39-.3 2.78-.64 4.16-1a.2.2 0 010 .21 11.64 11.64 0 01-2.24.7 9.24 9.24 0 01-1.17.34 2.17 2.17 0 00-.94.16c-.36 0-.64.3-1 .28a3.1 3.1 0 00-.68.1h-.19a7.8 7.8 0 00-1.16.27 1.67 1.67 0 01-.82.15 4.19 4.19 0 00-1.25.32c-.92.2-1.84.33-2.76.5a.72.72 0 01-.71-.08z" transform="translate(5.46 -.3)"/><path class="cls-8" d="M65.89 73.75v-.16l7.66-2.37a.18.18 0 010 .2 68.59 68.59 0 01-7.27 2.38.33.33 0 01-.39-.05zm9.17-3.08l5.44-2.24a.24.24 0 010 .18.93.93 0 01-.38.3 10.58 10.58 0 00-1.44.69l-.16.09a2.3 2.3 0 00-.64.28 1.37 1.37 0 01-.32.16 1.52 1.52 0 00-.59.19.51.51 0 01-.17.07 2.07 2.07 0 00-.58.23.51.51 0 01-.17.07c-.37-.07-.67.23-1 .15a.15.15 0 01.01-.17zM87 65.14l-.13.28-.05.08a3.86 3.86 0 00-.58.49c-.27.2-.52.45-.9.3-.11-.17.06-.24.13-.32a5.29 5.29 0 011.53-.83z" transform="translate(5.46 -.3)"/><path class="cls-8" d="M80.5 68.61v-.18a13.28 13.28 0 012.06-1l.07.08a3.33 3.33 0 01-2.13 1.1zm5-2.61l-.14.29a.41.41 0 01-.25.28c-.45.12-.82.5-1.31.5a.19.19 0 01-.14-.12A10 10 0 0185.5 66zm-10.44 4.67v.17a1.32 1.32 0 01-.7.34 1.52 1.52 0 01-.83.22v-.17a6.38 6.38 0 011.53-.56zm13.36-6.4a1.13 1.13 0 01-1 .58 3 3 0 011-.58z" transform="translate(5.46 -.3)"/><path class="cls-8" d="M82.55 67.47a1 1 0 01.56-.28l.06.09c-.11.28-.3.39-.58.23z" transform="translate(5.46 -.3)"/><path class="cls-8" d="M83.11 67.19a1 1 0 01.55-.28c-.06.36-.26.42-.56.28zm4.34-1.91a14.33 14.33 0 012.36-1.39.24.24 0 01.29 0v.06a7.15 7.15 0 01-2.75 1.67c-.13-.17-.02-.25.1-.34z" transform="translate(5.46 -.3)"/><path class="cls-8" d="M87.45 65.28l-.14.27v.08a.49.49 0 01-.4.14.19.19 0 01-.14-.09c0-.15.09-.2.17-.27zM52.11 77.64v-.14a32.23 32.23 0 013.5-.67c2-.42 4.11-.77 6.14-1.28.26-.07.53-.22.79 0v.14l-3.62.83c-.45.14-.93.16-1.39.28-.45 0-.79.37-1.25.28-.21.16-.49 0-.7.13h-.14c-.2.17-.48 0-.69.14-.26.18-.58 0-.84.14a1.79 1.79 0 01-1 .14 1.11 1.11 0 01-.8.01z" transform="translate(5.46 -.3)"/><path class="cls-8" d="M52.11 77.64h.83a9.51 9.51 0 01-2.53.48 25.62 25.62 0 01-4.28.49 14.75 14.75 0 012.48-.41 33.16 33.16 0 003.5-.56zm5.44-.83a3 3 0 011.39-.28 2.49 2.49 0 01-1.39.28zm-3.62.69c.25-.25.56-.1.83-.14-.24.25-.55.1-.83.14zm.83-.14c.2-.22.47-.11.7-.14-.2.23-.46.11-.7.14zm.84-.14c.2-.22.46-.11.69-.14-.19.23-.46.11-.69.14zm34.49-13.33a2.88 2.88 0 001-.55h.4c.15-.06.17 0 .14.14l-1.25.7a25.24 25.24 0 00-3.1 1.8 8.8 8.8 0 00-2.05 1.25l-1.67.83c-.15.15-.38.17-.55.28-.89.4-1.72.94-2.64 1.25-.16.15-.38.17-.56.28a.31.31 0 01-.28.14l-1 .41-1 .42a5.78 5.78 0 01-.83.28h-.42c0-.35.28-.37.49-.46.53-.24 1.08-.43 1.6-.71a.71.71 0 01.18-.08A15.87 15.87 0 0081 68.78a2 2 0 01.36-.17 8 8 0 002.15-1.06 3.44 3.44 0 011-.56 2.08 2.08 0 00.75-.36l.16-.1a6.23 6.23 0 001.05-.53l.16-.09a1.41 1.41 0 00.68-.31 12 12 0 002.78-1.71z" transform="translate(5.46 -.3)"/><path class="cls-8" d="M78.55 70c-.64.57-1.55.6-2.24 1.11-1.51.55-3 1.12-4.54 1.63-2.35.8-4.73 1.5-7.14 2.12a.52.52 0 01-.56 0c1.71-.5 3.43-1 5.12-1.53a63.28 63.28 0 006.24-2.2c.14-.06.3-.1.45-.15a8 8 0 012.34-1.08.28.28 0 01.33.1z" transform="translate(5.46 -.3)"/><path class="cls-8" d="M64.08 74.86h.56c-.26.29-.7.17-1 .42-.36.14-.75.17-1.11.28a33.59 33.59 0 00-3.72.76c-2 .35-4 .78-6 1.16a3.86 3.86 0 01-.76 0l-.84.14s-.06-.06 0-.09c1.24-.32 2.52-.46 3.79-.69q4.61-.84 9.08-1.98zm14.47-4.44a1.41 1.41 0 011-.42 1.39 1.39 0 01-1 .42zm-1.8.69a1.31 1.31 0 01.83-.27.91.91 0 01-.83.27zM83 68.34a.76.76 0 01.56-.28.5.5 0 01-.56.28zm-3.2 1.53a.76.76 0 01.56-.28.52.52 0 01-.56.28z" transform="translate(5.46 -.3)"/><path class="cls-8" d="M62.55 75.56a2.19 2.19 0 011.12-.28 1.59 1.59 0 01-1.12.28zM51.29 77.5v.14c-1.6.22-3.2.44-4.8.64h-.76c-.21.17-.49 0-.69.14l-5.56.58c-.64.06-1.28.1-1.92.14a34.79 34.79 0 01-4.21.17c-.35.18-.76-.06-1.11.13h-2.09c-.68.19-1.4-.06-2.08.14h-9.19c-.68-.2-1.4.05-2.09-.14h-2.36c-.35-.19-.76 0-1.11-.13-1.49.09-3-.14-4.45-.14-.26-.18-.58 0-.84-.14H6.78c-.26-.18-.58 0-.83-.14H4.69c-.2-.17-.48 0-.69-.13H3s-.06-.07 0-.09c2.84 0 5.66.3 8.49.46 3.58.19 7.16.23 10.74.24h7.92c3-.08 6-.28 9-.51 2.17-.17 4.35-.38 6.52-.6 1.56-.16 3.1-.43 4.65-.64.36-.11.68-.1.97-.12zm6.4-1.8a2.63 2.63 0 00.83-.14c.41-.12.84-.16 1.25-.28.21-.16.49 0 .7-.14.41 0 .69-.4 1.11-.28a4.6 4.6 0 01.84-.14 2.42 2.42 0 001.11-.41c.2.19.5-.09.69.14a24.15 24.15 0 01-4.22 1.1c-2.28.47-4.56.9-6.85 1.34a10.37 10.37 0 00-1.75.32c-.07-.09-.22 0-.28-.13v-.15c.56-.32 1.22-.19 1.81-.41a15.89 15.89 0 003.51-.52c.4-.15.84-.18 1.25-.3z" transform="translate(5.46 -.3)"/><path class="cls-8" d="M64.22 74.45c-.23 0-.5.08-.69-.14a19.26 19.26 0 002.36-.56c2.22-.53 4.37-1.28 6.53-2l1.12-.35.83-.28v.1c0 .04 0 0 0 0a49.22 49.22 0 01-5.51 1.92 43.8 43.8 0 01-4.64 1.31zM78.55 70c-.93.18-1.73.74-2.64 1v-.14c-.08-.27.21-.15.28-.27.2-.18.48-.14.69-.28.2-.17.49-.14.7-.28l.28-.14c.22-.12.47-.15.69-.28.48-.32 1.06-.42 1.54-.74 1.72-.7 3.36-1.6 5-2.45l.28-.14a1.5 1.5 0 00.83-.42c.18-.07.32-.3.56-.14.08.16-.06.2-.14.28-.39.28-.87.41-1.25.7a6.58 6.58 0 01-.84.42l-1 .55a22.21 22.21 0 01-2.24 1.11l-.27.14L78.55 70z" transform="translate(5.46 -.3)"/><path class="cls-8" d="M76.19 70.56l-.29.28c-.55 0-1 .41-1.52.41v-.14a1.34 1.34 0 01.7-.27 2.26 2.26 0 011.11-.28zm-25.04 6.51a.35.35 0 01.28.14c-.89 0-1.75.32-2.65.28a14.71 14.71 0 012.37-.42zm-5.84.85c.39-.28.83-.08 1.25-.14-.39.27-.84.08-1.25.14zm1.25-.14c.2-.23.46-.11.69-.14a.2.2 0 01.28 0c-.29.26-.65.09-.97.14zM48 77.5h.83c-.24.25-.55.1-.83.14-.05 0-.06-.06-.05-.09a.1.1 0 01.05-.05z" transform="translate(5.46 -.3)"/><path class="cls-8" d="M48 77.5v.14h-.7c.15-.23.42-.11.7-.14zm-7.56.56a6.34 6.34 0 01-2.08.24 26 26 0 01-4 .17 1 1 0 01.3-.13zM53 76.53a6.61 6.61 0 01-1.81.41h-1a11.24 11.24 0 012.81-.41zm-9.5 1.25a13.68 13.68 0 01-3.06.28 11.64 11.64 0 013.06-.28zm3.62-.42a7.59 7.59 0 01-2.37.28 7.59 7.59 0 012.37-.28zm1.94-.29a4.74 4.74 0 01-1.94.28 5.53 5.53 0 011.94-.28zm-4.45.57c-.34.27-.74.08-1.11.14.34-.28.74-.07 1.11-.14zm5.58-.7c-.34.28-.74.09-1.11.14.32-.27.72-.08 1.11-.14zm-33.4 2.51a6.38 6.38 0 012.09.13c-.69-.08-1.41.17-2.09-.13zm11.27.13c.68-.32 1.39-.06 2.09-.13-.68.3-1.4.05-2.09.13zm-14.74-.27c.37.06.77-.13 1.11.14-.37-.06-.77.13-1.11-.14zm18.91.13c.35-.27.75-.08 1.12-.13-.35.27-.76.08-1.12.13zM6 78.89c.27 0 .58-.11.83.14-.33-.03-.64.11-.83-.14zM8 79c.28 0 .59-.11.84.14-.25-.01-.57.13-.84-.14zm-4-.25c.23 0 .5-.09.69.14-.23-.03-.49.11-.69-.14zm-3.48-.28c.24 0 .5-.09.7.14-.22-.03-.5.09-.7-.14zm2.48.14v.14c-.23 0-.5.09-.69-.14zm42-.14c.2-.22.46-.11.69-.13-.16.22-.43.1-.69.13zm12.69-2.77a2.19 2.19 0 01-1.25.27 2.17 2.17 0 011.25-.27zm2.1-.42a2.28 2.28 0 01-1.25.28 2.18 2.18 0 011.25-.28zm2.63-.56a1.43 1.43 0 01-.84.14.87.87 0 01.84-.14z" transform="translate(5.46 -.3)"/><path class="cls-8" d="M60.47 75.15c-.2.22-.46.11-.7.14.23-.24.46-.12.7-.14zm24.62-8.76c-.1.24-.34.32-.54.41-1.25.64-2.51 1.25-3.76 1.88a1.48 1.48 0 01-.71.22s-.06-.07 0-.1l.42-.15a20.81 20.81 0 002.09-1.1.84.84 0 00.55-.28.86.86 0 00.56-.27z" transform="translate(5.46 -.3)"/><path class="cls-8" d="M80.08 68.75v.14a3.66 3.66 0 01-1.53.69c.37-.51 1.04-.51 1.53-.83zm-3.2 1.53a.82.82 0 01-.69.28c.13-.32.42-.28.69-.28zm.7-.28a.82.82 0 01-.7.28c.12-.28.43-.28.7-.28zm.97-.41a.8.8 0 01-.7.27.81.81 0 01.7-.27zm8.21-3.89l-.56.14a.85.85 0 01.7-.42zm-.14.3l.14-.28.55-.15a.88.88 0 01-.69.43zm-8.07 4a8.89 8.89 0 012.5-1.11 7.91 7.91 0 01-2.5 1.11zm2.78-1.25a10.39 10.39 0 012.24-1.11 5.14 5.14 0 01-2.24 1.11zm4.03-2.08a2.45 2.45 0 011.26-.67 2.45 2.45 0 01-1.26.67zm-.83.42a1.57 1.57 0 01.83-.42.86.86 0 01-.83.42z" transform="translate(5.46 -.3)"/><rect class="cls-1" x="5.73" y=".07" width="80" height="80" rx="19.89"/></g><path class="cls-8" d="M14.44 31.19a4.48 4.48 0 01-.07.64 2.89 2.89 0 01-.16.66c-.06.17-.14.25-.22.25s-.13-.05-.21-.14a1.94 1.94 0 00-.32-.32A2 2 0 0013 32a1.67 1.67 0 00-.76-.15 1.72 1.72 0 00-.91.26 2.67 2.67 0 00-.74.68 4.2 4.2 0 00-.57 1 7.59 7.59 0 00-.4 1.13A8.23 8.23 0 009.34 36a8 8 0 00-.08 1.09 4.81 4.81 0 00.12 1.07 2.33 2.33 0 00.34.81 1.36 1.36 0 00.55.46 1.83 1.83 0 00.73.15 2.36 2.36 0 00.83-.13 3.14 3.14 0 00.58-.29c.16-.1.29-.2.4-.28a.47.47 0 01.29-.14.14.14 0 01.12.09.58.58 0 010 .23.54.54 0 010 .18 1.58 1.58 0 010 .28c0 .1 0 .21-.05.32a1.65 1.65 0 01-.06.32 1.38 1.38 0 01-.08.27.7.7 0 01-.11.23 1.38 1.38 0 01-.3.24 2.65 2.65 0 01-.52.29 5.83 5.83 0 01-.71.22 3.93 3.93 0 01-.84.09 3.35 3.35 0 01-1.33-.25 2.62 2.62 0 01-1-.77 3.76 3.76 0 01-.64-1.28 6.9 6.9 0 01-.22-1.81 10.56 10.56 0 01.13-1.68A10.76 10.76 0 017.86 34a9 9 0 01.66-1.6 5.89 5.89 0 011-1.31 4.21 4.21 0 011.24-.89 3.55 3.55 0 011.54-.32 3.48 3.48 0 01.9.12 2.66 2.66 0 01.73.32 1.82 1.82 0 01.45.38.74.74 0 01.06.49zm8.41 2.68a15 15 0 01-.1 1.64 12.51 12.51 0 01-.36 1.72 8.59 8.59 0 01-.64 1.64 5.69 5.69 0 01-1 1.38 4.19 4.19 0 01-1.32 1 3.94 3.94 0 01-1.73.35 4.14 4.14 0 01-1.44-.23 2.67 2.67 0 01-1.06-.72 3.18 3.18 0 01-.64-1.22 6.09 6.09 0 01-.22-1.75 13.73 13.73 0 01.11-1.7 12.93 12.93 0 01.36-1.75 9.51 9.51 0 01.64-1.63 6 6 0 011-1.36 4.25 4.25 0 011.32-.94 4.39 4.39 0 013.15-.1 2.5 2.5 0 011 .73 3.22 3.22 0 01.64 1.23 6.48 6.48 0 01.29 1.71zm-1.85.22a5.2 5.2 0 00-.09-1 2 2 0 00-.3-.73 1.36 1.36 0 00-.53-.45 2.06 2.06 0 00-1.84.13 3.13 3.13 0 00-.78.76 5 5 0 00-.55 1.08 8.67 8.67 0 00-.36 1.23 11.57 11.57 0 00-.25 2.24 5.12 5.12 0 00.09 1 1.9 1.9 0 00.3.72 1.36 1.36 0 00.53.45 2.06 2.06 0 001.78-.13 2.82 2.82 0 00.78-.76 4.64 4.64 0 00.55-1.06 8.54 8.54 0 00.36-1.22 10 10 0 00.19-1.2c.12-.4.12-.75.12-1.06zm12.61 7.46a.87.87 0 01-.07.17.33.33 0 01-.14.12 1.37 1.37 0 01-.29.07h-.89a1.34 1.34 0 01-.27-.07.28.28 0 01-.12-.12.49.49 0 010-.17l1.51-9.68-4 9.17a.47.47 0 01-.32.29 2.06 2.06 0 01-.66.07 1.43 1.43 0 01-.64-.1.33.33 0 01-.2-.24l-1-8.79-1.44 8.78a.44.44 0 01-.06.16.26.26 0 01-.14.11.9.9 0 01-.27.07h-.84a.72.72 0 01-.25-.07.2.2 0 01-.11-.11.22.22 0 010-.16L25 31a1.9 1.9 0 01.11-.39 1.22 1.22 0 01.17-.29.84.84 0 01.24-.18 2.82 2.82 0 00.29-.18h1.13a1.78 1.78 0 01.51.06.77.77 0 01.34.22 1.07 1.07 0 01.21.41 3.11 3.11 0 01.09.6l.85 6.66 3-6.66a6.11 6.11 0 01.27-.58 1.73 1.73 0 01.3-.41 1 1 0 01.37-.23 1.25 1.25 0 01.47-.07h1.34a.7.7 0 01.32.06.41.41 0 01.2.19.75.75 0 01.1.32 2.81 2.81 0 010 .41zm9.05-8.49a6.64 6.64 0 01-.09 1 4.52 4.52 0 01-.27 1 4.17 4.17 0 01-.48.94 3.27 3.27 0 01-1.71 1.34 4 4 0 01-1.33.2h-.9l-.55 3.52a.28.28 0 01-.06.15.39.39 0 01-.17.11 1 1 0 01-.28.07h-.84a.72.72 0 01-.25-.07.18.18 0 01-.13-.26l1.55-9.92a1.11 1.11 0 01.25-.6.63.63 0 01.5-.2h2.49a5.07 5.07 0 01.54.09 2.8 2.8 0 01.73.32 2 2 0 01.54.53 2.44 2.44 0 01.35.75 3.6 3.6 0 01.11 1.03zm-1.82.06a1.51 1.51 0 00-.15-.72.9.9 0 00-.48-.42 1.16 1.16 0 00-.32-.08 2.55 2.55 0 00-.39 0h-.78l-.58 3.79H39a1.49 1.49 0 001.13-.44 1.7 1.7 0 00.35-.45 3 3 0 00.24-.55 3.63 3.63 0 00.13-.57 3.27 3.27 0 000-.54zm9.47-.62a5.35 5.35 0 01-.12 1.13 4 4 0 01-.39 1.06 3.56 3.56 0 01-.68.9 3.07 3.07 0 01-1 .64 1.29 1.29 0 01.56.68 5.45 5.45 0 01.32 1.37l.37 2.35v.35a2.24 2.24 0 010 .26.25.25 0 010 .15.27.27 0 01-.16.1 1.8 1.8 0 01-.32.06h-.52a3.31 3.31 0 01-.44 0 .89.89 0 01-.28-.07.25.25 0 01-.12-.13.59.59 0 010-.19l-.35-2.56a5.36 5.36 0 00-.15-.78 2 2 0 00-.24-.57.93.93 0 00-.35-.33 1 1 0 00-.51-.11h-.57l-.68 4.4a.46.46 0 01-.07.16.45.45 0 01-.17.11 1.09 1.09 0 01-.3.07 4.85 4.85 0 01-.88 0 .77.77 0 01-.26-.07.26.26 0 01-.14-.11.22.22 0 010-.16l1.64-10.48a1 1 0 01.25-.57.64.64 0 01.44-.17h2.41a3.69 3.69 0 011.14.15 2.35 2.35 0 01.87.46 2 2 0 01.56.79 3 3 0 01.14 1.11zm-2.07.5a1.59 1.59 0 00-.06-.43.9.9 0 00-.2-.34.87.87 0 00-.35-.22 1.32 1.32 0 00-.52-.08h-1l-.47 3h.8a1.64 1.64 0 00.82-.18 1.51 1.51 0 00.54-.46 1.87 1.87 0 00.3-.62 2.75 2.75 0 00.1-.7zm4.26 8.05a.33.33 0 01-.07.16.36.36 0 01-.16.11 1.53 1.53 0 01-.29.07h-.87a.77.77 0 01-.26-.07.28.28 0 01-.13-.11.43.43 0 010-.16l1.66-10.64a.3.3 0 01.07-.15.35.35 0 01.17-.12 1.4 1.4 0 01.28-.06 3.1 3.1 0 01.43 0 3 3 0 01.42 0 1.31 1.31 0 01.27.06.25.25 0 01.13.12.38.38 0 010 .15zm9.41-10.7v.2a2.31 2.31 0 010 .32c0 .13 0 .23-.06.35a2.45 2.45 0 01-.09.32 1.08 1.08 0 01-.12.24.21.21 0 01-.16.1H59.2l-1.43 9.19a.56.56 0 01-.07.16.45.45 0 01-.17.11 1.37 1.37 0 01-.29.07 3.15 3.15 0 01-.44 0 3.11 3.11 0 01-.43 0 .9.9 0 01-.27-.07.25.25 0 01-.12-.11.31.31 0 010-.16l1.43-9.19h-2.23a.14.14 0 01-.14-.1.75.75 0 010-.26v-.21A2.31 2.31 0 0155 31a2 2 0 01.06-.35 1.68 1.68 0 01.09-.32 1.15 1.15 0 01.12-.25.24.24 0 01.16-.09h6.25a.14.14 0 01.13.1.63.63 0 01.1.26zm5.65 10.06v.5a.39.39 0 01-.1.27.46.46 0 01-.3.11 5.52 5.52 0 01-.58 0h-.38a.74.74 0 01-.25-.05.19.19 0 01-.12-.1.58.58 0 010-.19l-.24-2.26h-3.33l-.91 2.21a.56.56 0 01-.11.2.37.37 0 01-.17.13 1.65 1.65 0 01-.32.06h-.49a2.57 2.57 0 01-.48 0 .28.28 0 01-.23-.13.34.34 0 010-.28 2.84 2.84 0 01.17-.49l4.25-10a1.38 1.38 0 01.14-.24.37.37 0 01.19-.14 1 1 0 01.34-.06h1.2a1.34 1.34 0 01.35 0 .29.29 0 01.17.14.86.86 0 010 .27zm-2.64-8.14l-2 4.93h2.54zM74.83 31v.2a1.06 1.06 0 010 .29 1.64 1.64 0 000 .32c0 .1 0 .19-.08.29a.62.62 0 01-.1.22c0 .06-.07.09-.11.09a.44.44 0 01-.24-.11l-.43-.3a2.69 2.69 0 00-.48-.24 2 2 0 00-.64-.11 1.44 1.44 0 00-.62.13 1.29 1.29 0 00-.42.35 1.35 1.35 0 00-.24.48 1.88 1.88 0 00-.07.53 1.06 1.06 0 00.12.55 1.6 1.6 0 00.32.45 4.31 4.31 0 00.46.39l.53.4c.18.14.35.29.53.46a2.8 2.8 0 01.46.57 2.92 2.92 0 01.32.75 3.42 3.42 0 01.13 1 4.62 4.62 0 01-.27 1.52 3.66 3.66 0 01-.73 1.21 3.17 3.17 0 01-1.14.81 3.37 3.37 0 01-1.47.3 3.66 3.66 0 01-.81-.09 3 3 0 01-.66-.22 2.91 2.91 0 01-.49-.27 1.28 1.28 0 01-.29-.28.6.6 0 01-.09-.39v-.51l.06-.32c0-.11 0-.21.08-.32a1.2 1.2 0 01.11-.23.15.15 0 01.12-.08.49.49 0 01.31.16 3.68 3.68 0 00.39.3 3.37 3.37 0 00.56.3 1.94 1.94 0 00.79.14 1.89 1.89 0 00.7-.13 1.36 1.36 0 00.5-.36 1.51 1.51 0 00.32-.53 1.8 1.8 0 00.1-.65 1.13 1.13 0 00-.12-.57 1.71 1.71 0 00-.32-.44 4.19 4.19 0 00-.45-.39 6.41 6.41 0 01-.52-.39c-.18-.15-.36-.3-.52-.45a3.11 3.11 0 01-.46-.57 3.4 3.4 0 01-.32-.76 4.07 4.07 0 01-.12-1 4.16 4.16 0 01.26-1.5 3.32 3.32 0 01.67-1.13 3 3 0 011-.74 3.36 3.36 0 011.33-.27 2.79 2.79 0 01.64.07 3.8 3.8 0 01.55.16 2 2 0 01.43.23.91.91 0 01.24.2.59.59 0 01.1.17.67.67 0 01.08.31zM46.35 14.85zm-.06.3a6.45 6.45 0 01.27-1.07v-.05H34.84v1.64H46.2c.03-.17.06-.36.09-.52z" transform="translate(5.46 -.3)"/><path d="M40.48 24.49a2 2 0 102-2 2 2 0 00-2 2zm-6.02 0a2 2 0 102-2 2 2 0 00-2 2zm11.12-6.11H36.3l-2-7.48h13.1v-.37a1 1 0 01.05-.3 6.93 6.93 0 01.2-.75h-15l2.5 9.52a1.2 1.2 0 001.12 1h9c.05-.58.18-1.1.31-1.62z" transform="translate(5.46 -.3)" fill="#03517e"/><path class="cls-8" d="M45.07 20.79H34.74L31.05 6.57v-.18h-.35l-3.65-1a.62.62 0 00-.72.49.17.17 0 000 .07.76.76 0 00.46.88l3.31.88 3.6 14a.63.63 0 00.58.52h10.65a13 13 0 01.14-1.44z" transform="translate(5.46 -.3)"/></g></g></g></svg>