<svg xmlns="http://www.w3.org/2000/svg" viewBox="0 0 191.66 134.24"><defs><clipPath id="clip-path" transform="translate(8.73 -.48)"><rect class="cls-1" width="128" height="128" rx="7.96"/></clipPath><style>.cls-1{fill:none}.cls-3{fill:#fff}.cls-5{isolation:isolate;font-size:12.99px;fill:#215565;font-family:Montserrat-SemiBoldItalic,Montserrat;font-weight:600;font-style:italic;letter-spacing:.58em}.cls-8{fill:#f1c413}</style></defs><g id="Capa_2" data-name="Capa 2"><g id="Capa_1-2" data-name="Capa 1"><g id="Capa_2-2" data-name="Capa 2"><g id="Capa_1-2-2" data-name="Capa 1-2"><g clip-path="url(#clip-path)"><rect class="cls-3" x="8.78" width="128" height="128" rx="7.96"/><g style="isolation:isolate"><text class="cls-5" transform="matrix(.78 0 0 1 30.55 79.16)">E</text><text transform="matrix(.78 0 0 1 43.22 79.16)" style="isolation:isolate" letter-spacing=".57em" font-size="12.99" fill="#215565" font-family="Montserrat-SemiBoldItalic,Montserrat" font-weight="600" font-style="italic">X</text><text class="cls-5" transform="matrix(.78 0 0 1 55.97 79.16)">P</text><text transform="matrix(.78 0 0 1 69.18 79.16)" style="isolation:isolate" letter-spacing=".59em" font-size="12.99" fill="#215565" font-family="Montserrat-SemiBoldItalic,Montserrat" font-weight="600" font-style="italic">RESS</text></g><path class="cls-8" d="M-8.73 134.44h190.41c.71.07 1.06-.18 1-.93V43.79c.46.2.21.6.21.89v89.08c0 .77-.15.91-.91.91H-7.85c-.28-.01-.68.23-.88-.23z" transform="translate(8.73 -.48)"/><path d="M175.93 62.51V71a8.43 8.43 0 01-.48 1.3c-1 1.64-2 3.3-3.08 4.88-.64.8-1.19 1.67-1.82 2.48a61.74 61.74 0 01-6 6.91 72.12 72.12 0 01-10.35 8.73c-3.38 2.42-7 4.38-10.6 6.51a4.38 4.38 0 01-1.41.64c-2.28.89-4.44 2-6.71 3a143.94 143.94 0 01-31.33 8.29c-5.94.93-11.91 1.52-17.9 2-7.36.54-14.74.53-22.11.47-4.82 0-9.63-.35-14.43-.63-10.6-.61-21.12-1.85-31.61-3.39-6.1-.98-12.1-2.09-18.19-3.26-.67-.12-1.43-.12-1.85-.84V77.26c.1-.79.58-.36.87-.22 1.26.62 2.54 1.23 3.78 1.89 8.5 4.54 17.29 8.56 26.13 12.31 7.42 3.14 14.94 6 22.62 8.42a186 186 0 0034.91 7.75c4.12.47 8.26.68 12.42.74a102.22 102.22 0 0020.67-1.59A75 75 0 00174.84 64c.27-.5.3-1.28 1.09-1.49z" transform="translate(8.73 -.48)" fill="#003d89"/><path class="cls-8" d="M175.93 62.51a90.31 90.31 0 01-8.8 15 73.36 73.36 0 01-22.66 20.32 79 79 0 01-27.89 9.53 108 108 0 01-14.37 1.14 138.52 138.52 0 01-31-3.28 237.47 237.47 0 01-43.6-14.15C17.92 87 8.46 82.38-.86 77.48c-.33-.17-.65-.36-1-.54a27.66 27.66 0 01-.1-4.27c0-.16.15-.23.32-.21 4 2.28 8.11 4.29 12.23 6.31A303.77 303.77 0 0050 95a189.36 189.36 0 0035.11 8.07c.51.07 1 .06 1.55.08a127.2 127.2 0 0017.24.67c3.73-.17 7.45-.39 11.15-.93a106.23 106.23 0 0011-2.36 52.1 52.1 0 007.61-2.5 5.91 5.91 0 001.21-.46 6.15 6.15 0 011.63-.69 40.9 40.9 0 006.56-3.26 3.57 3.57 0 001.13-.45l.79-.48a71.35 71.35 0 0014.84-11.6 77.17 77.17 0 0012.93-17.57c.83-1.57 1.72-3.11 2.4-4.76.13-.32.24-.73.72-.73z" transform="translate(8.73 -.48)"/><path class="cls-8" d="M175.93 58a107.87 107.87 0 01-5.43 10 74.53 74.53 0 01-25 24.69 3.65 3.65 0 01-.41.18c-.2.09-.29 0-.35-.2 0-.54.43-.72.77-1 1.4-1.1 2.79-2.23 4.13-3.42a38.87 38.87 0 005.36-5.01 4.79 4.79 0 011-1 5.69 5.69 0 001.75-1.87 1.94 1.94 0 01.57-.7 3.59 3.59 0 001.23-1.22l.18-.25a75.36 75.36 0 007-9.2 78.63 78.63 0 006.79-11.68 6.15 6.15 0 00.65-1.37c.11-.52.52-.87.74-1.32a2.93 2.93 0 01.64-.84l.41-.54z" transform="translate(8.73 -.48)"/><path class="cls-8" d="M119.89 101.78c.43-.55 1.09-.36 1.64-.51a69.38 69.38 0 0011.63-3.73c1.24-.57 2.58-1 3.84-1.53a40.9 40.9 0 008.48-5.67 44 44 0 003.9-3.44c1.76-1.78 3.66-3.41 5.35-5.28a97.31 97.31 0 006.8-8.09c1.21-1.65 2.41-3.32 3.6-5a67.35 67.35 0 003.83-6.3c.15-.25.26-.54.56-.66a.72.72 0 01.25.61c-.32 1.69-1.59 2.89-2.29 4.39a2.14 2.14 0 01-.23.38 15.37 15.37 0 00-1.78 2.53 101.63 101.63 0 01-10.4 13.09 118.1 118.1 0 01-12.2 10.93 31.24 31.24 0 01-5.4 3.13 20.55 20.55 0 00-3.36 1.37 55.48 55.48 0 01-7.83 2.65c-1.74.49-3.49.87-5.25 1.28-.37.07-.79.21-1.14-.15zm-65.2 26.44c-8.9.72-17.81.45-26.71.41-4.79 0-9.57-.35-14.35-.66-3.13-.2-6.23-.54-9.36-.66a48 48 0 01-4.94-.48c-.38-.06-1 .06-1.17-.61l.16-.14a8.26 8.26 0 012.85.1c2.65.2 5.3.4 7.94.62 4.35.37 8.71.5 13.06.72 1.36.07 2.73.09 4.09.17 5.52.28 11 .28 16.55.19 4.24-.08 8.5-.21 12.74-.48a31.3 31.3 0 003.86-.27 1.79 1.79 0 01.4-.09 77 77 0 008-.55 1.72 1.72 0 01.39-.1 48.67 48.67 0 006.25-.64 2.31 2.31 0 011.51.13.27.27 0 01.08.35 13.91 13.91 0 01-3.34.44c-1.17.31-2.38.25-3.56.45a9.26 9.26 0 01-2 .21c-4.06.3-8.12.7-12.2.79a.67.67 0 00-.25.1zM176 73.12c.22 1.19-.53 2-1.08 2.94a86.21 86.21 0 01-9 11.75 65.53 65.53 0 01-6.56 6.19 75.39 75.39 0 01-11 7.72c-.35.21-.72.37-1.07.56s-.63.49-1.07.3c-.26-.56.22-.73.54-.9 2.75-1.53 5.34-3.33 7.95-5.08.71-.48 1.34-1 2-1.55A70.49 70.49 0 00168 84.2a6.34 6.34 0 00.92-1.21c1.36-1.7 2.6-3.47 3.81-5.28.86-1.28 1.65-2.6 2.47-3.91.2-.29.27-.74.8-.68zM119.67 116a39.14 39.14 0 01-5 1.86c-3.33 1.27-6.76 2.18-10.17 3.17-3.74 1.1-7.57 1.89-11.4 2.64a22.77 22.77 0 01-5.2.77 1.34 1.34 0 01-1.11 0c.18-.85 1-.65 1.49-.75 2.46-.47 4.92-.91 7.35-1.51 1.88-.35 3.73-.85 5.58-1.33a110.8 110.8 0 0012.11-3.48 14.42 14.42 0 004.45-1.62 1.11 1.11 0 01.6-.25c1 .07 1.77-.58 2.69-.77.44-.1.86-.41 1.35-.14.1.75-.62.44-.9.7l-.67.22c-.36.36-.84.33-1.17.49z" transform="translate(8.73 -.48)"/><path class="cls-8" d="M121.45 115.34c.23-.32.77-.21.89-.67s.49-.69.88-.83a135.75 135.75 0 0012.84-6 5.55 5.55 0 00.63-.45c2.63-1.37 5.12-3 7.66-4.5.62-.06 1.05-.89 1.8-.48l1.11-.22-3.63 2.21c-1.93 1.17-3.8 2.46-5.81 3.49s-3.79 2-5.72 2.93c-1.11.53-2.23 1-3.36 1.54-2.2 1-4.41 1.94-6.63 2.89a2 2 0 01-.66.09zm-1.56-13.56c1.87 0 3.59-.76 5.38-1.09.36-.07.72-.16 1.08-.24.12.08.12.17 0 .26a62.6 62.6 0 01-10 2.17 103.47 103.47 0 01-20.36 1.06 62.7 62.7 0 01-9.37-.8c3.23.2 6.46.48 9.7.59a48.27 48.27 0 007.31-.11c1.6-.19 3.24-.16 4.86-.24 2.33-.12 4.6-.58 6.91-.79 1.6-.13 2.97-.77 4.49-.81zM-1.61 72.46c-.55.75-.19 1.61-.26 2.41a17.92 17.92 0 000 2.07c0 .26-.06.51-.06.77v30.52a1.94 1.94 0 01.38 1.45v15.65a1.69 1.69 0 010 .32.88.88 0 01-.27.57c-.37-.37-.21-.84-.21-1.27V73.4c.03-.27-.52-.99.42-.94zm177.61.66a96.32 96.32 0 01-5.55 8.42c-.42.55-.9 1.06-1.35 1.58-.27.26-.36.81-.94.61-.2-.54.24-.79.5-1.12a39.23 39.23 0 003.79-5.38c.78-1.49 1.92-2.76 2.59-4.32.1-.23.16-.48.27-.71a2.45 2.45 0 01.65-1.15c-.02.69.04 1.38.04 2.07zm-89.27 51.32h1.12c-1 .69-2.25.58-3.37.84-1.77.41-3.61.5-5.42.74-1 .14-2 .59-3 .2V126c.64-.84 1.64-.59 2.46-.7 2.26-.32 4.5-.73 6.76-1 .51-.12 1.01-.3 1.45.14zm-32.04 3.78a6.12 6.12 0 012.56-.41c2.88 0 5.74-.27 8.6-.51 1.1-.09 2.2-.17 3.3-.18a3.12 3.12 0 01-1.79.4c-4.24 0-8.42.91-12.67.7zM175.52 53.8a1.59 1.59 0 01-.41.89 9.3 9.3 0 00-2.6 2.36.25.25 0 01-.38 0c-.3-.71.41-1.12.51-1.71.47-1.4 1.62-1.57 2.88-1.54z" transform="translate(8.73 -.48)"/><path class="cls-8" d="M172.63 55.35c.09.66-.53 1.13-.44 1.78v.15a21.06 21.06 0 00-.93 2 2.38 2.38 0 01-.28.55c-.21.23-.4.51-.79.36a24.85 24.85 0 012.44-4.84z" transform="translate(8.73 -.48)"/><path class="cls-8" d="M170.18 60.24l.67-.44a2.34 2.34 0 01-1.33 2.44v-.67a2.51 2.51 0 01.66-1.33zm-97.47 66.43a13 13 0 013.34-.45c-1.05.32-2.14.95-3.34.45zm-3.56.44a11.3 11.3 0 013.56-.44c-1.12.66-2.36.38-3.56.44zM119.67 116a2.16 2.16 0 011.11-.44c-.22.51-.68.44-1.11.44z" transform="translate(8.73 -.48)"/><path class="cls-3" d="M-1.85 123.36v-15.13c5 1 10.05 2 15.11 2.76q5.68.89 11.37 1.67c3.43.48 6.87.92 10.31 1.29 2.78.31 5.58.5 8.37.72 3.94.3 7.87.62 11.81.86 2 .12 4.06.16 6.09.2 5.19.12 10.39.16 15.57 0q6.85-.19 13.7-.8c4.7-.42 9.39-.92 14.05-1.63a157.5 157.5 0 0017.2-3.67 123.92 123.92 0 0015.31-5.24c1.46-.61 2.88-1.34 4.33-2 .31-.14.59-.51 1-.23-.06.49-.47.66-.82.87a8.56 8.56 0 00-1.55.97 3.44 3.44 0 01-.76.5 21 21 0 00-2.44 1.28c-1 .46-1.93.93-2.85 1.48a7.63 7.63 0 00-1 .47c-.33.14-.65.31-1 .48-1.15.44-2.2 1.09-3.32 1.59-2.87 1.18-5.7 2.46-8.62 3.53a20.57 20.57 0 00-2.52.93q-6.08 2.08-12.27 3.8c-6.06 1.6-12.2 2.85-18.36 4-2.87.35-5.7.9-8.56 1.25-3 .37-6 .73-9 1-3.23.34-6.48.48-9.71.82-1.28.14-2.6.18-3.88.21-2.59 0-5.17.38-7.76.29-3.64-.14-7.26.39-10.88.19-3.78-.2-7.56-.08-11.33-.23-3.06-.12-6.13-.25-9.19-.43-3.32-.2-6.64-.39-9.94-.67-2.46-.21-4.93-.41-7.39-.64a1.67 1.67 0 01-1.07-.49z" transform="translate(8.73 -.48)"/><path class="cls-8" d="M139.26 104.22l.64-.45a5.19 5.19 0 001.56-.91l.93-.69c3.6-2.19 7.37-4.1 10.81-6.53.3-.21.64-.37 1-.56.13.91-.84 1-1.17 1.52A12.1 12.1 0 01151 98a2 2 0 00-1.16.82 13.77 13.77 0 01-1.84 1.11 5.8 5.8 0 00-1 .56 1.4 1.4 0 01-.24.15 6.41 6.41 0 00-1 .57 1.23 1.23 0 01-.25.14 11.66 11.66 0 00-1.85 1.06c-1.27.69-2.42 1.57-3.72 2.21-.3.12-.58.28-.91.11s.07-.38.23-.51zm25.14-17.76c2.09-2.22 4.07-4.53 6-6.9a.19.19 0 01.27 0c.25.48-.13.77-.35 1.07-1.06 1.4-2.22 2.72-3.26 4.13a4.24 4.24 0 00-1.06 1.32 1 1 0 01-.16.24 10 10 0 00-1.29 1.22c-1.42 1.37-2.76 2.83-4.31 4.07-.29.22-.52.52-.91.58a.64.64 0 01-.46-.13c-.14-.5.32-.59.57-.82a47.17 47.17 0 004.96-4.78z" transform="translate(8.73 -.48)"/><path class="cls-8" d="M164.4 86.46a9.55 9.55 0 01-2.73 3c-1 .84-1.81 1.82-2.83 2.59-.19.71-.81 1-1.31 1.44-1.1.94-2.28 1.76-3.44 2.62-.35.26-.7.72-1.26.38.25-.64 1.12-.68 1.33-1.37a100.21 100.21 0 0010.24-8.66zm10.88-14.26c-.05 1.6-1.13 2.71-1.92 4-.25.39-.49.79-.73 1.2-.12.16-.23.38-.51.2a.43.43 0 010-.45z" transform="translate(8.73 -.48)"/><path class="cls-8" d="M172.18 77.1v.47a3 3 0 01-1.55 2h-.24zm-34.71 19.35c1.92-.79 3.49-2.2 5.34-3.11a.53.53 0 01.63-.07c.22.28 0 .38-.2.5a24.45 24.45 0 01-6.66 3.33c.03-.58.64-.38.89-.65zm-11.11 4.26v-.26c2.63-.77 5.22-1.67 7.78-2.66l.06.12a.65.65 0 01-.28.31 38.39 38.39 0 01-7.56 2.49z" transform="translate(8.73 -.48)"/><path class="cls-8" d="M137.47 96.45l-.89.65-1.52.7a1 1 0 01-.92 0 11.46 11.46 0 013.33-1.35zm5.77-2.68l.25-.42a.43.43 0 01.24-.34.61.61 0 01.42 0 .45.45 0 01.24.34 1.31 1.31 0 01-1.15.42z" transform="translate(8.73 -.48)"/><path class="cls-8" d="M144.38 93.35l-.24-.23c0-.49.28-.54.66-.46l.26.26zm-10.24 4.44h.92a2.08 2.08 0 01-1.15.43zm35.38-35.55a6.08 6.08 0 001.33-2.44.49.49 0 01.23-.45 18.39 18.39 0 011.11-2.22c.74-1.09 1.45-2.22 2.92-2.43 0 .56-.62.79-.68 1.32l-.23.2a3.88 3.88 0 00-1.41 1.72 96 96 0 01-7.73 13.41 4.39 4.39 0 01-.54.81c-.25.19-.46.51-.85.27-.17-.33.07-.58.22-.8 1.1-1.55 2.06-3.19 3.18-4.72a24.16 24.16 0 012-3.47c.16-.38.28-.8.45-1.2zm-11.11 17.62l-.46.6c-.51.73-1.25 1.24-1.79 2a58.09 58.09 0 01-5.47 5.4l-.95.74c-.27-.36 0-.61.18-.88 1.44-1.53 3.09-2.84 4.51-4.39a113.14 113.14 0 008.3-9.87c.24-.34.44-.81 1-.78a.55.55 0 01.15.28 19.53 19.53 0 01-2.49 3.55c-.51.71-1.15 1.3-1.62 2.05-.43.44-.9.85-1.36 1.3z" transform="translate(8.73 -.48)"/><path class="cls-8" d="M164.84 71.35a26.66 26.66 0 012.44-3.91 94.82 94.82 0 004.93-9 5.31 5.31 0 01.42-.63c.53-.59.85-1.36 1.56-1.78h.24a2.25 2.25 0 01-.66 1.33c-1.27 1.77-2.06 3.81-3.18 5.67s-2.35 4-3.66 5.9c-.45.56-.79 1.2-1.21 1.78-.23.29-.38.71-.88.64z" transform="translate(8.73 -.48)"/><path class="cls-8" d="M166.84 68.9c2.1-3.49 4.24-7 6-10.63a2 2 0 01.92-.92 25.22 25.22 0 01-2.24 4.43 64.08 64.08 0 01-4.64 7.43.17.17 0 01-.09-.24.16.16 0 01.05-.07z" transform="translate(8.73 -.48)"/><path class="cls-8" d="M166.84 68.9v.3a65.7 65.7 0 01-7.13 9.3c.17-.88.92-1.37 1.41-2a42.92 42.92 0 002.56-3.57c.2-.31.47-.57.66-.89l.45-.66c1.01-.61 1.21-1.83 2.05-2.48zm-16.69 18.88l-.41.77c-1.52 1.53-3.32 2.7-4.93 4.11a1.27 1.27 0 00-.67.46h-.43c-.31.08-.33-.14-.17-.27 2.08-1.7 4.21-3.35 6.22-5.14.13-.1.24-.03.39.07zm6.01-5.37a5.16 5.16 0 011.79-2 5.24 5.24 0 01-1.79 2zm2.25-2.55a3 3 0 011.37-1.38 2.75 2.75 0 01-1.37 1.38z" transform="translate(8.73 -.48)"/><path class="cls-8" d="M150.15 87.78c-1 .28-1.51 1.24-2.26 1.85-1.4 1.15-3 2.05-4.18 3.5l-.22.22h-.68a57.16 57.16 0 014.45-3.77c2.42-2.2 4.91-4.31 7.14-6.73s4.4-4.75 6.38-7.32a83.29 83.29 0 005.27-7.53 2.85 2.85 0 011-1.13 26.62 26.62 0 01-2.34 3.77c-.34.59-.89 1.07-1 1.79a.14.14 0 010 .15s0 .07-.06.07c-1.23 1.23-2.12 2.73-3.23 4s-2.24 2.73-3.44 4a62.41 62.41 0 01-6.65 6.66 2.11 2.11 0 00-.18.47zM-1.83 126.22v-.66a3.41 3.41 0 012 0c2.42.27 4.84.44 7.27.63 3.56.27 7.13.55 10.7.68a1.66 1.66 0 01.75.21 1.47 1.47 0 00.85.2c2.7-.15 5.39.34 8.08.22s5.17.22 7.76.25c4.81.07 9.61-.23 14.41-.3 2.76 0 5.53-.22 8.29-.38a1.53 1.53 0 011.36.31 1.86 1.86 0 01-.49.21c-1.77.09-3.54.13-5.31.24-7.5.45-15 .52-22.52.42-4.17-.06-8.34-.19-12.5-.47-2.58-.17-5.16-.17-7.73-.4l-9.9-.87z" transform="translate(8.73 -.48)"/><path class="cls-8" d="M59.59 127.33c-5.14 0-10.27.38-15.41.52-3.88.11-7.77.2-11.65.08-2.43-.07-4.88 0-7.31-.18-2-.18-4-.17-6-.2a.67.67 0 01-.6-.22 1 1 0 01.81-.3 38.55 38.55 0 016 .16 7.11 7.11 0 001.22 0c7.19 0 14.38.12 21.56 0 3.68-.08 7.38-.18 11.06-.54 2.34-.22 4.71-.38 7.06-.54 1.77-.12 3.53-.3 5.28-.55a3.56 3.56 0 012.07.1c.37.67-.24.42-.45.45-1.73.23-3.46.43-5.19.57-2.31.15-4.6.48-6.93.55a2.87 2.87 0 00-1.3.11z" transform="translate(8.73 -.48)"/><path class="cls-8" d="M68 126.67a19.21 19.21 0 013.12-.44 16.19 16.19 0 002.67-.45l.13-.14c1.91-.33 3.84-.51 5.75-.82 1.63-.25 3.27-.44 4.88-.79.51-.15 1-.06 1.54-.25s.85 0 1.27-.14l.3-.08a5.16 5.16 0 001-.19 1.16 1.16 0 01.31-.07 4 4 0 001.08-.19c.66-.07 1.22-.49 1.9-.51a6.08 6.08 0 002.11-.32 1.32 1.32 0 01.33-.08c.41 0 .83-.11 1.15.25a57.86 57.86 0 01-7.15 1.55 4.05 4.05 0 00-1.67.43c-2.31.17-4.58.66-6.87 1L76 126a34.19 34.19 0 00-5.15.53c-.91.11-1.85.07-2.85.14zm-8.19.66c1.09-.51 2.29-.22 3.43-.37a20.84 20.84 0 014.8-.29 7.24 7.24 0 01-2.77.38 29.32 29.32 0 01-5.46.28zm105.92-41.1a1.7 1.7 0 010-.22 3.88 3.88 0 011-1l.25-.12c.37-.21.6-.63 1.07-.68h.13a8.88 8.88 0 01-2.18 2.71 71.1 71.1 0 01-8.64 8 1.87 1.87 0 01-.5.2c-.15-.36.11-.59.25-.86 1.28-1.43 2.92-2.47 4.31-3.78 1-.91 1.92-1.83 2.86-2.77.49-.47.96-.99 1.45-1.48z" transform="translate(8.73 -.48)"/><path class="cls-8" d="M157.28 94.45l-.45.67a23.48 23.48 0 01-4.59 3.39c-2 1.34-4.06 2.63-6.09 3.94-.68 0-1.06.77-1.78.67a.51.51 0 01.14-.58 9.86 9.86 0 012-1.25c1.54-.84 3-1.81 4.45-2.78a64.42 64.42 0 005.34-3.79c.27-.21.53-.58.98-.27zm10.9-10.66l.9-.67c-.06.56-.48.84-.9 1.11a.27.27 0 01-.09-.34zm-49.85 31.99a.48.48 0 00-.44.22 33.48 33.48 0 01-4.48 1.46c-3.46 1.21-7 2.18-10.53 3.13a1.09 1.09 0 01-1-.08c.09-.91 1-.57 1.45-1 4-1.18 8-2.27 11.89-3.61 2.28-.78 4.48-1.76 6.8-2.41a.92.92 0 01.67.21c.17.57-.35.56-.63.68a38.54 38.54 0 01-3.73 1.4z" transform="translate(8.73 -.48)"/><path class="cls-8" d="M118.33 115.78c1.08-.81 2.46-.89 3.61-1.53.28-.15.63-.19.84-.47l.1-.12a5.68 5.68 0 001.2-.56 4.53 4.53 0 011.55-.61 6.84 6.84 0 001.5-.64l.54-.24a3.83 3.83 0 00.92-.48c1.37-.66 2.69-1.42 4.09-2a1.76 1.76 0 00.94-.45 11.14 11.14 0 012.74-1.31.56.56 0 01.45.19c-.9 1.06-2.25 1.34-3.4 2a97.08 97.08 0 01-9.19 4.29c-.64.26-1.39.29-1.88.87-1 .33-1.93.62-2.86 1a1.69 1.69 0 01-1.15.06zm-16.46 4.67a22.81 22.81 0 005-1.2c2.2-.59 4.37-1.27 6.55-1.91.08 0 .1.1.08.15s0 .07-.08.07a6.47 6.47 0 01-2.43 1c-3 .89-6.09 1.71-9.14 2.54a3 3 0 01-.67 0 2 2 0 01-.93.15.41.41 0 01-.24-.19.28.28 0 01.1-.27 5.84 5.84 0 011.59-.37z" transform="translate(8.73 -.48)"/><path class="cls-8" d="M100.09 121.11h1.11a25.31 25.31 0 01-5.56 1.33H94.3c0-.28.16-.4.37-.45 1.66-.4 3.35-.66 5-1a.51.51 0 01.42.12zm13.35-3.55v-.22c1.52-.34 2.86-1.25 4.45-1.34a10 10 0 01-4.45 1.56zm23.37-10h-.45c-.12-.49.27-.64.57-.82 2.25-1.26 4.48-2.54 6.65-3.94.3-.2.64-.41 1-.12l-.22.44a46.94 46.94 0 01-7.55 4.44z" transform="translate(8.73 -.48)"/><path class="cls-8" d="M-1.84 124.89v-.45c.79-.29 1.54.1 2.3.16 3.31.27 6.62.5 9.93.81 1.35.13 2.73.2 4.09.22 2.3 0 4.59.2 6.87.32 7.28.35 14.57.49 21.86.37 4.24-.07 8.5-.18 12.74-.45 3.16-.2 6.33-.36 9.5-.66 2.2-.21 4.4-.48 6.6-.67l.36-.09c.62-.14 1.27 0 1.89-.16l.32-.08a7.78 7.78 0 001.44-.19 3.4 3.4 0 01.64-.09 3.76 3.76 0 001.3-.13l.34-.08c1.31-.09 2.59-.38 3.89-.53 3.88-.69 7.76-1.33 11.62-2.16 3-.63 5.92-1.22 8.81-2.12a163.47 163.47 0 0016.29-5.11c.84-.12 1.55-.91 2.51-.52a.31.31 0 010 .33 78.8 78.8 0 01-9.66 3.58c-3.08 1-6.27 1.72-9.34 2.79a136.5 136.5 0 01-17 3.66c-1.2.21-2.39.43-3.59.66-2.65.24-5.27.74-7.91 1s-5.36.61-8 .82c-2.4.19-4.79.33-7.18.58-1.36.15-2.73.18-4.09.24-9.66.46-19.33.29-29 .22-3.28 0-6.58-.18-9.85-.42-3.61-.27-7.23-.47-10.84-.76-1.88-.21-3.78-.28-5.67-.54a1.68 1.68 0 01-1.17-.55z" transform="translate(8.73 -.48)"/><path class="cls-8" d="M-1.85 123.36c3.09.29 6.18.62 9.28.85 9 .67 18 1.1 27.08 1.21q13 .15 26-.68c7.32-.47 14.6-1.26 21.85-2.31l4.83-.7c.09.51-.33.5-.63.55-.54.1-1.08.22-1.62.33a2 2 0 01-.33.09c-1.35.17-2.71.34-4 .54a1.92 1.92 0 01-.32.09 14.65 14.65 0 00-1.61.17 1.67 1.67 0 01-.32.08c-.93.06-1.86.25-2.79.38a1.23 1.23 0 01-.33.08c-1.15 0-2.3.24-3.44.37a2.09 2.09 0 01-.34.08 8.09 8.09 0 00-1.7.15l-.35.08a43.2 43.2 0 00-4.54.38 1.61 1.61 0 01-.38.08c-3 .07-5.89.46-8.85.48a3.26 3.26 0 00-.75.17c-8.13.62-16.28.6-24.41.45-5.76-.11-11.53-.31-17.28-.72-4.44-.31-8.85-.63-13.27-1a1.85 1.85 0 01-1.73-1 .2.2 0 01-.05-.2z" transform="translate(8.73 -.48)"/><path class="cls-8" d="M-1.86 123.56c.91.93 2.16.66 3.25.82 1.92.29 3.88.38 5.83.5 4.77.31 9.55.59 14.33.89h.34q12.25.42 24.52.15a58.86 58.86 0 008.5-.38c1.88-.13 3.76-.2 5.63-.34 1.39-.1 2.78-.2 4.17-.33 1.63-.19 3.26-.27 4.89-.44.57-.3 1.22.08 1.78-.22h.23c1.25-.18 2.52-.26 3.78-.45 1-.17 2.09-.23 3.12-.44.56-.3 1.21.08 1.78-.22a3.27 3.27 0 011.49-.08.26.26 0 01.08.33c-1.25.35-2.54.37-3.8.63-.39.22-.82.07-1.23.11a2.43 2.43 0 00-1.19.18c-.37.13-.79-.09-1.14.16-.64.29-1.36-.08-2 .22-2.71.26-5.42.54-8.14.79s-5.67.33-8.5.59c-1.58.15-3.18.22-4.76.24-5.92.08-11.85.47-17.77.25-4.74-.18-9.47-.17-14.2-.44-2.77-.16-5.54-.26-8.3-.46-3.6-.27-7.2-.57-10.8-.88-.65-.06-1.45 0-1.87-.75z" transform="translate(8.73 -.48)"/><path class="cls-8" d="M73.83 125.78c-3.13.07-6.23.58-9.34.84-1 .09-2.06.18-3.08.22-3.58.17-7.15.4-10.72.54-8.14.34-16.28.13-24.41.12-2.54 0-5.09-.13-7.64-.17a1.61 1.61 0 00-.49-.21c-2.9-.16-5.81-.22-8.7-.48-3.77-.33-7.56-.42-11.29-1.08v-.23c.87-.25 1.7.2 2.55.13a5 5 0 001.28.11 7.45 7.45 0 001.63.11c.41.15.85.06 1.25.18s1 0 1.45 0a4.45 4.45 0 001.26.1 14.21 14.21 0 001.84.12 5.68 5.68 0 001.48.1 13.1 13.1 0 001.88.13 6.11 6.11 0 001.54.1c2.28.18 4.56.3 6.85.34a9.42 9.42 0 002 .1c1.21.17 2.43.08 3.65.13a27.23 27.23 0 003.5.09h14.45a29 29 0 003.49-.08 31.52 31.52 0 003.22-.13 8.84 8.84 0 002-.11c4.24-.09 8.46-.51 12.69-.82 1.91-.14 3.81-.4 5.72-.58a12.38 12.38 0 001.35-.15c2.91-.33 5.8-.79 8.71-1.12.5 0 1-.38 1.49-.14a.52.52 0 010 .37 19.33 19.33 0 01-3.76.64c-2 .31-3.93.56-5.89.79z" transform="translate(8.73 -.48)"/><path class="cls-8" d="M-1.84 124a3.35 3.35 0 002.08.64c3.15.27 6.31.45 9.47.7 4.3.35 8.61.48 12.93.72 2.44.12 4.87.09 7.31.15 2.77.08 5.53.3 8.31.25 4.17-.08 8.35-.25 12.53-.28 3.86 0 7.73-.35 11.59-.65 3.37-.26 6.73-.75 10.12-.86a28.72 28.72 0 01-4.89.64c-3.77.36-7.55.62-11.33.89-1.55.11-3.1.13-4.64.21-6.92.31-13.84.4-20.75.22-4.17-.12-8.34-.19-12.51-.42-3.6-.19-7.22-.33-10.8-.69-2.93-.29-5.89-.33-8.79-.86a4.52 4.52 0 01-.62-.21c-.01-.15-.01-.3-.01-.45zm2.67 1.56a9.52 9.52 0 01-2.66-.23v-.44a38 38 0 005.53.67c.38 0 .82-.13 1.15.22l-.14.09c-.32 0-.66.11-1-.09H2c-.38-.27-.83.04-1.17-.22zm166.24-40.44h-.22a.28.28 0 010-.42c1.05-1.32 2.12-2.63 3.15-4a2.36 2.36 0 00.64-1.14l1.55-2 .44-.22a32.7 32.7 0 01-3.8 5.46c-.25.31-.64.51-.64 1-.31.49-.82.82-1.12 1.32zm5.12-27.99a5.29 5.29 0 01-1.11 2.22 3.42 3.42 0 011.11-2.22zm-87.45 65.32c.73-.52 1.72-.17 2.44-.72 3.86-.8 7.72-1.57 11.57-2.4 2.24-.49 4.45-1 6.67-1.58a.26.26 0 010 .32c-1.1.67-2.4.69-3.58 1.12a13.24 13.24 0 01-1.86.55 3.67 3.67 0 00-1.5.25c-.58 0-1 .48-1.65.45a6.43 6.43 0 00-1.07.16l-.31.07a13.19 13.19 0 00-1.86.43 2.58 2.58 0 01-1.31.24 7.32 7.32 0 00-2 .5c-1.46.32-2.94.54-4.4.81a1.16 1.16 0 01-1.14-.2z" transform="translate(8.73 -.48)"/><path class="cls-8" d="M105.43 118a2.09 2.09 0 000-.25l12.23-3.8a.27.27 0 010 .33 112 112 0 01-11.63 3.8c-.21.06-.42.11-.6-.08zm14.66-4.94l8.68-3.57a.34.34 0 01.08.29 1.35 1.35 0 01-.61.47 17.4 17.4 0 00-2.3 1.11l-.26.14a3.48 3.48 0 00-1 .46 1.9 1.9 0 01-.52.24 2.43 2.43 0 00-.94.31 1.23 1.23 0 01-.26.12 2.88 2.88 0 00-.93.37 1.33 1.33 0 01-.28.1c-.58-.11-1.07.37-1.65.24a.23.23 0 01-.01-.28zm19.17-8.84l-.23.45-.08.13a5.6 5.6 0 00-.91.78c-.43.31-.83.71-1.44.48-.18-.27.08-.38.19-.54a8.85 8.85 0 012.47-1.3z" transform="translate(8.73 -.48)"/><path class="cls-8" d="M128.79 109.78a2.83 2.83 0 000-.29 20.3 20.3 0 013.31-1.54l.1.12a5.27 5.27 0 01-3.41 1.71zm8-4.26l-.21.48a.63.63 0 01-.4.44c-.73.2-1.31.8-2.11.81a.3.3 0 01-.21-.2 17.73 17.73 0 012.93-1.53zm-16.7 7.54v.28a2.27 2.27 0 01-1.11.54 2.47 2.47 0 01-1.33.34 2.45 2.45 0 000-.27 10.2 10.2 0 012.44-.89zm21.38-10.2a1.82 1.82 0 01-1.57.91 4.75 4.75 0 011.57-.91z" transform="translate(8.73 -.48)"/><path class="cls-8" d="M132.08 108a1.44 1.44 0 01.89-.45 1.71 1.71 0 00.11.14c-.19.45-.48.62-.94.38zm.92-.5a1.58 1.58 0 01.89-.45l.06.08c-.09.56-.41.66-.9.44zm19.83-11.05a23.71 23.71 0 004-2.83c.69-.49 1.31-1.07 2-1.61h.45c.1.48-.32.62-.58.84-.86.76-1.82 1.4-2.66 2.18-1.67 1.33-3.49 2.46-5.21 3.73-1.51.87-3 1.85-4.48 2.69a.62.62 0 01-.64 0 .2.2 0 010-.29c.35-.26.78-.38 1.12-.66.34-.27.78-.39 1.11-.67a6.57 6.57 0 011.78-1.11c.24-.47.74-.6 1.12-.88zm-12.91 8a23.11 23.11 0 013.78-2.22.36.36 0 01.45 0v.11a11.51 11.51 0 01-4.35 2.66c-.25-.28-.06-.41.12-.55z" transform="translate(8.73 -.48)"/><path class="cls-8" d="M144.15 102.23h-.45a3.35 3.35 0 012-1.11v.23a1.23 1.23 0 01-1.55.88zm6.68-4.44c-.26.45-.74.59-1.12.88.08-.67.6-.77 1.12-.88zm-2.9 1.99a1.37 1.37 0 01-1.11.67 1.45 1.45 0 011.11-.67zm-1.11.67a1.4 1.4 0 01-1.12.67 1.4 1.4 0 011.12-.67zm-6.9 4l-.22.45-.07.12a.85.85 0 01-.64.23.36.36 0 01-.23-.15c-.06-.24.14-.31.27-.43zm16.02-9.55c1-1.1 2.38-1.75 3.34-2.89 1.85-1.4 3.38-3.15 5.12-4.67a.29.29 0 010 .45 62.24 62.24 0 01-6.19 5.74 4.06 4.06 0 00-.93.92c-.38 0-.58.32-.89.45a.31.31 0 01-.45 0z" transform="translate(8.73 -.48)"/><path class="cls-8" d="M164.4 87.79v-.45c.36-.47.67-1 1.33-1.11-.16.77-.79 1.12-1.33 1.56zm2.45-3.11v.44l-1.11.9c.1-.67.64-1.02 1.11-1.34zM174.19 56c-.52.59-.82 1.37-1.56 1.78.31-.78.65-1.51 1.56-1.78zm-10.46 16.68v-.22l.67-.45a1.07 1.07 0 01-.67.9zM83.4 124.22V124a50.46 50.46 0 015.6-1.07c3.27-.68 6.57-1.23 9.82-2.05.4-.1.84-.35 1.26 0v.23l-5.79 1.33c-.73.22-1.49.27-2.22.44-.72 0-1.27.61-2 .45-.33.26-.78 0-1.11.22h-.22c-.34.26-.78 0-1.12.22-.41.28-.92-.06-1.33.22a2.89 2.89 0 01-1.56.23 1.75 1.75 0 01-1.33 0z" transform="translate(8.73 -.48)"/><path class="cls-8" d="M83.4 124.22h1.34a14.8 14.8 0 01-4.06.77 41.42 41.42 0 01-6.85.78 25.5 25.5 0 014-.66 53.45 53.45 0 005.57-.89zm8.67-1.33a5 5 0 012.23-.45 3.93 3.93 0 01-2.23.45zM86.29 124c.39-.39.89-.16 1.33-.22-.39.39-.89.15-1.33.22zm1.33-.22c.32-.36.74-.18 1.12-.23-.32.37-.74.18-1.12.23zm1.38-.23c.31-.36.74-.17 1.11-.22-.35.37-.78.18-1.11.22zm78.07-38.43c.11-.66.64-1 1.11-1.33v.44zm-22.92 17.11a4.75 4.75 0 001.56-.89h.66c.24-.09.27 0 .22.23l-2 1.11c-1.8.7-3.27 2-5 2.88a14.13 14.13 0 00-3.28 2l-2.67 1.34c-.26.24-.61.27-.9.44a46.48 46.48 0 01-4.22 2c-.26.25-.6.28-.9.45a.47.47 0 01-.44.21c-.52.21-1 .44-1.56.67l-1.55.66a8.79 8.79 0 01-1.34.45h-.67c0-.56.44-.59.77-.74.86-.38 1.75-.68 2.57-1.14l.29-.13a24.09 24.09 0 003.8-1.73 3 3 0 01.57-.27 12.92 12.92 0 003.43-1.7 6.14 6.14 0 011.62-.9 3.26 3.26 0 001.21-.56 1.4 1.4 0 01.26-.16 12.4 12.4 0 001.72-.93 1.35 1.35 0 01.26-.15 2.16 2.16 0 001.08-.48 19.72 19.72 0 004.51-2.66zm11.79-7.33h.45a32 32 0 01-5.34 3.77c-.08.1-.16.1-.23 0z" transform="translate(8.73 -.48)"/><path class="cls-8" d="M150.82 98.67h.23a39.51 39.51 0 01-4.46 2.89l-.22-.23a30.25 30.25 0 014.45-2.66zM125.68 112c-1 .91-2.49 1-3.56 1.78-2.43.87-4.84 1.78-7.28 2.6q-5.64 1.91-11.42 3.4a.86.86 0 01-.89 0c2.74-.81 5.48-1.61 8.21-2.45 3.37-1 6.72-2.15 10-3.52.23-.1.48-.17.73-.25 1.06-1 2.49-1.15 3.73-1.73a.48.48 0 01.48.17z" transform="translate(8.73 -.48)"/><path class="cls-8" d="M102.53 119.78h.89c-.41.46-1.11.26-1.55.66-.58.24-1.2.27-1.78.45a55 55 0 00-6 1.22c-3.19.55-6.35 1.25-9.52 1.86a8.29 8.29 0 01-1.22 0l-1.34.22c-.08 0-.1-.1-.08-.15s0-.07.08-.07c2-.53 4-.74 6.06-1.11q7.31-1.26 14.46-3.08zm23.15-7.11a2.27 2.27 0 011.56-.67 2.27 2.27 0 01-1.56.67zm-2.89 1.11a2.11 2.11 0 011.33-.44 1.46 1.46 0 01-1.33.44zm10.01-4.44a1.25 1.25 0 01.89-.45.79.79 0 01-.89.45zm-5.12 2.44a1.21 1.21 0 01.9-.44.81.81 0 01-.9.44z" transform="translate(8.73 -.48)"/><path class="cls-8" d="M100.09 120.89a3.34 3.34 0 011.78-.44 2.57 2.57 0 01-1.78.44zM82.06 124v.22l-7.69 1c-.4.06-.81 0-1.21.07-.33.26-.78 0-1.11.22l-8.88.85c-1 .1-2.06.15-3.08.22a54.11 54.11 0 01-6.74.27c-.56.29-1.21-.08-1.78.22h-3.33c-1.1.31-2.25-.1-3.34.22H30.21c-1.1-.32-2.24.09-3.34-.22h-3.78c-.57-.3-1.22.07-1.78-.22-2.38.15-4.75-.21-7.12-.23-.41-.28-.93.06-1.34-.22h-2c-.41-.28-.93.06-1.34-.22h-2c-.33-.27-.78 0-1.11-.22H4.84c-.07 0-.1-.09-.08-.14s0-.08.08-.08c4.54 0 9.06.49 13.59.74 5.73.31 11.45.38 17.18.38 4.22 0 8.45.09 12.67 0 4.83-.13 9.65-.44 14.47-.81 3.48-.27 7-.6 10.44-1 2.49-.26 5-.68 7.43-1a13.9 13.9 0 011.44-.05zm10.24-2.89a3.75 3.75 0 001.33-.22c.66-.19 1.35-.24 2-.44.33-.27.78 0 1.11-.22.65.08 1.1-.64 1.78-.45a6.06 6.06 0 011.33-.22 4.27 4.27 0 001.79-.66c.33.29.79-.14 1.11.21a37.24 37.24 0 01-6.71 1.76c-3.64.77-7.3 1.45-11 2.15a15.08 15.08 0 00-2.82.53c-.11-.15-.34-.06-.44-.22v-.22c.89-.53 2-.31 2.89-.66a25.5 25.5 0 005.56-.9c.77-.19 1.42-.24 2.07-.44z" transform="translate(8.73 -.48)"/><path class="cls-8" d="M102.76 119.11c-.38 0-.8.14-1.12-.21a30.7 30.7 0 003.79-.9c3.55-.86 7-2.07 10.45-3.21.59-.2 1.19-.38 1.79-.57l1.33-.44a.13.13 0 01.06.15s0 .08-.06.08a82.76 82.76 0 01-8.81 3.08 67.92 67.92 0 01-7.43 2.02zm22.92-7.11c-1.5.29-2.77 1.18-4.22 1.55v-.22c-.13-.43.34-.25.44-.44.32-.28.77-.23 1.11-.45.33-.27.77-.22 1.12-.44l.44-.23c.36-.18.77-.24 1.11-.44.77-.51 1.7-.69 2.47-1.19 2.76-1.12 5.36-2.54 8-3.92l.44-.22a2.42 2.42 0 001.33-.67c.29-.12.52-.49.89-.22.14.25-.1.32-.22.44-.63.44-1.39.65-2 1.11a7.67 7.67 0 01-1.34.68l-1.56.88a35.73 35.73 0 01-3.56 1.77l-.44.23-4 1.78z" transform="translate(8.73 -.48)"/><path class="cls-8" d="M121.9 112.9l-.45.44c-.89 0-1.57.66-2.45.67v-.23a2.24 2.24 0 011.12-.44 3.64 3.64 0 011.78-.44zm-40.06 10.43a.5.5 0 01.44.22c-1.42 0-2.79.53-4.22.45a19.19 19.19 0 013.78-.67zm-9.35 1.34c.63-.44 1.34-.13 2-.22-.62.43-1.33.12-2 .22zm2.01-.23c.31-.36.73-.17 1.11-.22a.31.31 0 01.44 0c-.47.42-1.05.14-1.55.22zm2.22-.44h1.34c-.4.39-.89.15-1.34.22-.08 0-.1-.1-.08-.15s.05-.07.08-.07z" transform="translate(8.73 -.48)"/><path class="cls-8" d="M76.72 124v.22h-1.11c.31-.36.73-.17 1.11-.22zm-12.02.89a9.84 9.84 0 01-3.33.38 41 41 0 01-6.46.28 1.67 1.67 0 01.48-.21zm20.04-2.44a10.35 10.35 0 01-2.9.66h-1.56a17.69 17.69 0 014.46-.66z" transform="translate(8.73 -.48)"/><path class="cls-8" d="M69.6 124.44a20.66 20.66 0 01-4.9.45 19.21 19.21 0 014.9-.45zm5.78-.66a12.35 12.35 0 01-3.78.44 12.05 12.05 0 013.78-.44zm3.12-.45a7.52 7.52 0 01-3.12.45 9.18 9.18 0 013.12-.45zm-7.12.89c-.55.44-1.19.13-1.78.22.54-.44 1.18-.13 1.78-.22zm8.9-1.11c-.55.44-1.19.13-1.78.22.55-.43 1.19-.13 1.78-.22zm-53.41 4c1.11.13 2.25-.26 3.34.22-1.11-.12-2.21.27-3.34-.22zm18.03.22c1.08-.48 2.23-.1 3.34-.22-1.09.49-2.24.1-3.34.22zm-23.59-.44c.59.09 1.23-.22 1.78.22-.59-.11-1.23.21-1.78-.22zm30.26.21c.55-.43 1.19-.12 1.78-.22-.54.44-1.19.12-1.78.22zm-42.06-.88c.45.07 1-.17 1.34.22-.45-.06-.95.18-1.34-.22zm3.34.22c.45.07.94-.17 1.34.22-.45-.06-.95.18-1.34-.22zM6.4 126c.38 0 .8-.14 1.11.22-.38-.05-.8.14-1.11-.22zm-5.57-.44c.38 0 .8-.15 1.12.22-.38-.05-.8.14-1.12-.22zm4.01.22v.22c-.38 0-.8.14-1.12-.22zm67.21-.23c.31-.36.73-.17 1.11-.22-.31.37-.74.18-1.11.22zm20.25-4.44a3.59 3.59 0 01-2 .45 3.56 3.56 0 012-.45zm3.34-.66a3.6 3.6 0 01-2 .44 3.52 3.52 0 012-.44zm4.22-.9a2.26 2.26 0 01-1.33.22 1.38 1.38 0 011.33-.22zm-3.11.68c-.31.35-.74.17-1.11.22.36-.37.73-.18 1.11-.22zm39.39-14c-.16.38-.54.48-.86.64l-6 3a2.15 2.15 0 01-1.14.35c-.07 0-.09-.1-.07-.15s0-.07.07-.07l.66-.22a34.5 34.5 0 003.35-1.77l1.78-.9z" transform="translate(8.73 -.48)"/><path class="cls-8" d="M128.13 110v.22a5.87 5.87 0 01-2.45 1.11c.6-.84 1.67-.81 2.45-1.33zm-5.13 2.45a1.3 1.3 0 01-1.11.44c.23-.51.69-.44 1.11-.44zm1.12-.45a1.3 1.3 0 01-1.11.44c.22-.51.68-.44 1.11-.44zm1.56-.66a1.3 1.3 0 01-1.11.44 1.27 1.27 0 011.11-.44zm13.13-6.23l-.89.23a1.37 1.37 0 011.11-.67c-.03.15-.15.33-.22.44zm-.22.45l.22-.44.89-.22a1.41 1.41 0 01-1.11.66zM125.68 112a14 14 0 014-1.78 13.23 13.23 0 01-4 1.78zm4.45-2a16.42 16.42 0 013.56-1.77 8.53 8.53 0 01-3.56 1.77zm6.45-3.33a3.86 3.86 0 012-1.11 3.86 3.86 0 01-2 1.11zm-1.33.67a2.42 2.42 0 011.33-.67 1.43 1.43 0 01-1.33.67z" transform="translate(8.73 -.48)"/><rect class="cls-1" x="9.18" y=".12" width="128" height="128" rx="7.96"/></g><path class="cls-8" d="M23.1 49.91a7.18 7.18 0 01-.1 1 5.37 5.37 0 01-.26 1c-.1.27-.22.4-.35.4a.55.55 0 01-.34-.23 3.39 3.39 0 00-.51-.49 3.47 3.47 0 00-.8-.5 3 3 0 00-1.21-.09 2.81 2.81 0 00-1.47.41 4.7 4.7 0 00-1.18 1.09A7.78 7.78 0 0016 54a13.1 13.1 0 00-.64 1.82A13.61 13.61 0 0015 57.7a11.45 11.45 0 00-.13 1.75 6.55 6.55 0 00.13 1.71 3.67 3.67 0 00.54 1.23 2.4 2.4 0 00.88.73 2.79 2.79 0 001.17.24 3.69 3.69 0 001.32-.21 4.47 4.47 0 00.93-.46 5.75 5.75 0 00.64-.46A.81.81 0 0121 62a.19.19 0 01.19.13 1.14 1.14 0 01.05.37v.29c0 .13 0 .28-.06.44s0 .34-.07.53-.06.36-.1.53a3.19 3.19 0 01-.13.44 1 1 0 01-.19.36 2.16 2.16 0 01-.46.39 4.61 4.61 0 01-.85.45 7.09 7.09 0 01-1.13.36 6 6 0 01-1.34.15 5.47 5.47 0 01-2.12-.4 4.14 4.14 0 01-1.61-1.23 5.89 5.89 0 01-1-2 10.16 10.16 0 01-.36-2.9 18.63 18.63 0 01.2-2.69 18.3 18.3 0 01.63-2.73 14 14 0 011.06-2.53 9.12 9.12 0 011.51-2.09 6.82 6.82 0 012-1.43 5.69 5.69 0 012.47-.53 5 5 0 011.44.2 4.21 4.21 0 011.18.54 2.73 2.73 0 01.71.6 1.2 1.2 0 01.08.66zm13.46 4.28a20.83 20.83 0 01-.17 2.62 18.75 18.75 0 01-.56 2.76 14.62 14.62 0 01-1 2.62 9.38 9.38 0 01-1.53 2.21 7.06 7.06 0 01-2.11 1.52 7.1 7.1 0 01-5.08.19 4.08 4.08 0 01-1.7-1.11 5.09 5.09 0 01-1-2 10 10 0 01-.41-2.78 24.86 24.86 0 01.18-2.73 17.85 17.85 0 01.58-2.8 14.6 14.6 0 011-2.61 9.77 9.77 0 011.54-2.18 6.79 6.79 0 012.1-1.5 7.15 7.15 0 015.05-.16 4.13 4.13 0 011.69 1.17 5.29 5.29 0 011 2 9.82 9.82 0 01.42 2.78zm-3 .35A7.15 7.15 0 0033.4 53a3 3 0 00-.47-1.16 2.17 2.17 0 00-.85-.74 3.26 3.26 0 00-2.94.22 4.53 4.53 0 00-1.25 1.22 7.1 7.1 0 00-.89 1.72 14.71 14.71 0 00-.58 2 18.21 18.21 0 00-.31 1.94q-.09.95-.09 1.65a8.06 8.06 0 00.15 1.55 3.06 3.06 0 00.48 1.15 2.12 2.12 0 00.85.72 3.37 3.37 0 002.96-.27 4.6 4.6 0 001.24-1.21 7.61 7.61 0 00.88-1.7 13.56 13.56 0 00.57-2 16 16 0 00.31-1.94q.09-.94.09-1.68zm20.21 11.95a.88.88 0 01-.1.27.57.57 0 01-.24.19 1.65 1.65 0 01-.45.11 6.83 6.83 0 01-1.43 0 1.6 1.6 0 01-.43-.11.44.44 0 01-.19-.19.62.62 0 010-.27L53.32 51 47 65.66a.74.74 0 01-.5.47 3.84 3.84 0 01-1.06.12 2.5 2.5 0 01-1-.16c-.2-.11-.31-.24-.31-.4l-1.71-14.08-2.31 14.07a.8.8 0 01-.09.26.58.58 0 01-.23.18 1.6 1.6 0 01-.42.1 5.27 5.27 0 01-.68 0 4.92 4.92 0 01-.67 0 1.31 1.31 0 01-.4-.1.37.37 0 01-.19-.18.46.46 0 010-.26l2.49-16a2.66 2.66 0 01.17-.63 1.72 1.72 0 01.28-.47 1.21 1.21 0 01.39-.28 4.53 4.53 0 00.46-.3H43a2.78 2.78 0 01.81.11 1.16 1.16 0 01.55.35 1.74 1.74 0 01.33.65 5.29 5.29 0 01.15 1l1.37 10.59L51 50.05c.13-.32.27-.63.43-.94a3 3 0 01.48-.65 1.73 1.73 0 01.59-.37 2.53 2.53 0 01.77-.12h2.14a1 1 0 01.49.11.74.74 0 01.33.3 1.17 1.17 0 01.15.48 2.92 2.92 0 010 .66zM68.25 52.9a9.39 9.39 0 01-.13 1.59 8.33 8.33 0 01-.43 1.63 7.16 7.16 0 01-.77 1.51 5.34 5.34 0 01-1.15 1.27 5.44 5.44 0 01-1.6.88 6.61 6.61 0 01-2.12.32h-1.44l-.88 5.64a.51.51 0 01-.1.24.54.54 0 01-.27.18 1.8 1.8 0 01-.46.1 5.07 5.07 0 01-.68 0 4.82 4.82 0 01-.65 0 1.45 1.45 0 01-.41-.1A.41.41 0 0157 66a.39.39 0 010-.26l2.47-15.87a1.75 1.75 0 01.42-1 1 1 0 01.78-.32h3c.33 0 .66 0 1 .05a5 5 0 01.86.16 3.8 3.8 0 011.17.5 3.35 3.35 0 01.87.85 4.11 4.11 0 01.56 1.2 5.85 5.85 0 01.12 1.59zm-2.9.09a2.54 2.54 0 00-.25-1.15 1.36 1.36 0 00-.77-.68 1.74 1.74 0 00-.5-.12 4.44 4.44 0 00-.63 0H62l-1 6.02h1.29a2.52 2.52 0 001.81-.67 2.59 2.59 0 00.56-.72 5.1 5.1 0 00.59-1.78 6.82 6.82 0 00.07-.9zM80.49 52a8.43 8.43 0 01-.19 1.81 6.65 6.65 0 01-.62 1.7 5.47 5.47 0 01-1.09 1.44A5 5 0 0177 58a2.09 2.09 0 01.9 1.07 9.08 9.08 0 01.59 2.21L79 65c0 .21.06.39.07.56a3 3 0 010 .42.4.4 0 01-.07.24.56.56 0 01-.26.17 2.09 2.09 0 01-.51.09h-.83a6.28 6.28 0 01-.75 0 1.24 1.24 0 01-.43-.11.39.39 0 01-.21-.21 1 1 0 01-.07-.3l-.56-4.09a8.76 8.76 0 00-.24-1.26 3.25 3.25 0 00-.38-.9 1.58 1.58 0 00-.57-.55 1.88 1.88 0 00-.81-.18h-.91l-1.1 7a.56.56 0 01-.11.26.64.64 0 01-.27.19 2.05 2.05 0 01-.48.1 5.53 5.53 0 01-.71 0 5.32 5.32 0 01-.69 0 1.58 1.58 0 01-.43-.1.46.46 0 01-.21-.18.36.36 0 010-.27l2.62-16.76a1.51 1.51 0 01.39-.91 1 1 0 01.71-.28h3.85a7 7 0 011.83.24 3.73 3.73 0 011.4.75 3.37 3.37 0 01.89 1.25 4.74 4.74 0 01.33 1.83zm-3.31.73a2.34 2.34 0 00-.09-.69 1.41 1.41 0 00-.32-.54 1.29 1.29 0 00-.56-.36 2.36 2.36 0 00-.83-.13h-1.53l-.76 4.85h1.29a2.66 2.66 0 001.3-.28 2.59 2.59 0 00.87-.74 3 3 0 00.48-1 4.26 4.26 0 00.15-1.12zM84 65.68a.6.6 0 01-.11.26.64.64 0 01-.27.18 1.8 1.8 0 01-.46.1 6 6 0 01-1.38 0 1.6 1.6 0 01-.42-.1.43.43 0 01-.21-.19.36.36 0 010-.25l2.66-17a.39.39 0 01.1-.25.71.71 0 01.27-.18 1.8 1.8 0 01.46-.1 5.8 5.8 0 011.36 0 1.43 1.43 0 01.42.1.37.37 0 01.21.18.54.54 0 010 .25zm15.05-17.12a2.14 2.14 0 010 .32 4.79 4.79 0 010 .49c0 .18-.06.36-.1.56a5 5 0 01-.14.52 1.5 1.5 0 01-.2.4.3.3 0 01-.25.15h-3.64l-2.28 14.7a.62.62 0 01-.12.26.61.61 0 01-.27.18 2.6 2.6 0 01-.46.12 5.63 5.63 0 01-.71 0 5.32 5.32 0 01-.69 0 1.62 1.62 0 01-.43-.12.37.37 0 01-.19-.18.39.39 0 010-.26L91.82 51h-3.53a.22.22 0 01-.23-.15 1.22 1.22 0 01-.06-.42 2.38 2.38 0 010-.34v-.49c0-.18.06-.37.1-.56a4.61 4.61 0 01.15-.53 1.54 1.54 0 01.2-.38.3.3 0 01.24-.15h10a.23.23 0 01.2.15 1.08 1.08 0 01.16.43zm9.05 16.09a5.29 5.29 0 01.05.8.57.57 0 01-.15.43.7.7 0 01-.48.18 7.54 7.54 0 01-.92 0 6.34 6.34 0 01-.67 0 1.86 1.86 0 01-.41-.08.35.35 0 01-.19-.17 1 1 0 01-.07-.3l-.38-3.62h-5.26l-1.46 3.54a1.41 1.41 0 01-.17.32.63.63 0 01-.28.2 1.71 1.71 0 01-.49.1h-.77a6.79 6.79 0 01-.78 0 .48.48 0 01-.37-.21.63.63 0 010-.45 6.09 6.09 0 01.28-.78l6.81-16a2.42 2.42 0 01.21-.39.68.68 0 01.31-.22 2.05 2.05 0 01.54-.1h1.9a2.2 2.2 0 01.58.1.49.49 0 01.28.23 1.42 1.42 0 01.08.42zm-4.22-13l-3.23 7.88h4.06zm15.87-2.1a2.14 2.14 0 010 .32v.46c0 .17-.05.33-.08.51a3.59 3.59 0 01-.12.47 1.65 1.65 0 01-.16.36.23.23 0 01-.18.14.68.68 0 01-.38-.18c-.18-.13-.37-.26-.56-.37a4.68 4.68 0 00-.78-.38 2.65 2.65 0 00-1-.17 2.13 2.13 0 00-1 .21 1.83 1.83 0 00-.66.54 2.44 2.44 0 00-.39.77 3.58 3.58 0 00-.13.86 1.89 1.89 0 00.2.88 2.76 2.76 0 00.52.71 6.32 6.32 0 00.74.63l.85.64c.28.23.56.47.84.73a4.67 4.67 0 011.27 2.12 5.78 5.78 0 01.19 1.55 6.93 6.93 0 01-.41 2.43 5.8 5.8 0 01-1.17 2 5.4 5.4 0 01-1.88 1.22 5.87 5.87 0 01-2.37.47 5.64 5.64 0 01-1.3-.15 5.49 5.49 0 01-1.06-.35 5 5 0 01-.78-.44 2.13 2.13 0 01-.46-.44 1 1 0 01-.15-.62 2.38 2.38 0 010-.34 4.49 4.49 0 01.06-.48 5.34 5.34 0 01.09-.53 4.43 4.43 0 01.13-.49 1.49 1.49 0 01.17-.36.25.25 0 01.2-.14.77.77 0 01.44.22c.2.16.41.32.64.47a5.1 5.1 0 00.89.48 3.14 3.14 0 001.25.22 2.69 2.69 0 001.12-.21 2.3 2.3 0 001.3-1.41 3.12 3.12 0 00.17-1.05 1.88 1.88 0 00-.2-.9 2.61 2.61 0 00-.51-.72 5.35 5.35 0 00-.72-.62c-.28-.19-.55-.4-.83-.63a9.3 9.3 0 01-.83-.72 4.56 4.56 0 01-.73-.91 5.28 5.28 0 01-.51-1.2 6.08 6.08 0 01-.2-1.59 7 7 0 01.39-2.3 5.45 5.45 0 011.09-1.82 4.76 4.76 0 011.66-1.18 5.2 5.2 0 012.13-.43 5.05 5.05 0 011 .11 5.65 5.65 0 01.89.26 3.36 3.36 0 01.68.35 3.09 3.09 0 01.39.33.76.76 0 01.15.28 1.15 1.15 0 01.1.39zm-45.6-25.79zm-.09.48a11.3 11.3 0 01.44-1.71.32.32 0 010-.09H55.76v2.64h18.16c.08-.28.08-.56.14-.84z" transform="translate(8.73 -.48)"/><path d="M64.77 39.18a3.13 3.13 0 103.13-3.13 3.13 3.13 0 00-3.13 3.13zm-9.63 0a3.13 3.13 0 103.13-3.13 3.14 3.14 0 00-3.13 3.13zm17.78-9.77H58.07l-3.15-12h20.93a1.49 1.49 0 010-.21v-.37a1.51 1.51 0 01.08-.48 8.28 8.28 0 01.32-1.21h-24l4 15.19A2 2 0 0058 31.9h14.35c.17-.83.36-1.66.57-2.49z" transform="translate(8.73 -.48)" fill="#03517e"/><path class="cls-8" d="M72.12 33.26H55.58l-5.89-22.74v-.28H49l-5.88-2.09A1 1 0 0042 9a1.2 1.2 0 00.74 1.41L48 11.86l5.93 22.89a1 1 0 00.94.83h.08l.07-.06h16.87a21.36 21.36 0 01.23-2.26z" transform="translate(8.73 -.48)"/></g></g></g></g></svg>