<svg xmlns="http://www.w3.org/2000/svg" viewBox="0 0 273.35 66.88"><defs><style>.cls-1{fill:#f1c413}.cls-4{isolation:isolate;font-size:25.37px;fill:#215565;font-family:Montserrat-SemiBoldItalic,Montserrat;font-weight:600;font-style:italic;letter-spacing:.58em}</style></defs><g id="Capa_2" data-name="Capa 2"><g id="Capa_1-2" data-name="Capa 1"><path class="cls-1" d="M94.62 15.85a7.15 7.15 0 01-.18 1.29 5.45 5.45 0 01-.44 1.32c-.18.33-.38.5-.62.5a.93.93 0 01-.58-.29 8.54 8.54 0 00-.9-.64 7.49 7.49 0 00-1.4-.65 6.83 6.83 0 00-2.12-.28 6.24 6.24 0 00-2.57.51A7.53 7.53 0 0083.73 19a9.59 9.59 0 00-1.59 1.94A12.48 12.48 0 0081 23.2a14.41 14.41 0 00-.66 2.37 12.43 12.43 0 00-.23 2.19 6.32 6.32 0 00.34 2.15 3.89 3.89 0 001 1.63 4 4 0 001.54.92 6.42 6.42 0 002.06.3 8.42 8.42 0 002.3-.26 10.82 10.82 0 001.63-.57c.45-.21.82-.41 1.12-.58a1.62 1.62 0 01.8-.27.35.35 0 01.33.17 1.09 1.09 0 01.09.47 2.16 2.16 0 010 .36 4.6 4.6 0 01-.09.56c0 .2-.09.42-.14.64a4.94 4.94 0 01-.17.64 3.83 3.83 0 01-.22.56 1.41 1.41 0 01-.33.45 4.17 4.17 0 01-.82.5A8.73 8.73 0 0188 36a17.64 17.64 0 01-2 .44 14.15 14.15 0 01-2.35.19 12.83 12.83 0 01-3.65-.51 7.48 7.48 0 01-2.81-1.54A6.78 6.78 0 0175.38 32a9.49 9.49 0 01-.63-3.63 16.13 16.13 0 01.36-3.37 17.29 17.29 0 011.09-3.43 15.83 15.83 0 011.85-3.22 12.82 12.82 0 016.15-4.42 13.19 13.19 0 014.32-.65 12.19 12.19 0 012.5.26 8.61 8.61 0 012.07.64 4.79 4.79 0 011.24.76 1.15 1.15 0 01.29.91zm23.54 5.39a19.16 19.16 0 01-.29 3.29 18.2 18.2 0 01-1 3.47 16.08 16.08 0 01-1.79 3.3 12.34 12.34 0 01-2.69 2.77 12.67 12.67 0 01-3.68 1.93 15.3 15.3 0 01-4.84.72 15.59 15.59 0 01-4.05-.47 8 8 0 01-3-1.45 6.1 6.1 0 01-1.79-2.47 9.24 9.24 0 01-.62-3.5 20.84 20.84 0 01.32-3.43 18 18 0 011-3.52 15.94 15.94 0 011.79-3.28 12.9 12.9 0 012.69-2.74 12.4 12.4 0 013.73-1.86 16.91 16.91 0 018.82-.21 7.85 7.85 0 012.95 1.46 6.18 6.18 0 011.79 2.5 9.3 9.3 0 01.66 3.49zm-5.26.44a7 7 0 00-.26-1.93 3.48 3.48 0 00-.83-1.46 3.68 3.68 0 00-1.48-.91 7.7 7.7 0 00-5.15.26 7.52 7.52 0 00-2.18 1.53 9 9 0 00-1.56 2.16 15.81 15.81 0 00-1.54 4.93 14.48 14.48 0 00-.16 2.06 6.65 6.65 0 00.25 1.93 3.44 3.44 0 00.83 1.45 3.85 3.85 0 001.51.9 7.74 7.74 0 005.14-.27 7.37 7.37 0 002.18-1.51 8.91 8.91 0 001.54-2.14 14.67 14.67 0 001-2.45 15.79 15.79 0 00.55-2.43 17.43 17.43 0 00.16-2.12zm35.37 15.01a1.24 1.24 0 01-.18.34.79.79 0 01-.41.23 3.56 3.56 0 01-.79.15h-2.51a3 3 0 01-.74-.15.61.61 0 01-.34-.23.65.65 0 010-.34l4.21-19.47-11.12 18.43a1.25 1.25 0 01-.9.59 8.07 8.07 0 01-1.84.15 5.63 5.63 0 01-1.79-.2.75.75 0 01-.57-.5L128.4 18l-4 17.67a.66.66 0 01-.16.31 1 1 0 01-.4.23 3.7 3.7 0 01-.74.13 11.73 11.73 0 01-1.19 0 11.43 11.43 0 01-1.17 0 3.21 3.21 0 01-.7-.13.49.49 0 01-.32-.23.34.34 0 010-.31l4.36-20.17a2.92 2.92 0 01.28-.78 2 2 0 01.49-.58 2.1 2.1 0 01.68-.36c.28-.11.55-.24.81-.37h3.16a6.66 6.66 0 011.41.12 2.48 2.48 0 011 .45 2 2 0 01.57.82 4.24 4.24 0 01.27 1.21l2.37 13.4h.09L143.52 16a10.51 10.51 0 01.75-1.17 4.09 4.09 0 01.84-.82 3.73 3.73 0 011-.47 5.45 5.45 0 011.34-.14h3.74a2.68 2.68 0 01.9.12 1.36 1.36 0 01.56.38 1.2 1.2 0 01.27.65 2.82 2.82 0 010 .82zm25.33-17.08a9.69 9.69 0 01-.24 2 7.92 7.92 0 01-.75 2.05 9.52 9.52 0 01-1.34 1.9 8.57 8.57 0 01-2 1.59 10.76 10.76 0 01-2.77 1.1 15.37 15.37 0 01-3.72.4h-2.51l-1.54 7.08a.57.57 0 01-.19.31 1.1 1.1 0 01-.46.22 4.31 4.31 0 01-.8.13h-2.34a3.21 3.21 0 01-.7-.13.68.68 0 01-.36-.21.36.36 0 010-.32l4.32-20a1.93 1.93 0 01.73-1.21 2.25 2.25 0 011.38-.4h5.26c.57 0 1.15 0 1.72.06a15.19 15.19 0 011.51.19 8.31 8.31 0 012 .65 5.05 5.05 0 011.53 1.07 4.29 4.29 0 011 1.5 5.59 5.59 0 01.27 2.02zm-5.08.12a2.4 2.4 0 00-.43-1.44 2.32 2.32 0 00-1.34-.85 3.69 3.69 0 00-.89-.16 9.94 9.94 0 00-1.09-.05h-2.19L161 24.85h2.25a6.24 6.24 0 001.84-.24 4.88 4.88 0 001.31-.61 4 4 0 001-.91A5 5 0 00168 22a5.5 5.5 0 00.37-1.15 6.73 6.73 0 00.12-1.09zM195 18.48a7.66 7.66 0 01-.34 2.27 6.93 6.93 0 01-1.07 2.14 8.13 8.13 0 01-1.92 1.81 9.89 9.89 0 01-2.86 1.3 3.12 3.12 0 011.57 1.35 9.43 9.43 0 011 2.77l1 4.72c.05.26.09.5.13.71a3.1 3.1 0 010 .53.41.41 0 01-.13.3 1.09 1.09 0 01-.46.21 5.28 5.28 0 01-.89.11h-2.69a4 4 0 01-.77-.14.67.67 0 01-.36-.26 1.39 1.39 0 01-.12-.38l-1-5.15a7.89 7.89 0 00-.41-1.57 3.89 3.89 0 00-.67-1.14 2.54 2.54 0 00-1-.68 3.81 3.81 0 00-1.4-.23h-1.6L179.17 36a.64.64 0 01-.2.32 1.16 1.16 0 01-.47.24 5.74 5.74 0 01-.83.13c-.41 0-.83.05-1.24.05s-.82 0-1.22-.05a3.47 3.47 0 01-.74-.13.84.84 0 01-.38-.23.38.38 0 010-.33l4.58-21.09a1.79 1.79 0 01.69-1.14 2.22 2.22 0 011.24-.34h6.75a15.4 15.4 0 013.19.3 7.74 7.74 0 012.45.93 4.61 4.61 0 011.56 1.58 4.43 4.43 0 01.45 2.24zm-5.79.91a2.36 2.36 0 00-.17-.87 1.76 1.76 0 00-.55-.68 2.86 2.86 0 00-1-.46 5.89 5.89 0 00-1.46-.15h-2.68l-1.32 6.1h2.25a6.7 6.7 0 002.32-.33 4.51 4.51 0 001.52-.92 3.59 3.59 0 00.83-1.26 4.29 4.29 0 00.27-1.4zm11.94 16.3a.64.64 0 01-.15.31 1.38 1.38 0 01-.47.23 5.34 5.34 0 01-.8.13h-2.42a3.7 3.7 0 01-.74-.13.74.74 0 01-.35-.23.34.34 0 010-.31l4.64-21.41A.55.55 0 01201 14a1.26 1.26 0 01.48-.23 4.18 4.18 0 01.8-.13 11.93 11.93 0 011.2 0 11.63 11.63 0 011.18 0 3.7 3.7 0 01.74.13.61.61 0 01.36.23.42.42 0 010 .31zm26.33-21.53v.4a3.6 3.6 0 01-.1.64 7.16 7.16 0 01-.17.7 3.16 3.16 0 01-.25.64 1.82 1.82 0 01-.35.5.6.6 0 01-.43.19h-6.27l-4 18.48a.75.75 0 01-.21.32 1.09 1.09 0 01-.47.23 4.29 4.29 0 01-.81.14q-.61.06-1.23.06a12.1 12.1 0 01-1.19-.06 3.11 3.11 0 01-.75-.14.62.62 0 01-.35-.23.45.45 0 010-.32l4-18.48h-6.19a.41.41 0 01-.39-.19 1.29 1.29 0 01-.1-.54v-.42a5.1 5.1 0 01.1-.64 5.65 5.65 0 01.17-.71 3.18 3.18 0 01.26-.64 1.8 1.8 0 01.34-.49.6.6 0 01.43-.19H227a.4.4 0 01.36.2 1.08 1.08 0 01.12.55zm15.84 20.23a8.44 8.44 0 01.09 1 .68.68 0 01-.27.55 1.71 1.71 0 01-.85.22c-.53 0-1.07.05-1.61.05h-1.17a3.38 3.38 0 01-.71-.1.61.61 0 01-.34-.2.82.82 0 01-.11-.39l-.67-4.52h-9.21l-2.54 4.45a1.9 1.9 0 01-.3.4 1.14 1.14 0 01-.5.26 4.43 4.43 0 01-.89.12h-1.36a12.27 12.27 0 01-1.36 0 .93.93 0 01-.64-.25.58.58 0 010-.57 5.55 5.55 0 01.48-1l11.91-20.07a2.48 2.48 0 01.38-.49 1.31 1.31 0 01.54-.27 3.69 3.69 0 01.95-.12h3.35a3.9 3.9 0 011 .09.7.7 0 01.47.28 1.28 1.28 0 01.15.53zM235.93 18l-5.65 9.91h7.11zm27.72-2.6v.4a1.4 1.4 0 01-.09.58c-.09.21-.08.43-.15.64a3.52 3.52 0 01-.2.6 1.53 1.53 0 01-.28.45.45.45 0 01-.32.17A1.4 1.4 0 01262 18a9.22 9.22 0 00-1-.47 8.61 8.61 0 00-1.35-.47 6.32 6.32 0 00-1.79-.22 5.28 5.28 0 00-1.74.26 3.39 3.39 0 00-1.17.69 2.78 2.78 0 00-.88 2 1.79 1.79 0 00.34 1.11 3.76 3.76 0 00.89.89 11.24 11.24 0 001.3.79l1.49.81c.5.28 1 .58 1.48.92a6.83 6.83 0 011.29 1.15 5.12 5.12 0 01.9 1.51 5.17 5.17 0 01.34 1.93 6.51 6.51 0 01-.72 3 7.43 7.43 0 01-2 2.45 9.66 9.66 0 01-3.18 1.63 13.49 13.49 0 01-4.13.6 12.27 12.27 0 01-2.27-.18 14.23 14.23 0 01-1.85-.44 10.21 10.21 0 01-1.36-.56 3.39 3.39 0 01-.81-.55 1 1 0 01-.26-.79v-.41a2.87 2.87 0 01.1-.61 4.28 4.28 0 01.16-.64 3.15 3.15 0 01.23-.65 1.61 1.61 0 01.3-.45.43.43 0 01.34-.18 1.61 1.61 0 01.78.27 11.46 11.46 0 001.1.59 9.84 9.84 0 001.57.61 7.28 7.28 0 002.19.28 6.72 6.72 0 002-.26 4.17 4.17 0 001.41-.72 2.91 2.91 0 001.19-2.38 2 2 0 00-.35-1.14 3.63 3.63 0 00-.9-.89 8.45 8.45 0 00-1.27-.78c-.48-.25-1-.51-1.45-.79s-1-.59-1.45-.91a6.41 6.41 0 01-1.38-1 5.12 5.12 0 01-.9-1.51 5.28 5.28 0 01-.34-2 6.24 6.24 0 01.68-2.9 6.81 6.81 0 011.9-2.29 9.18 9.18 0 012.89-1.48 12.14 12.14 0 013.72-.54 11.89 11.89 0 011.79.14 12.9 12.9 0 011.55.33 5.94 5.94 0 011.2.45 3.48 3.48 0 01.68.4 1.14 1.14 0 01.27.36 1 1 0 01.12.44zM62.67 30.34zm-.19.94a19.33 19.33 0 01.84-3.35l.06-.16H26.72v5.15H62.2c.09-.54.19-1.13.28-1.64z"/><path d="M44.32 60.46a6.11 6.11 0 106.12-6.1 6.12 6.12 0 00-6.12 6.1zm-18.79 0a6.11 6.11 0 106.14-6.11 6.11 6.11 0 00-6.14 6.11zm34.73-19.07h-29L25.1 18H66a2.8 2.8 0 010-.41v-.73a2.51 2.51 0 01.15-.94 17.43 17.43 0 01.62-2.36H19.88l7.79 29.64a3.8 3.8 0 003.51 3h28c.29-1.58.67-3.2 1.08-4.81z" fill="#03517e"/><path class="cls-1" d="M58.67 48.9H26.38L14.87 4.48v-.06a.28.28 0 010-.13v-.1a.17.17 0 010-.1.2.2 0 010-.11.08.08 0 010-.07l-.07-.11v-.08l-.07-.09-.06-.07-.07-.08-.07-.08-.07-.06s-.05-.06-.08-.07l-.07-.06-.09-.06h-.07l-.09-.06h-.29L2.36 0A1.93 1.93 0 00.09 1.56a1.5 1.5 0 000 .22 2.34 2.34 0 001.43 2.74l10.33 2.76 11.28 44.51A2 2 0 0025 53.41h.16s.08 0 .12-.12h33a40.27 40.27 0 01.39-4.39z"/><g style="isolation:isolate"><text class="cls-4" transform="matrix(.78 0 0 1 98.59 60.16)">E</text><text transform="matrix(.78 0 0 1 123.34 60.16)" style="isolation:isolate" letter-spacing=".57em" font-size="25.37" fill="#215565" font-family="Montserrat-SemiBoldItalic,Montserrat" font-weight="600" font-style="italic">X</text><text class="cls-4" transform="matrix(.78 0 0 1 148.22 60.16)">P</text><text transform="matrix(.78 0 0 1 174.04 60.16)" style="isolation:isolate" letter-spacing=".59em" font-size="25.37" fill="#215565" font-family="Montserrat-SemiBoldItalic,Montserrat" font-weight="600" font-style="italic">RESS</text></g></g></g></svg>